<svg xmlns="http://www.w3.org/2000/svg" viewBox="118 -118 296 296"  xmlns:v="https://vecta.io/nano"><style><![CDATA[.B{stroke:#005082}.C{stroke-width:2}.D{stroke-miterlimit:10}.E{fill:#309acc}]]></style><path fill="#f0f8fc" d="M404.4 26.8c0 77.8-63.1 140.9-140.9 140.9S122.6 104.6 122.6 26.8s63.1-140.9 140.9-140.9S404.4-51 404.4 26.8"/><g fill="#c0d6e4" class="B C D"><path d="M305.2-56h-68.4V92.7h105.9V-18.5z"/><path d="M342.7-18.5L305.2-56h-2v39.3h39.5z"/></g><g opacity=".2" class="E"><path d="M285.1 7.6C271.5-6 249.5-6 235.9 7.6c-11.8 11.8-13.3 29.9-4.7 43.3L221 61.1l10 10L241.2 61c13.5 9.1 32 7.6 43.9-4.3 13.6-13.6 13.6-35.6 0-49.1zm-4.3 44.9c-11.2 11.2-29.4 11.2-40.7 0-11.1-11.3-11.1-29.5.1-40.7s29.4-11.2 40.7 0c11.2 11.2 11.2 29.4-.1 40.7z"/><path d="M186.829 113.048l-7.637-7.637 43.062-43.062 7.637 7.637z"/></g><path fill="#c0d6e4" d="M223.1-7c4.5-2.5 9.8-4 15.3-4 17.3 0 31.3 14 31.3 31.3s-14 31.3-31.3 31.3c-5.6 0-10.8-1.5-15.3-4V-7z" class="B C D"/><path opacity=".2" d="M234.2 9.1a37.58 37.58 0 0 1 24.6-11c-2.1-2.7-4.7-5-7.6-6.9C243-7.1 235.1-3 228.6 3.5c-10.9 10.9-15.2 26-12.7 40.2 2.8 1.9 5.9 3.5 9.2 4.4-4.5-13.3-1.5-28.5 9.1-39z" class="E"/><g fill="#f3c142"><path d="M217.717 48.776l-10.253 10.253-10.041-10.041 10.253-10.253z" class="B C D"/><path d="M236.9 55.8c-9.5 0-18.5-3.7-25.3-10.5S201.1 29.6 201.1 20c0-9.5 3.7-18.5 10.5-25.3s15.7-10.5 25.3-10.5c9.5 0 18.5 3.7 25.3 10.5 13.9 13.9 13.9 36.6 0 50.6-6.7 6.8-15.7 10.5-25.3 10.5zm0-63.5c-7.4 0-14.4 2.9-19.6 8.1-10.8 10.8-10.8 28.4 0 39.2 5.2 5.2 12.2 8.1 19.6 8.1s14.4-2.9 19.6-8.1 8.1-12.2 8.1-19.6-2.9-14.4-8.1-19.6-12.2-8.1-19.6-8.1z"/></g><path fill="#005082" d="M236.9-14.7a34.68 34.68 0 0 1 24.6 10.2c13.6 13.6 13.6 35.6 0 49.1a34.68 34.68 0 0 1-49.2 0C198.7 31 198.7 9 212.3-4.5a34.68 34.68 0 0 1 24.6-10.2m0 63.5c7.4 0 14.7-2.8 20.3-8.4 11.2-11.2 11.2-29.4 0-40.7-5.6-5.6-13-8.4-20.3-8.4s-14.7 2.8-20.3 8.4c-11.2 11.2-11.2 29.4 0 40.7 5.6 5.6 13 8.4 20.3 8.4m0-65.5c-9.8 0-19 3.8-26 10.8-6.9 6.9-10.8 16.2-10.8 26s3.8 19 10.8 26c6.9 6.9 16.2 10.8 26 10.8s19-3.8 26-10.8c6.9-6.9 10.8-16.2 10.8-26s-3.8-19-10.8-26c-6.9-7-16.2-10.8-26-10.8h0zm0 63.5c-7.1 0-13.9-2.8-18.9-7.8-10.4-10.4-10.4-27.4 0-37.8 5.1-5.1 11.8-7.8 18.9-7.8s13.9 2.8 18.9 7.8c10.4 10.4 10.4 27.4 0 37.8-5 5-11.7 7.8-18.9 7.8h0z"/><path d="M206.276 57.875l-43.062 43.062-7.637-7.637 43.062-43.062z" class="B C D E"/><path fill="#005082" d="M180.3 22.8v-.9c0-1.7.6-3.1 2.2-4.1l1.2-.8c.9-.6 1.4-1.6 1.4-2.6 0-1.6-1-3-3.1-3-2.3 0-3.3 1.7-3.3 3.4a5.07 5.07 0 0 0 .2 1.3l-2.6-.3c-.1-.4-.2-.8-.2-1.3 0-2.4 1.8-5.4 5.8-5.4 3.7 0 5.8 2.6 5.8 5.3 0 2.1-1.2 3.6-2.7 4.6l-1.2.8c-.8.6-1.2 1.5-1.2 2.5v.5h-2.3zm1.2 2c1 0 1.7.8 1.7 1.7 0 1-.8 1.7-1.7 1.7-1 0-1.7-.8-1.7-1.7s.7-1.7 1.7-1.7z"/><path fill="#f0f8fc" d="M258.1 8.8c.1.9.1 1.7.1 2.6 0 13.8-11.2 25-25 25-6.6 0-12.6-2.6-17.1-6.7 3.8 7.8 11.8 13.1 21.1 13.1 13 0 23.5-10.5 23.5-23.5 0-3.7-1-7.3-2.6-10.5z"/></svg>