<svg xmlns="http://www.w3.org/2000/svg" width="36.911" height="41.474" viewBox="0 0 36.911 41.474"><g transform="translate(-230.414 -244.033)"><path d="M267.215,268.784l-2.886-5.747a1.011,1.011,0,0,0-.9-.556H234.308a1,1,0,0,0-.9.555l-2.887,5.75a1.026,1.026,0,0,0,.038.993,1.007,1.007,0,0,0,.859.487h.808v14.223a1.015,1.015,0,0,0,1.006,1.018h31.271a1.014,1.014,0,0,0,1-1.017V270.264h.808a1,1,0,0,0,.858-.486A1.025,1.025,0,0,0,267.215,268.784Zm-19.984-4.269-1.865,3.715H233.06l1.864-3.715Zm2.35,13.915a1.006,1.006,0,0,0-1.718.712v4.329H234.239V270.264h11.744a1.007,1.007,0,0,0,.9-.557l.984-1.96V271.8a1.006,1.006,0,1,0,2.012,0v-4.057l.984,1.959a.993.993,0,0,0,.9.558H263.5l0,13.207H249.875v-4.329A1,1,0,0,0,249.581,278.43Zm13.231-13.915,1.866,3.715H252.373l-1.865-3.715Z"/><path d="M248.87,261.223h.007a8.595,8.595,0,0,0,.007-17.19h-.008a8.595,8.595,0,0,0-.006,17.19Zm-6.554-8.6a6.573,6.573,0,0,1,6.555-6.558h.006a6.561,6.561,0,0,1,.007,13.122h-.008A6.571,6.571,0,0,1,242.316,252.626Z"/><path d="M245.147,254.068h0l2.1,1.781a1.02,1.02,0,0,0,.658.242H248a1.016,1.016,0,0,0,.693-.361l4.093-4.892a1.014,1.014,0,0,0-.127-1.432,1.019,1.019,0,0,0-1.432.126l-3.441,4.1-1.394-1.182a1.017,1.017,0,1,0-1.316,1.552Z"/><path d="M236.608,251.468H233.07a1.018,1.018,0,0,0,0,2.035h3.538a1.018,1.018,0,0,0,0-2.035Z"/><path d="M232.6,247.939l3.532,1.861a1.017,1.017,0,1,0,.948-1.8l-3.532-1.859a1.017,1.017,0,0,0-1.472,1.168A1.035,1.035,0,0,0,232.6,247.939Z"/><path d="M236.127,255.236,232.59,257.1a1.019,1.019,0,0,0-.425,1.369l.023.038a1.019,1.019,0,0,0,1.352.393l3.535-1.862a1.017,1.017,0,1,0-.948-1.8Z"/><path d="M261.131,253.5h3.535a1.018,1.018,0,1,0,0-2.035h-3.535a1.018,1.018,0,0,0,0,2.035Z"/><path d="M261.13,249.921h.247l-.007-.032a1.051,1.051,0,0,0,.236-.089l3.523-1.859a1.017,1.017,0,1,0-.937-1.8L260.658,248a1.017,1.017,0,0,0,.472,1.917Z"/><path d="M265.14,257.1l-3.536-1.862a1.017,1.017,0,0,0-1.445,1.2,1,1,0,0,0,.5.6l3.535,1.862a1.017,1.017,0,1,0,.948-1.8Z"/><path d="M248.869,274.618h-.2v.024a1.015,1.015,0,0,0,.2,2.01h.006a1.017,1.017,0,0,0-.006-2.034Z"/></g></svg>