<svg xmlns="http://www.w3.org/2000/svg" width="35.51" height="33.785" viewBox="0 0 35.51 33.785"><path d="M265.66,252.95l-5.211-4.425a2.725,2.725,0,0,0-1.762-.648H239.052a2.736,2.736,0,0,0-1.762.648l-5.211,4.425a2.74,2.74,0,0,0-.73.98,2.7,2.7,0,0,0-.234,1.1v24.153a2.475,2.475,0,0,0,2.468,2.476h30.576a2.477,2.477,0,0,0,2.466-2.475V255.04A2.735,2.735,0,0,0,265.66,252.95Zm-20.251,8.716a2.278,2.278,0,0,0,.911-.224l2.56-1.424,2.6,1.452a1.942,1.942,0,0,0,2.591-.915,1.961,1.961,0,0,0,.191-.836v-4.183h10.053v23.652a.181.181,0,0,1-.159.161H233.584a.162.162,0,0,1-.161-.162V255.536h10.056v4.185A1.94,1.94,0,0,0,245.409,261.666Zm6.543-2.573-1.882-1.048a1.888,1.888,0,0,0-2.313-.043l-1.972,1.1V255.03a3.387,3.387,0,0,1,.108-.916l.977-3.922,4,0,.986,3.951a3.46,3.46,0,0,1,.1.9Zm2.055-5.871-.757-3.032h5.437a.427.427,0,0,1,.271.1l3.452,2.932Zm-18.679,0,3.453-2.933h0a.424.424,0,0,1,.272-.1h5.44l-.755,3.033Z" transform="translate(-231.115 -247.877)"/></svg>