<svg xmlns="http://www.w3.org/2000/svg" width="28" height="33.008" viewBox="0 0 28 33.008"><g transform="translate(-243.752 -244.071)"><path d="M245.784,268.412a2.035,2.035,0,0,0-2.032,2.032v4.6a2.032,2.032,0,1,0,4.064,0v-4.6A2.035,2.035,0,0,0,245.784,268.412Z"/><path d="M269.72,251.562a2.035,2.035,0,0,0-2.032,2.032v21.445a2.034,2.034,0,0,0,2.03,2.031h0a2.031,2.031,0,0,0,2.031-2.031V253.594A2.035,2.035,0,0,0,269.72,251.562Z"/><path d="M257.757,244.071h-.01a2.031,2.031,0,0,0-2.027,2.024v28.952a2.032,2.032,0,1,0,4.064,0V246.094a2.026,2.026,0,0,0-2.027-2.023Z"/></g></svg>