<svg xmlns="http://www.w3.org/2000/svg" viewBox="0 0 19.13 19.13"><defs><style>.app_widget_a{fill:#61576e;}</style></defs><path class="app_widget_a" d="M14.173,4.609A2.609,2.609,0,1,1,11.565,2,2.609,2.609,0,0,1,14.173,4.609ZM18.521,2A2.609,2.609,0,1,0,21.13,4.609,2.609,2.609,0,0,0,18.521,2ZM4.609,2A2.609,2.609,0,1,0,7.217,4.609,2.609,2.609,0,0,0,4.609,2Zm0,6.956a2.609,2.609,0,1,0,2.609,2.609A2.609,2.609,0,0,0,4.609,8.956Zm6.956,0a2.609,2.609,0,1,0,2.609,2.609A2.609,2.609,0,0,0,11.565,8.956Zm6.956,0a2.609,2.609,0,1,0,2.609,2.609A2.609,2.609,0,0,0,18.521,8.956ZM4.609,15.912a2.609,2.609,0,1,0,2.609,2.609A2.609,2.609,0,0,0,4.609,15.912Zm6.956,0a2.609,2.609,0,1,0,2.609,2.609A2.609,2.609,0,0,0,11.565,15.912Zm6.956,0a2.609,2.609,0,1,0,2.609,2.609A2.609,2.609,0,0,0,18.521,15.912Z" transform="translate(-2 -2)"/></svg>