<svg xmlns="http://www.w3.org/2000/svg" width="42.597" height="38.604" viewBox="0 0 42.597 38.604"><g transform="translate(-227.571 -245.468)"><path d="M233.6,272.51l-2.489-1.2a.846.846,0,0,0-.735,1.525l2.488,1.2a.838.838,0,0,0,.647.023.835.835,0,0,0,.474-.441A.847.847,0,0,0,233.6,272.51Z"/><path d="M235.89,271.055l-.14.266h0l.135-.269-4.759-2.3a.847.847,0,0,0-1.143.355.859.859,0,0,0,.4,1.165l4.755,2.3a.849.849,0,0,0,1.142-.355.838.838,0,0,0,.06-.645A.863.863,0,0,0,235.89,271.055Z"/><path d="M270.168,254.547a9.073,9.073,0,0,0-17.147-4.144l-7.327-3.477a.851.851,0,0,0-.731,0l-16.911,8.027a.84.84,0,0,0-.481.755v19.5a.834.834,0,0,0,.48.75l16.919,8.029a.85.85,0,0,0,.365.083.868.868,0,0,0,.366-.082l16.915-8.03a.837.837,0,0,0,.482-.754V263.392A9.1,9.1,0,0,0,270.168,254.547ZM255.286,264.9l-2.392,1.135v-4.957l1.316-.624a9.111,9.111,0,0,0,1.076,1.067Zm-2.059-5.835-1.209.574-14.94-7.087,2.5-1.191,12.934,6.141A9.017,9.017,0,0,0,253.227,259.065Zm.262-4.514a7.61,7.61,0,0,1,7.356-7.6h.245a7.6,7.6,0,1,1-7.6,7.6Zm-1.478,0c0,.3.016.592.044.883L241.5,250.422l3.827-1.816,7.062,3.352A9.037,9.037,0,0,0,252.011,254.547Zm9.394,20.135-15.226,7.226V264.263l3.6-1.708a.834.834,0,0,0,.4-1.124.86.86,0,0,0-1.126-.387l-3.718,1.766-1.384-.656a.854.854,0,0,0-1.128.388.838.838,0,0,0,.4,1.12l1.271.6v17.644l-15.227-7.226V257.037l11.622,5.515a.837.837,0,0,0,.367.085.867.867,0,0,0,.763-.468.838.838,0,0,0-.395-1.121l-11.247-5.34,4.724-2.241,16.108,7.644v6.254a.826.826,0,0,0,.4.71.853.853,0,0,0,.814.045l4.08-1.937a.838.838,0,0,0,.484-.755v-2.8a9,9,0,0,0,4.112.995c.106,0,.21-.012.315-.016Z"/><path d="M262.939,258.16h1.9a1.208,1.208,0,0,0,1.2-1.273v0a1.187,1.187,0,0,0-.806-.988,1,1,0,0,1-.585-.81V253.1a3.511,3.511,0,0,0-2.47-3.372.822.822,0,0,0,.023-.112,1.113,1.113,0,1,0-2.225,0,.9.9,0,0,0,.023.115,3.553,3.553,0,0,0-2.471,3.369v1.965a.925.925,0,0,1-.48.778l.133.242-.043.022-.187-.215a1.162,1.162,0,0,0,.382,2.266h1.9a1.964,1.964,0,0,0,1.848,1.313,1.71,1.71,0,0,0,.2-.011A1.965,1.965,0,0,0,262.939,258.16Zm-1.806-7.287a2.272,2.272,0,0,1,2.238,2.229v2a2.211,2.211,0,0,0,1.007,1.78h-6.572a2.22,2.22,0,0,0,1-1.795v-1.973a2.285,2.285,0,0,1,2.281-2.24Zm.2,7.285a.691.691,0,0,1-.237.043h0a.7.7,0,0,1-.238-.043Z"/></g></svg>