<svg xmlns="http://www.w3.org/2000/svg" width="98.2" height="104.2" viewBox="0 0 98.2 104.2"><defs><style>.bangalore_a,.bangalore_b{fill:#6f57e9;}.bangalore_b{stroke:#6f57e9;stroke-width:0.2px;}</style></defs><g transform="translate(-19.267 -15.99)"><g transform="translate(19.367 50.173)"><path class="bangalore_a" d="M68.43,49.335l-.362.186c.149.086.179.27.314.379C68.225,49.69,68.311,49.511,68.43,49.335Z" transform="translate(9.648 -30.609)"/><path class="bangalore_b" d="M116.4,64.373a2.917,2.917,0,0,1-1.068-2.839,3.821,3.821,0,0,0-1.294-3.7c-.247-.215-.476-.455-.184-.851a.84.84,0,0,0-.191-1.155,11.485,11.485,0,0,0-.967-.982c-.539-.441-.581-.826-.225-1.466a4.531,4.531,0,0,0-.715-5.88c-.308-.341-.637-.662-.961-.988a34.572,34.572,0,0,1-3.192-3.552c-.185-.248-.444-.425-.113-.842,1.47-1.854.9-3.609-1.384-4.389a.516.516,0,0,0-.747,0c-2.266.721-2.906,2.588-1.451,4.36.318.385.156.567-.051.84a49.086,49.086,0,0,1-3.836,4.2c-2.148,2.242-2.355,3.779-.918,6.52a.673.673,0,0,1-.128.948,9.589,9.589,0,0,0-1.537,1.7c-.23.474.756.942-.072,1.5l-.292-1.31c-.962-1.361-2.092-1.816-3.364-1.356-1.312.476-1.864,1.555-1.648,3.262.029.229.062.4-.195.53-.493.243-.522.7-.519,1.178.011,1.346-.011,2.693.011,4.039.008.5-.057.789-.683.783-.61-.008-.606-.328-.6-.761.011-1.712,0-3.426.006-5.14,0-.374.041-.837-.327-.988-.659-.269-.592-.77-.562-1.281.069-1.184.046-2.3-1.093-3.092a1.663,1.663,0,0,1,.064-2.005,2.976,2.976,0,0,0,1.04-2.85c-.059-1.467-.172-1.626-1.652-1.626q-19.187,0-38.376,0a7.151,7.151,0,0,0-.827.021.9.9,0,0,0-.724.506,4.573,4.573,0,0,0,.614,3.595,1.745,1.745,0,0,1-.008,2.751,1.876,1.876,0,0,0-.705,1.685c.046.485,0,.979.01,1.467,0,.282.008.53-.33.667-.554.223-.587.715-.584,1.229.01,1.714,0,3.426.01,5.14,0,.431-.065.676-.594.676s-.7-.186-.677-.7a16.886,16.886,0,0,1,.032-2.381c.332-1.766-.908-3.262-.761-4.989.022-.278-.257-.613-.455-.877a2.714,2.714,0,0,0-4.54.519c-.083.406-.166.812-.268,1.308-.839-.522.131-1.046-.1-1.5a7.132,7.132,0,0,0-1.406-1.567.83.83,0,0,1-.164-1.236c1.3-2.323,1.082-4.042-.7-6.028-.326-.364-.672-.713-1.02-1.057a31.766,31.766,0,0,1-3.126-3.485c-.171-.228-.394-.387-.107-.769,1.471-1.957.9-3.711-1.407-4.424a.517.517,0,0,0-.747,0,2.567,2.567,0,0,0-1.549,4.2c.418.471.322.707.008,1.123a55.211,55.211,0,0,1-4.171,4.524c-1.358,1.432-1.9,3.16-1,4.881.766,1.472.5,2.358-.7,3.253-.385.286-.673.74-.353,1.2.338.482.061.748-.223,1.007a3.556,3.556,0,0,0-1.221,3.359,3.356,3.356,0,0,1-1.257,3.318,2.307,2.307,0,0,0-.768,1.956q.034,19.648.016,39.3c0,1.464.172,1.639,1.628,1.639q47.36,0,94.721,0c1.446,0,1.615-.173,1.615-1.652q0-19.464.021-38.929A2.987,2.987,0,0,0,116.4,64.373Zm-2.049.559h-7.824q-4,0-8,0c-.222,0-.57.1-.584-.253s.335-.278.557-.278q7.542-.007,15.085,0A.68.68,0,0,1,114.356,64.931Zm-8.662-25.368a.727.727,0,0,1,.787.707c-.043.45-.266.754-.731.769a.738.738,0,1,1-.056-1.475ZM100.6,49.206c1.548-1.854,3.432-3.409,4.84-5.391.254-.356.452-.181.634.073a57.123,57.123,0,0,0,4.5,4.962,3.071,3.071,0,0,1,.1,4.176.719.719,0,0,1-.613.323c-.672-.01-1.344,0-2.209,0,1.289-2.564.541-4.6-1.171-6.421-.728-.777-1.186-.773-1.913,0-1.715,1.828-2.432,3.869-1.178,6.418-.857,0-1.572,0-2.288,0a.606.606,0,0,1-.463-.248A3.078,3.078,0,0,1,100.6,49.206Zm9.027,5.84c.184,0,.367,0,.551.011.3.019.611.156.6.447-.008.353-.38.21-.59.212-1.5.014-3,.008-4.5.008-1.47,0-2.939,0-4.409-.006-.219,0-.587.126-.61-.2-.018-.286.3-.434.6-.458.184-.014.367-.013.551-.013Zm-4.961-4.066c-.008-.926.731-2.384,1.1-2.331.326.046,1.023,1.54,1.016,2.177,0,.03,0,.06,0,.091-.053.956-.83,2.56-1.08,2.365A3.535,3.535,0,0,1,104.666,50.98Zm-4.723,6.638c.2-.251.5-.191.771-.191,3.345,0,6.688.006,10.031-.01a1.126,1.126,0,0,1,1.016.484,4.569,4.569,0,0,0,.716.835,3.529,3.529,0,0,1,1.095,3.222c-.034.579-.243.719-.776.715-2.362-.019-4.723-.008-7.085-.008-2.331,0-4.664-.018-6.994.013-.632.008-.758-.2-.866-.82C97.508,59.891,98.942,58.876,99.943,57.617ZM94.707,56.8a.77.77,0,0,1,.766.858c-.013.546-.349.813-.894.85-.514-.092-.847-.376-.806-.923A.791.791,0,0,1,94.707,56.8Zm-1.532,5.953c0-2.156,0-2.132,2.14-2.131.641,0,.854.191.822.829-.048.942-.03,1.887-.008,2.831s-.718.667-1.1.579c-.621-.145-1.593.64-1.838-.559A7.842,7.842,0,0,1,93.175,62.753Zm-4.845-2.425c-.041,1.283-.021,2.568-.01,3.853,0,.441-.024.751-.621.751-.641,0-.57-.388-.57-.788,0-.8,0-1.59,0-2.385,0-.6-.231-1.05-.884-1.05s-.881.473-.889,1.057c-.011.856-.018,1.712,0,2.568.01.428-.139.6-.582.592-.424,0-.613-.123-.6-.571.024-.856,0-1.712.008-2.568,0-.6-.2-1.058-.855-1.077s-.9.452-.918,1.033c-.022.764.006,1.529-.016,2.293-.013.379.2.882-.546.9-.8.014-.582-.528-.6-.939-.021-.672-.014-1.345,0-2.018.011-.63-.083-1.248-.855-1.26-.835-.013-.926.64-.921,1.3.006.764-.01,1.528,0,2.293.008.4-.086.617-.559.621s-.646-.165-.63-.64c.027-.824,0-1.652.01-2.476.01-.6-.19-1.071-.833-1.1-.718-.035-.926.487-.935,1.1-.011.764-.024,1.529,0,2.293.019.536-.061.842-.732.835-.621-.006-.78-.207-.776-.794.013-1.375,0-2.751-.083-4.123-.035-.627.365-.444.648-.446,2.023-.013,4.047-.006,6.07-.006,1.963,0,3.924.019,5.887-.011C88.136,59.549,88.35,59.716,88.331,60.327Zm-38.046-9.5a5.157,5.157,0,0,0-.517-.522.969.969,0,0,1-.4-1.05c.156-.512.619-.293.943-.293q9.019-.021,18.04-.011t18.04.01c.329,0,.79-.208.959.28a1.009,1.009,0,0,1-.375,1.055,3.379,3.379,0,0,0-.011,4.772,3.736,3.736,0,0,1,.367,2.514c-.139.228-.364.194-.57.194-4.449,0-8.9.013-13.347-.008a1.788,1.788,0,0,1-2.035-1.445,3.048,3.048,0,0,0-6.038.011,1.756,1.756,0,0,1-2.03,1.432c-4.447.025-8.9.008-13.345.019-.485,0-.635-.186-.637-.649,0-.948-.07-1.844.865-2.538C50.912,54.073,50.878,51.511,50.285,50.832ZM73.307,64.241c.014.519-.171.694-.689.684-1.411-.027-2.821-.01-4.232-.01-1.38,0-2.761-.032-4.139.014-.659.022-.849-.208-.82-.839.049-1.1-.013-2.2.045-3.3.065-1.208.491-1.542,1.711-1.482,1.267.062,1.393-.046,1.518-1.322a3.4,3.4,0,0,1,.817-2c.63-.7,1.109-.694,1.738.038a3.51,3.51,0,0,1,.793,2.109c.083,1.057.33,1.257,1.385,1.19,1.382-.089,1.806.261,1.851,1.618C73.321,62.037,73.276,63.139,73.307,64.241ZM49.163,59.56c1.993.024,3.986.01,5.979.01s3.986.014,5.979-.01c.543-.008.7.084.653.7-.1,1.308-.085,2.629-.061,3.942.01.571-.185.738-.74.729-.512-.011-.8-.088-.771-.7.045-.824.019-1.652,0-2.478-.01-.582-.239-1.057-.9-1.049s-.878.461-.876,1.061c0,.856-.014,1.714,0,2.568.011.434-.152.587-.589.587s-.6-.148-.594-.584c.019-.856.006-1.712,0-2.568,0-.592-.23-1.057-.879-1.063s-.886.457-.892,1.047c-.008.856-.018,1.712,0,2.568.01.422-.124.6-.576.6s-.6-.156-.586-.587c.019-.856.011-1.714,0-2.57-.006-.586-.235-1.053-.887-1.058s-.884.45-.887,1.046c0,.826-.01,1.652,0,2.478.006.411-.029.7-.574.7-.515,0-.618-.216-.606-.66.022-.826.006-1.652.006-2.478,0-.587-.211-1.065-.86-1.082-.712-.018-.922.484-.924,1.109,0,.826-.01,1.652,0,2.476.006.387-.048.633-.538.633-.471,0-.656-.14-.646-.627.024-1.346.037-2.693-.006-4.037C48.394,59.669,48.628,59.552,49.163,59.56Zm-7.088-2.766a.848.848,0,1,1,.006,1.695.781.781,0,0,1-.827-.89A.77.77,0,0,1,42.075,56.795Zm-1.462,5.933c0-2.139,0-2.118,2.181-2.1.581,0,.814.148.784.762-.048.91-.013,1.825-.013,2.739,0,.121.045.277-.014.36-.627.88-1.538.226-2.3.4-.369.086-.657-.033-.64-.514C40.629,63.824,40.614,63.275,40.613,62.727Zm2.311,3.864c17.489.081,34.98.053,52.47.032a2.444,2.444,0,0,1,2.078.869c1.04,1.2,2.2,2.306,3.3,3.458.179.186.452.325.442.7H35.328a36.9,36.9,0,0,0,2.864-3.033C39.413,67,40.916,66.581,42.924,66.591ZM95.2,75.905c0,2.069-.259,2.272-2.339,1.948-.369-.057-.452-.224-.45-.538q0-1.645,0-3.288a.243.243,0,0,1,0-.091c.44-1.03,1.32-.293,1.974-.469.348-.092.838-.127.815.52-.019.547,0,1.1,0,1.644Zm-9.843.048c0,1.922,0,1.892-1.916,1.911-.681.008-.919-.18-.878-.872.056-.971.034-1.948.006-2.922-.013-.489.191-.646.651-.627.517.022,1.037.021,1.556,0,.434-.018.6.161.586.59-.022.547-.006,1.1,0,1.644Zm-9.8-.127c0,2.268,0,2.258-2.25,2.031-.386-.04-.536-.164-.531-.551.014-1.1,0-2.2,0-3.293,0-.06-.021-.14.01-.18.6-.805,1.441-.212,2.156-.374.381-.086.64.065.618.538-.027.578-.006,1.159-.006,1.738ZM61.426,73.494c.763-.03,1.53-.033,2.293.01.271.016.214.329.217.535.008.551,0,1.1,0,1.652v.183c0,2.207,0,2.2-2.226,1.983-.381-.037-.546-.15-.541-.546.014-1.1,0-2.2.006-3.3C61.181,73.8,61.142,73.505,61.426,73.494Zm-7.28,3.729c.011.484-.185.613-.648.637-2.118.108-2.116.123-2.116-2.266v-.185c0-2.126,0-2.11,2.143-1.972.487.032.63.208.621.667C54.124,75.143,54.121,76.184,54.146,77.223Zm-9.839-1.55v.183c0,2.093,0,2.077-2.1,2-.5-.018-.712-.148-.694-.678.03-1.034.026-2.07,0-3.1-.013-.482.182-.613.643-.638C44.307,73.319,44.307,73.3,44.307,75.673ZM31.021,39.549c.455.056.736.293.723.765a.741.741,0,0,1-1.482-.029A.715.715,0,0,1,31.021,39.549Zm-4.91,9.4c1-1.116,2.079-2.163,3.1-3.262.5-.539.949-1.122,1.4-1.7.246-.317.434-.5.748-.062a54.955,54.955,0,0,0,4.561,5.029,2.609,2.609,0,0,1,.611,2.793c-.519,1.537-1.368,1.992-2.946,1.593-.448-.113-.233-.36-.158-.544.945-2.331.15-4.233-1.462-5.931-.718-.754-1.2-.75-1.926.019-1.637,1.733-2.4,3.676-1.4,6.023a2.708,2.708,0,0,1,.093.425c-.72,0-1.387,0-2.052,0a.685.685,0,0,1-.543-.285A3.037,3.037,0,0,1,26.111,48.949Zm9.956,6.587H25.942C26.806,54.989,35.339,55.011,36.067,55.536Zm-5.4-6.564c.179-.221.341-.485.611-.091a3.792,3.792,0,0,1,.772,1.93,5.254,5.254,0,0,1-.76,2.223c-.163.267-.311.313-.551.033A3.475,3.475,0,0,1,30.667,48.972Zm-5.346,8.606c.2-.237.517-.15.787-.15,3.276,0,6.554,0,9.83-.011a1.181,1.181,0,0,1,1.1.5,5.341,5.341,0,0,0,.887,1.046c1.013.842.951,1.959.914,3.1-.018.571-.381.522-.753.522q-3.538,0-7.074,0c-2.327,0-4.655-.019-6.981.014-.64.008-.748-.21-.851-.821C22.846,59.8,24.3,58.813,25.321,57.578Zm-2.1,6.8q7.494,0,14.989.008c.231,0,.629-.159.626.291,0,.3-.308.236-.506.236q-7.861,0-15.725-.008c-.048,0-.1-.053-.152-.084C22.523,64.352,22.879,64.376,23.218,64.376Zm21.089,39.3c0,2.194,0,2.18-2.183,2.027-.445-.032-.584-.193-.579-.6q.019-1.6,0-3.2c0-.409.126-.576.574-.608,2.188-.151,2.188-.167,2.188,2.3Zm9.83,1.461c0,.247.011.533-.337.539-.705.016-1.411.019-2.114-.006-.361-.013-.3-.329-.3-.56-.01-.551,0-1.1,0-1.652v-.183c0-2.194,0-2.183,2.215-1.983.385.033.549.148.544.541C54.129,102.939,54.14,104.04,54.137,105.141Zm9.819-1.458c0,2.152,0,2.136-2.17,2.024-.493-.024-.626-.2-.616-.656q.034-1.554,0-3.109c-.011-.461.129-.627.619-.651,2.169-.1,2.167-.121,2.167,2.209Zm11.6.075c0,2.069-.249,2.264-2.338,1.945-.375-.057-.444-.232-.442-.541,0-1.1,0-2.2,0-3.294,0-.06-.021-.138.008-.18.59-.815,1.438-.2,2.148-.374.377-.091.648.043.627.524-.027.578-.006,1.158-.006,1.738C75.553,103.636,75.553,103.7,75.553,103.759Zm9.8-.006c0,1.989,0,1.965-1.974,1.959-.594,0-.82-.161-.8-.772.041-.975.027-1.954,0-2.93-.011-.481.1-.7.656-.719,2.111-.08,2.11-.1,2.11,2.279Zm9.6,1.9c-.763.033-1.529.038-2.292,0-.26-.014-.22-.325-.223-.532-.006-.551,0-1.1,0-1.65v-.183c0-2.1,0-2.086,2.127-1.991.469.021.654.151.643.633-.026,1.069,0,2.139-.011,3.21C95.192,105.34,95.239,105.641,94.953,105.654Zm19.6.041c-5.523-.029-11.049-.037-16.572.006-.89.006-1.09-.3-1.053-1.106.056-1.283-.008-2.572.022-3.856.019-.864-.38-1.235-1.216-1.229-1.289.008-2.579-.014-3.868.006-.962.016-1.216.3-1.222,1.3-.008,1.378-.022,2.755.008,4.133.013.563-.187.764-.745.735a18.688,18.688,0,0,0-2.025,0c-.56.029-.756-.173-.744-.737.032-1.377.018-2.755.008-4.133-.008-1-.27-1.286-1.232-1.3-1.288-.021-2.577,0-3.867-.006-.828,0-1.246.349-1.227,1.219.029,1.346-.032,2.7.021,4.04.03.748-.249.926-.954.925-2.531-.008-2.531.014-2.531-2.53,0-.8.014-1.593,0-2.389-.022-.952-.319-1.248-1.289-1.26-1.289-.016-2.579,0-3.867-.006a1.077,1.077,0,0,0-1.229,1.244c.01,1.377-.019,2.755.013,4.131.013.581-.145.827-.772.807-1.226-.041-2.456-.037-3.681,0-.594.018-.814-.167-.8-.78.038-1.377.022-2.755.008-4.133-.01-.969-.292-1.249-1.275-1.262-1.289-.016-2.579,0-3.868-.006-.851,0-1.226.415-1.219,1.248.01,1.408-.013,2.817.008,4.223.008.5-.153.686-.681.711-2.813.135-2.813.15-2.813-2.635,0-.826-.013-1.653,0-2.479.014-.753-.407-1.05-1.09-1.057-1.38-.013-2.762-.016-4.143,0-.755.01-1.091.42-1.08,1.176.019,1.378-.019,2.756.014,4.133.016.6-.126.858-.8.867-2.7.032-2.7.056-2.7-2.638,0-.826,0-1.653,0-2.479a.935.935,0,0,0-1.012-1.052c-1.411-.025-2.823-.018-4.235,0a.949.949,0,0,0-1.055,1.093c.016,1.408-.021,2.817.016,4.223.014.617-.148.858-.817.855q-8.471-.036-16.942,0c-.622,0-.852-.153-.852-.815q.026-18.69.013-37.378c0-.412-.032-.794.584-.792q7.729.017,15.46.006l.123.21L34.1,70.348q-.637.666-1.278,1.324c-.353.361-.7.735-.436,1.286.251.528.75.568,1.259.567q2.485,0,4.972,0c1.173,0,1.173,0,1.173,1.209,0,1.225.022,2.451-.006,3.674-.021.843.313,1.249,1.189,1.232,1.32-.027,2.639-.021,3.959,0,.815.01,1.173-.363,1.162-1.171-.019-1.378.026-2.756-.018-4.133-.021-.659.225-.859.851-.818a15.978,15.978,0,0,0,1.932,0c.571-.032.745.2.734.748-.03,1.346-.016,2.693-.008,4.04.006,1.066.247,1.318,1.283,1.327,1.289.01,2.579-.011,3.868.006.817.011,1.17-.363,1.159-1.171-.019-1.346.035-2.7-.019-4.04-.032-.746.243-.975.951-.912a8.455,8.455,0,0,0,1.655,0c.764-.081.934.259.91.95-.045,1.283-.024,2.57-.008,3.856.011,1.031.292,1.3,1.316,1.313,1.289.01,2.579-.008,3.867,0a1.019,1.019,0,0,0,1.179-1.173c-.01-1.348.04-2.7-.019-4.04-.034-.756.249-.944.949-.912a31.53,31.53,0,0,0,3.222,0c.811-.046,1.151.161,1.095,1.047-.08,1.251-.029,2.51-.018,3.765.01,1.022.3,1.3,1.32,1.31q1.886.014,3.774,0c.972-.008,1.273-.294,1.285-1.251.018-1.377.027-2.755,0-4.133-.013-.567.191-.761.745-.73a14.5,14.5,0,0,0,1.932,0c.681-.054.828.253.812.861-.034,1.346,0,2.694-.014,4.04-.011.839.335,1.244,1.208,1.225,1.318-.029,2.639-.024,3.959,0,.83.013,1.165-.393,1.16-1.181-.008-1.377.019-2.755-.011-4.131-.011-.571.131-.855.764-.813a16.534,16.534,0,0,0,2.025,0c.582-.032.734.22.723.757-.026,1.378.01,2.756-.014,4.133-.014.847.341,1.246,1.2,1.232q1.98-.029,3.959,0c.828.013,1.16-.38,1.147-1.181-.019-1.224,0-2.448,0-3.673,0-1.259,0-1.259,1.309-1.26q2.348,0,4.7,0c.562,0,1.147.024,1.412-.609.254-.6-.191-.969-.549-1.343q-2.221-2.32-4.435-4.623c.191-.352.468-.234.686-.234,4.849-.008,9.7.008,14.548-.022.728,0,.934.213.932.936q-.029,18.55,0,37.1C115.546,105.509,115.3,105.7,114.552,105.7Z" transform="translate(-19.367 -37.568)"/><path class="bangalore_a" d="M31.968,49.88c.076-.121.1-.276.238-.352l-.362-.194a.666.666,0,0,1,.083.156A.515.515,0,0,1,31.968,49.88Z" transform="translate(-11.933 -30.61)"/></g><path class="bangalore_b" d="M78.575,55.063c-1.038,0-2.074,0-3.112,0-.275,0-.6.032-.587-.381a4.478,4.478,0,0,1,.53-2.879,6.75,6.75,0,0,0,1.1-5.662A10.475,10.475,0,0,0,74.035,41.5a48.64,48.64,0,0,0-9.283-7.82,1.206,1.206,0,0,1-.628-1.185c.046-.79.011-1.585.011-2.379,0-.67-.341-1.084-1.006-1.016-.808.084-.892-.311-.863-.957a2.183,2.183,0,0,0-.17-1.423c-.319-.473-.866-.3-1.416-.449.471-.5.874-.9,1.255-1.327a7.745,7.745,0,0,0,2.25-4.1c.321-2.417-1.26-3.834-3.62-3.164-.6.168-.82.049-1.117-.462-.86-1.49-1.874-1.5-2.712-.024-.322.57-.578.638-1.193.47-2.28-.625-3.813.724-3.575,3.061a6.13,6.13,0,0,0,1.482,3.286c.614.751,1.281,1.457,2,2.274-1.5.17-1.577.262-1.581,1.738a2.262,2.262,0,0,0,0,.275c.071.554-.075.855-.727.8-.825-.071-1.143.4-1.12,1.187.021.732-.029,1.466.016,2.2a1.213,1.213,0,0,1-.611,1.195c-1.546,1.087-3.087,2.19-4.561,3.372a25.024,25.024,0,0,0-5.919,6.06c-1.874,3.009-2.1,6.062.032,9.074a2.963,2.963,0,0,1,.24,2.634c-.17.574-1.085.152-1.661.243a5.459,5.459,0,0,1-.822.006c-2.3,0-2.418.13-2.277,2.436.038.608.284,1.027.911,1.036a.836.836,0,0,0,.887-.949c-.014-.524.092-.763.7-.76s.806.19.771.79a.806.806,0,0,0,.9.917.828.828,0,0,0,.843-.9c.008-.122,0-.244.011-.367.036-.608.509-.382.828-.419s.628-.03.6.444c-.036.644.133,1.22.885,1.233s.946-.551.917-1.2c-.025-.617.428-.463.763-.478s.7-.059.67.479c-.041.652.151,1.206.909,1.2.706,0,.9-.536.87-1.151-.032-.578.348-.53.722-.536.39-.008.735-.019.7.549-.035.619.206,1.13.9,1.136s.939-.489.89-1.122c-.051-.649.39-.546.781-.565.416-.019.719.036.673.579-.054.64.222,1.117.906,1.109s.925-.525.885-1.143c-.036-.578.322-.54.7-.546.428-.008.8-.01.747.6-.057.646.214,1.109.912,1.087.652-.022.855-.494.822-1.089-.017-.338.021-.592.467-.6.47-.013.57.214.546.617-.035.6.206,1.06.847,1.073.7.014.949-.467.917-1.1-.021-.432.143-.581.579-.6.576-.021.919.059.874.771a.882.882,0,1,0,1.763.056c0-.513.036-.846.717-.838.646.008.754.273.746.82a.814.814,0,0,0,.843.9.844.844,0,0,0,.922-.916c.01-.473.013-.808.663-.8.6.01.8.187.789.782A.879.879,0,1,0,70,57.562c-.049-.568.165-.74.72-.732.524.008.8.1.747.708a.838.838,0,0,0,.838.995.848.848,0,0,0,.939-.987c-.033-.587.2-.714.74-.716s.774.157.727.728a.812.812,0,0,0,.839.978.837.837,0,0,0,.908-.928c.006-.49.063-.781.687-.784s.755.236.757.8a.836.836,0,0,0,.925.912.863.863,0,0,0,.857-.984c0-.457-.01-.916,0-1.373C79.706,55.412,79.33,55.058,78.575,55.063ZM61.436,19.349c.613-.081,1.027.163,1,.843a5.094,5.094,0,0,1-1.687,3.323c-.121-1.219-.184-2.241-.33-3.252C60.3,19.39,60.912,19.419,61.436,19.349Zm-3.4-.849a6.24,6.24,0,0,1,.638,2.236,30.221,30.221,0,0,1,.248,4.924c-.014.571-.24.735-.778.706-.481-.024-.873.032-.881-.679A21.416,21.416,0,0,1,58.035,18.5ZM56.2,28.157q1.873,0,3.747,0c.311,0,.517.06.528.444.011.441-.232.5-.579.489-.609-.011-1.217,0-1.827,0s-1.219-.008-1.828,0c-.351.006-.586-.057-.573-.494C55.682,28.209,55.9,28.155,56.2,28.157Zm-.789-4.669A5.14,5.14,0,0,1,53.732,20.4c-.081-.7.19-1.131.968-1.063.643.057,1.2.144,1.03,1.071C55.557,21.36,55.527,22.334,55.415,23.488Zm-.89,7.39q3.566.05,7.13,0c.812-.011.66.514.666.979s.119,1-.681.968c-1.187-.043-2.376-.011-3.564-.011s-2.379-.029-3.566.011c-.809.027-.662-.514-.667-.981S53.727,30.867,54.525,30.878Zm17.651,24.2q-14.087-.038-28.172,0c-.73,0-.928-.209-.927-.927s.178-.933.916-.928c4.726.033,9.452.017,14.177.017,4.666,0,9.331.014,13.995-.016.719,0,.938.19.927.917C73.081,54.839,72.924,55.083,72.176,55.082Zm-17.9-5.976c.919-.136,1.224-.565,1.181-1.476-.036-.779,1.744-2.8,2.487-3.02a.485.485,0,0,1,.492.148c1.052.936,2.358,1.687,2.279,3.407-.022.5.367.779.884.889a1.168,1.168,0,0,1,1.049,1.635.833.833,0,0,1-.946.762c-1.219-.035-2.439-.01-3.658-.01-1.158,0-2.318-.037-3.475.013a.906.906,0,0,1-1.081-.928C53.41,49.861,53.511,49.218,54.276,49.105ZM73.822,51a.964.964,0,0,1-.927.44c-1.312-.017-2.625-.006-3.937-.006-1.281,0-2.563-.019-3.844.01-.53.013-.746-.057-.657-.692A2.818,2.818,0,0,0,62.839,47.5a.789.789,0,0,1-.4-.565c-.659-1.977-2.206-3.164-3.85-4.255a.993.993,0,0,0-1.193.106c-1.595,1.108-3.115,2.282-3.7,4.259a.694.694,0,0,1-.394.462,2.844,2.844,0,0,0-1.595,3.272c.083.56-.057.671-.579.668q-3.937-.031-7.873,0a1.038,1.038,0,0,1-.97-.532,5.415,5.415,0,0,1-.76-4.794,10.725,10.725,0,0,1,2.785-4.351,55.576,55.576,0,0,1,8.531-6.892,1.707,1.707,0,0,1,1.039-.255q4.211.007,8.423,0a1.7,1.7,0,0,1,1.036.263,53.338,53.338,0,0,1,8.839,7.232,9.574,9.574,0,0,1,2.615,4.642A5.445,5.445,0,0,1,73.822,51Z" transform="translate(10.281)"/><path class="bangalore_a" d="M41.5,74.1c0,2.29-.006,4.578,0,6.867,0,.649-.136,1.225-.892,1.222s-.909-.579-.909-1.227q.007-6.91,0-13.822c0-.636.124-1.209.909-1.208s.892.571.89,1.211C41.5,69.461,41.5,71.779,41.5,74.1Z" transform="translate(12.122 29.446)"/><path class="bangalore_a" d="M67.242,74.091c0,2.288-.008,4.577.006,6.865,0,.655-.146,1.217-.9,1.224s-.919-.579-.919-1.217q0-6.91,0-13.822c0-.63.13-1.209.912-1.209s.9.557.9,1.2C67.237,69.454,67.242,71.772,67.242,74.091Z" transform="translate(27.451 29.447)"/><path class="bangalore_a" d="M33.564,74.046c0-2.288,0-4.578,0-6.867,0-.676.117-1.276.955-1.247.789.025.859.635.859,1.254q0,6.865,0,13.73c0,.632-.109,1.241-.866,1.262-.806.022-.954-.581-.951-1.266C33.57,78.623,33.564,76.335,33.564,74.046Z" transform="translate(8.457 29.447)"/><path class="bangalore_a" d="M61.105,74.073V81.03c0,.66-.229,1.19-.978,1.149-.627-.033-.836-.508-.835-1.1q.007-7,0-14.006c0-.617.162-1.13.879-1.139.774-.011.935.54.935,1.185Q61.1,70.593,61.105,74.073Z" transform="translate(23.793 29.446)"/><path class="bangalore_a" d="M45.889,74.031c0-2.287,0-4.573,0-6.86,0-.628.065-1.222.859-1.239s.9.571.9,1.2q0,6.905,0,13.811c0,.632-.1,1.238-.87,1.246-.841.008-.9-.64-.893-1.3C45.9,78.6,45.889,76.318,45.889,74.031Z" transform="translate(15.802 29.447)"/><path class="bangalore_a" d="M53.157,74.03c0-2.285,0-4.572,0-6.857,0-.625.071-1.227.86-1.241s.9.568.9,1.2q0,6.9,0,13.806c0,.633-.1,1.238-.866,1.244-.836.006-.9-.641-.9-1.3C53.162,78.6,53.157,76.315,53.157,74.03Z" transform="translate(20.133 29.447)"/><path class="bangalore_a" d="M54.857,66.162q-1.1,0-2.2,0a.866.866,0,1,1-.027-1.728q2.245-.012,4.486,0a.807.807,0,0,1,.884.851.829.829,0,0,1-.947.879C56.322,66.16,55.59,66.162,54.857,66.162Z" transform="translate(19.299 28.515)"/><path class="bangalore_a" d="M47.59,66.162h-2.2a.822.822,0,0,1-.932-.892.808.808,0,0,1,.9-.838c1.5-.008,2.991-.01,4.486,0a.808.808,0,0,1,.889.846.827.827,0,0,1-.944.881Z" transform="translate(14.965 28.515)"/><path class="bangalore_a" d="M67.157,66.163c-.73,0-1.458.006-2.188,0-.578-.006-.933-.29-.927-.885a.8.8,0,0,1,.884-.838q2.233-.026,4.467,0a.793.793,0,0,1,.878.841c.006.6-.344.881-.925.885C68.616,66.167,67.887,66.163,67.157,66.163Z" transform="translate(26.642 28.515)"/><path class="bangalore_a" d="M60.993,66.163c-.73,0-1.46.006-2.188,0a.8.8,0,0,1-.9-.814.81.81,0,0,1,.9-.911c1.46-.016,2.918-.013,4.378,0,.567,0,.955.273.954.87s-.373.863-.951.863Z" transform="translate(22.979 28.514)"/><path class="bangalore_a" d="M41.411,66.164c-.73,0-1.46,0-2.19,0a.864.864,0,1,1,0-1.727c1.458-.016,2.918-.014,4.378,0,.56,0,.952.262.951.868s-.375.863-.949.865C42.869,66.167,42.139,66.165,41.411,66.164Z" transform="translate(11.299 28.514)"/><path class="bangalore_a" d="M35.294,66.162c-.73,0-1.46,0-2.188,0-.579,0-.935-.281-.932-.879a.791.791,0,0,1,.871-.846q2.235-.024,4.467,0a.8.8,0,0,1,.89.833c.011.6-.344.884-.922.892C36.752,66.17,36.022,66.162,35.294,66.162Z" transform="translate(7.638 28.515)"/></g></svg>