<?xml version="1.0" encoding="utf-8"?>
<!-- Generator: Adobe Illustrator 16.0.0, SVG Export Plug-In . SVG Version: 6.00 Build 0)  -->
<!DOCTYPE svg PUBLIC "-//W3C//DTD SVG 1.1//EN" "http://www.w3.org/Graphics/SVG/1.1/DTD/svg11.dtd">
<svg version="1.1" id="Layer_1" xmlns="http://www.w3.org/2000/svg" xmlns:xlink="http://www.w3.org/1999/xlink" x="0px" y="0px"
	 width="138px" height="138px" viewBox="0 0 138 138" enable-background="new 0 0 138 138" xml:space="preserve">
<g id="Group_1388" transform="translate(-3197 -1437)">
	<g id="Rectangle_283">
		<rect x="3197" y="1437" fill="none" width="138" height="138"/>
	</g>
	<g id="Layer_2" transform="translate(3204 1443.733)">
		<g id="Layer_1_1_" transform="translate(2.643 9.902)">
			<g id="Path_4923">
				<path fill="#7D91AC" d="M57.632,112.698c-1.101,0-2.16-0.608-2.686-1.659c-0.741-1.482-0.141-3.283,1.341-4.025L96.414,86.95
					V69.282c0-1.657,1.344-3,3-3c1.657,0,3,1.343,3,3v19.522c0,1.137-0.642,2.175-1.658,2.684l-41.783,20.893
					C58.541,112.595,58.083,112.698,57.632,112.698z"/>
			</g>
			<g id="Path_4924">
				<path fill="#7D91AC" d="M57.542,112.705c-0.459,0-0.918-0.105-1.342-0.316l-41.784-20.9c-1.016-0.508-1.658-1.547-1.658-2.684
					V69.282c0-1.657,1.343-3,3-3c1.657,0,3,1.343,3,3v17.669l35.784,17.898V69.282c0-1.657,1.343-3,3-3c1.657,0,3,1.343,3,3v40.423
					c0,1.04-0.539,2.006-1.423,2.553C58.637,112.554,58.09,112.705,57.542,112.705z"/>
			</g>
			<g id="Path_4925">
				<path fill="#7D91AC" d="M15.759,35.718c-1.183,0-2.304-0.705-2.779-1.868c-0.626-1.534,0.111-3.285,1.645-3.911l41.223-16.814
					L71.087-2.121c0.854-0.854,2.134-1.114,3.254-0.657l41.873,17.048c0.932,0.379,1.609,1.199,1.81,2.184
					c0.2,0.985-0.108,2.005-0.819,2.716l-15.67,15.669c-0.853,0.852-2.133,1.112-3.252,0.657l-40.74-16.583L16.891,35.495
					C16.52,35.646,16.136,35.718,15.759,35.718z M62.859,14.599l35.842,14.589l11.065-11.065L73.923,3.53L62.859,14.599z"/>
			</g>
			<g id="Path_4926">
				<path fill="#7D91AC" d="M15.674,35.717c-0.781,0-1.548-0.305-2.122-0.878L-2.121,19.17c-0.711-0.71-1.019-1.73-0.819-2.715
					c0.199-0.985,0.878-1.806,1.809-2.185L40.741-2.779c1.118-0.455,2.399-0.196,3.253,0.657l15.669,15.674
					c0.711,0.711,1.019,1.73,0.819,2.716c-0.199,0.985-0.879,1.805-1.81,2.184L16.805,35.496
					C16.439,35.645,16.055,35.717,15.674,35.717z M5.318,18.122l11.069,11.065l35.838-14.588L41.159,3.53L5.318,18.122z"/>
			</g>
			<g id="Path_4927">
				<path fill="#7D91AC" d="M73.212,77.51c-0.922,0-1.819-0.422-2.402-1.199l-13.269-17.7L44.273,76.308
					c-0.87,1.162-2.444,1.533-3.743,0.884l-41.783-20.9c-0.795-0.396-1.373-1.128-1.578-1.993c-0.204-0.865-0.014-1.777,0.52-2.489
					l15.669-20.892c0.87-1.16,2.445-1.532,3.742-0.883l40.441,20.221l40.442-20.221c1.299-0.65,2.871-0.277,3.742,0.883
					l15.669,20.892c0.533,0.711,0.724,1.624,0.52,2.489c-0.203,0.865-0.781,1.597-1.578,1.993l-41.783,20.9
					C74.125,77.407,73.666,77.51,73.212,77.51z M62.097,54.685l12.011,16.021l36.329-18.172L98.427,36.52L62.097,54.685z
					 M4.646,52.534l36.329,18.172l12.011-16.021L16.656,36.52L4.646,52.534z"/>
			</g>
		</g>
		<g id="Layer_2-2" transform="translate(0 0.267)">
			<g id="Rectangle_279">
				<rect y="0" fill="none" width="125" height="125"/>
			</g>
		</g>
	</g>
</g>
</svg>
