<svg xmlns="http://www.w3.org/2000/svg" width="138" height="138" viewBox="0 0 138 138">
  <g id="Group_1391" data-name="Group 1391" transform="translate(-3668 -1349)">
    <rect id="Rectangle_285" data-name="Rectangle 285" width="138" height="138" transform="translate(3668 1349)" fill="none"/>
    <g id="iconfinder_4801514_calendar_calender_date_day_event_icon" transform="translate(3673.732 1356.08)">
      <path id="Path_4943" data-name="Path 4943" d="M120.348,13.035H98.262v-6.8a3.313,3.313,0,1,0-6.626,0v6.8H34.212v-6.8a3.313,3.313,0,0,0-6.626,0v6.8H5.5a3.269,3.269,0,0,0-3.225,3.49V117.37a3.269,3.269,0,0,0,3.313,3.313H120.348a3.269,3.269,0,0,0,3.313-3.313V16.525a3.269,3.269,0,0,0-3.313-3.49Zm-3.313,101.022H8.9v-94.4H27.586V26.42a3.313,3.313,0,1,0,6.626,0V19.661H91.636V26.42a3.313,3.313,0,1,0,6.626,0V19.661H116.9Z" transform="translate(0 0)" fill="#7d91ac"/>
      <path id="Path_4944" data-name="Path 4944" d="M26.272,10.58H9.133A3.357,3.357,0,0,0,5.82,13.893V31.032a3.313,3.313,0,0,0,3.313,3.313H26.272a3.313,3.313,0,0,0,3.313-3.313V13.893a3.357,3.357,0,0,0-3.313-3.313ZM22.959,27.719H12.446V17.206H22.959Z" transform="translate(12.137 26.176)" fill="#7d91ac"/>
      <path id="Path_4945" data-name="Path 4945" d="M33.762,10.58H16.623a3.357,3.357,0,0,0-3.313,3.313V31.032a3.313,3.313,0,0,0,3.313,3.313H33.762a3.313,3.313,0,0,0,3.313-3.313V13.893a3.357,3.357,0,0,0-3.313-3.313ZM30.449,27.719H19.936V17.206H30.449Z" transform="translate(37.732 26.176)" fill="#7d91ac"/>
      <path id="Path_4946" data-name="Path 4946" d="M20.8,13.893V31.032a3.313,3.313,0,0,0,3.313,3.313H41.252a3.313,3.313,0,0,0,3.313-3.313V13.893a3.357,3.357,0,0,0-3.313-3.313H24.113A3.357,3.357,0,0,0,20.8,13.893Zm6.626,3.313H37.939V27.719H27.426Z" transform="translate(63.327 26.176)" fill="#7d91ac"/>
      <path id="Path_4947" data-name="Path 4947" d="M26.272,19.2H9.133A3.357,3.357,0,0,0,5.82,22.513V39.652a3.357,3.357,0,0,0,3.313,3.313H26.272a3.357,3.357,0,0,0,3.313-3.313V22.734A3.357,3.357,0,0,0,26.272,19.2ZM22.959,36.339H12.446V25.826H22.959Z" transform="translate(12.137 55.632)" fill="#7d91ac"/>
      <path id="Path_4948" data-name="Path 4948" d="M33.762,19.2H16.623a3.357,3.357,0,0,0-3.313,3.313V39.652a3.357,3.357,0,0,0,3.313,3.313H33.762a3.357,3.357,0,0,0,3.313-3.313V22.734A3.357,3.357,0,0,0,33.762,19.2ZM30.449,36.339H19.936V25.826H30.449Z" transform="translate(37.732 55.632)" fill="#7d91ac"/>
      <path id="Path_4949" data-name="Path 4949" d="M41.252,19.2H24.113A3.357,3.357,0,0,0,20.8,22.513V39.652a3.357,3.357,0,0,0,3.313,3.313H41.252a3.357,3.357,0,0,0,3.313-3.313V22.734A3.357,3.357,0,0,0,41.252,19.2ZM37.939,36.339H27.426V25.826H37.939Z" transform="translate(63.327 55.632)" fill="#7d91ac"/>
    </g>
  </g>
</svg>
