<svg xmlns="http://www.w3.org/2000/svg" width="32.404" height="25.289" viewBox="0 0 32.404 25.289"><g transform="translate(0 -3.1)"><path d="M26.609,9.842H14.422l-.609-.609C13.1,8.319,11.984,7.1,10.664,7.1H3.758A3.816,3.816,0,0,0,0,10.858V25.483a2.906,2.906,0,0,0,2.844,2.844H26.609a2.906,2.906,0,0,0,2.844-2.844v-12.8A2.906,2.906,0,0,0,26.609,9.842Zm.812,15.64a.874.874,0,0,1-.812.812H2.844a.874.874,0,0,1-.812-.812V10.858A1.78,1.78,0,0,1,3.758,9.131h6.906c.508,0,1.219.812,1.625,1.422.609.711,1.219,1.32,1.93,1.32H26.609a.874.874,0,0,1,.812.812Z" transform="translate(0 0.062)"/><path d="M29.6,5.842H17.416l-.609-.609C16.1,4.319,14.979,3.1,13.658,3.1H6.752A3.881,3.881,0,0,0,3.5,4.928,1.028,1.028,0,0,0,3.908,6.35a.967.967,0,0,0,1.32-.3,1.888,1.888,0,0,1,1.523-.914h6.906c.508,0,1.219.812,1.625,1.422.609.711,1.219,1.32,1.93,1.32H29.6a.874.874,0,0,1,.812.812v12.8c0,.2-.1.3-.2.508a1.092,1.092,0,0,0,.2,1.422,1.444,1.444,0,0,0,.609.2.924.924,0,0,0,.812-.406,2.659,2.659,0,0,0,.508-1.727V8.686A2.753,2.753,0,0,0,29.6,5.842Z" transform="translate(0.052)"/></g></svg>