<svg xmlns="http://www.w3.org/2000/svg" width="36.598" height="36.803" viewBox="0 0 36.598 36.803"><path d="M270.3,242.2h-.077a5.75,5.75,0,0,0-4.725,8.918l-2.382,2.356a8.864,8.864,0,0,0-11.043-.007l-2.15-2.124a5.8,5.8,0,1,0-4.71,2.357h.018a5.882,5.882,0,0,0,2.954-.794l2.264,2.239a8.937,8.937,0,0,0,.1,10.8l-2.34,2.315a6.331,6.331,0,0,0-2.988-.8,5.761,5.761,0,0,0,.063,11.522h.066a5.781,5.781,0,0,0,5.7-5.758,5.7,5.7,0,0,0-1.093-3.384l2.264-2.241a8.922,8.922,0,0,0,12.548-12.433l2.4-2.4a5.849,5.849,0,0,0,3.194.94h.01a5.751,5.751,0,0,0-.073-11.5Zm-25.084,34.828h0v-.4H245.2a3.471,3.471,0,0,1-.026-6.941h.04a3.471,3.471,0,0,1,.019,6.942Zm3.428-29.09a3.424,3.424,0,0,1-3.429,3.427H245.2a3.462,3.462,0,0,1-3.456-3.427,3.411,3.411,0,0,1,3.443-3.425h.028A3.431,3.431,0,0,1,248.646,247.934Zm15.535,12.54a6.584,6.584,0,0,1-6.583,6.588h0a6.586,6.586,0,1,1,6.585-6.588Zm6.188-15.965h0a3.426,3.426,0,1,1,0,6.852h-.013a3.464,3.464,0,0,1-3.456-3.427,3.425,3.425,0,0,1,3.444-3.425Z" transform="translate(-239.453 -242.173)"/></svg>