<svg xmlns="http://www.w3.org/2000/svg" width="138" height="138" viewBox="0 0 138 138">
  <g id="Group_1390" data-name="Group 1390" transform="translate(-3382 -1372)">
    <rect id="Rectangle_284" data-name="Rectangle 284" width="138" height="138" transform="translate(3382 1372)" fill="none"/>
    <path id="iconfinder_4179697_clock_half_hour_run_time_icon" d="M114.567,406.243a3.445,3.445,0,0,1,0,6.89,58.567,58.567,0,0,1,0-117.133,3.445,3.445,0,0,1,0,6.89,51.676,51.676,0,1,0,0,103.353Zm0-51.676h27.561a3.445,3.445,0,1,1,0,6.89H111.122a3.445,3.445,0,0,1-3.445-3.445V316.671a3.445,3.445,0,0,1,6.89,0Zm13.375-49.916a3.445,3.445,0,1,1,4.219-2.436A3.444,3.444,0,0,1,127.941,304.651Zm12.463,5.163a3.445,3.445,0,1,1,4.706-1.261A3.445,3.445,0,0,1,140.4,309.813Zm10.7,8.213a3.446,3.446,0,1,1,4.873,0A3.446,3.446,0,0,1,151.107,318.026Zm8.213,10.7a3.445,3.445,0,1,1,4.706,1.261A3.443,3.443,0,0,1,159.32,328.728Zm5.162,12.463a3.444,3.444,0,1,1,4.219,2.437A3.444,3.444,0,0,1,164.483,341.191Zm1.76,13.376a3.445,3.445,0,1,1,3.445,3.445A3.444,3.444,0,0,1,166.243,354.567Zm-1.76,13.376a3.444,3.444,0,1,1,2.436,4.218A3.445,3.445,0,0,1,164.483,367.942ZM159.32,380.4a3.445,3.445,0,1,1,1.261,4.706A3.445,3.445,0,0,1,159.32,380.4Zm-8.213,10.7a3.446,3.446,0,1,1,0,4.873A3.446,3.446,0,0,1,151.107,391.107Zm-10.7,8.213a3.445,3.445,0,1,1-1.261,4.706A3.443,3.443,0,0,1,140.4,399.32Zm-12.463,5.162a3.445,3.445,0,1,1-2.436,4.219A3.444,3.444,0,0,1,127.941,404.483Z" transform="translate(3336 1086)" fill="#7d91ac"/>
  </g>
</svg>
