<svg xmlns="http://www.w3.org/2000/svg" width="27.2" height="25.2" viewBox="0 0 27.2 25.2"><defs><style>.combo_a,.combo_b{fill:none;stroke:#5838ff;stroke-width:1.2px;}.combo_a{stroke-linejoin:round;}</style></defs><g transform="translate(-2272.4 -574.4)"><g transform="translate(2273 575)"><g transform="translate(0 0)"><g transform="translate(15.121)"><path class="combo_a" d="M26.615,21.124l2.967-6.433V11" transform="translate(-26.612 -8.891)"/><path class="combo_a" d="M42,11v3.691l2.636,6.855V32.616H33.758" transform="translate(-33.758 -8.891)"/><path class="combo_b" d="M-.512.083,9.93,0" transform="translate(0.693 15)"/><g transform="translate(1.915)"><path class="combo_a" d="M31.055,7h5.273a1.055,1.055,0,0,1,0,2.109H31.055a1.055,1.055,0,0,1,0-2.109Z" transform="translate(-30 -7)"/></g></g><g transform="translate(0 2.437)"><rect class="combo_a" width="7" height="12" transform="translate(9 9.563)"/><path class="combo_a" d="M10.491,41H1V52.6h9.491" transform="translate(-1 -31.069)"/><path class="combo_a" d="M19,34.382,22.164,27l3.164,7.382" transform="translate(-9.509 -24.891)"/><path class="combo_a" d="M1.1,34.819,4.164,27h9.491" transform="translate(-1 -24.891)"/><path class="combo_a" d="M16.491,25.109V23H7v2.109" transform="translate(-3.836 -23)"/></g><path class="combo_a" d="M51,44" transform="translate(-25.511 -30.49)"/><circle class="combo_a" cx="1.5" cy="1.5" r="1.5" transform="translate(4.817 7)"/></g></g></g></svg>