<svg xmlns="http://www.w3.org/2000/svg" width="42.4" height="43.407" viewBox="0 0 42.4 43.407"><g transform="translate(-227.669 -243.168)"><path d="M258.224,262.882a11.847,11.847,0,1,0,11.845,11.847A11.86,11.86,0,0,0,258.224,262.882Zm9.653,11.847a9.654,9.654,0,1,1-9.653-9.654A9.664,9.664,0,0,1,267.877,274.729Z"/><path d="M261.878,270.423l-5.5,6.285-2.77-2.767a1.1,1.1,0,0,0-1.535,1.563l3.584,3.583a1.113,1.113,0,0,0,.774.321h.037a1.107,1.107,0,0,0,.788-.374l6.284-7.183a1.1,1.1,0,0,0-1.663-1.428Z"/><path d="M244.891,279.008H232.349a2.493,2.493,0,0,1-2.487-2.487V253.23a2.494,2.494,0,0,1,2.487-2.488h2.221v.7a2.9,2.9,0,0,0,2.888,2.887h10.75v-.2h0v.2h0a2.894,2.894,0,0,0,2.891-2.888v-.695h2.11a2.5,2.5,0,0,1,2.486,2.487v5.37a1.1,1.1,0,0,0,2.2.005v-5.375a4.693,4.693,0,0,0-4.678-4.68H251.1v-.7a1.1,1.1,0,0,0-1.1-1.1h-2.616a4.68,4.68,0,0,0-9.1,0H235.67a1.1,1.1,0,0,0-1.1,1.1v.7h-2.221a4.694,4.694,0,0,0-4.68,4.68v23.292a4.692,4.692,0,0,0,4.68,4.679H244.91a1.1,1.1,0,0,0,.991-.993,1.1,1.1,0,0,0-1.01-1.2Zm3.567-29.259a1.091,1.091,0,0,0,.453.777v.911a.7.7,0,0,1-.7.7h-10.75a.7.7,0,0,1-.7-.7V250.43a1.031,1.031,0,0,0,.079-1.48h2.4a1.1,1.1,0,0,0,1.1-1.1,2.488,2.488,0,0,1,4.974,0,1.1,1.1,0,0,0,1.1,1.1H248.7A1.088,1.088,0,0,0,248.458,249.749Z"/><path d="M252.245,259.7a1.1,1.1,0,0,0-.187-2.192h-17.9a1.185,1.185,0,0,0-.206,0,1.1,1.1,0,0,0-.6,1.943,1.081,1.081,0,0,0,.688.253c.033,0,.065,0,.1,0h17.9A1.174,1.174,0,0,0,252.245,259.7Z"/><path d="M246.871,265.074a1.1,1.1,0,0,0,.6-1.943,1.088,1.088,0,0,0-.786-.249H234.162a1.185,1.185,0,0,0-.206,0,1.1,1.1,0,0,0-.6,1.943,1.081,1.081,0,0,0,.688.253c.033,0,.065,0,.1,0h12.528A1.311,1.311,0,0,0,246.871,265.074Z"/><path d="M234.162,268.258a1.1,1.1,0,0,0-.8,1.943,1.081,1.081,0,0,0,.688.253c.033,0,.065,0,.1,0h8.948a1.008,1.008,0,0,0,.2,0,1.1,1.1,0,0,0-.188-2.192Z"/></g></svg>