<svg xmlns="http://www.w3.org/2000/svg" width="35" height="35" viewBox="0 0 35 35"><defs><style>.a{fill:none;}</style></defs><g transform="translate(-232.5 -232.89)"><rect class="a" width="16" height="20" rx="4" transform="translate(232.5 232.89)"/><path d="M244.5,252.89h-8a4,4,0,0,1-4-4v-12a4,4,0,0,1,4-4h8a4,4,0,0,1,4,4v12A4,4,0,0,1,244.5,252.89Zm-8-17.6a1.6,1.6,0,0,0-1.6,1.6v12a1.6,1.6,0,0,0,1.6,1.6h8a1.6,1.6,0,0,0,1.6-1.6v-12a1.6,1.6,0,0,0-1.6-1.6Z"/><rect class="a" width="16" height="20" rx="4" transform="translate(251.5 247.89)"/><path d="M263.5,267.89h-8a4.005,4.005,0,0,1-4-4v-12a4,4,0,0,1,4-4h8a4,4,0,0,1,4,4v12A4.005,4.005,0,0,1,263.5,267.89Zm-8-17.6a1.6,1.6,0,0,0-1.6,1.6v12a1.6,1.6,0,0,0,1.6,1.6h8a1.6,1.6,0,0,0,1.6-1.6v-12a1.6,1.6,0,0,0-1.6-1.6Z"/><rect class="a" width="16" height="12" rx="4" transform="translate(251.5 232.89)"/><path d="M263.5,244.89h-8a4,4,0,0,1-4-4v-4a4,4,0,0,1,4-4h8a4,4,0,0,1,4,4v4A4,4,0,0,1,263.5,244.89Zm-8-9.6a1.6,1.6,0,0,0-1.6,1.6v4a1.6,1.6,0,0,0,1.6,1.6h8a1.6,1.6,0,0,0,1.6-1.6v-4a1.6,1.6,0,0,0-1.6-1.6Z"/><rect class="a" width="16" height="12" rx="4" transform="translate(232.5 255.89)"/><path d="M244.5,267.89h-8a4,4,0,0,1-4-4v-4a4,4,0,0,1,4-4h8a4,4,0,0,1,4,4v4A4,4,0,0,1,244.5,267.89Zm-8-9.6a1.6,1.6,0,0,0-1.6,1.6v4a1.6,1.6,0,0,0,1.6,1.6h8a1.6,1.6,0,0,0,1.6-1.6v-4a1.6,1.6,0,0,0-1.6-1.6Z"/></g></svg>