<svg xmlns="http://www.w3.org/2000/svg" width="38.904" height="38.596" viewBox="0 0 38.904 38.596"><path d="M268.321,254.577l-14.559-3.87v-1.523h-2.641v-3.712H246.56v3.712h-2.583V250.7l-14.56,3.87,4.126,7.327-4.125,7.325,4.226,1.14v9.117a.711.711,0,0,0,.549.683c.116.039,14.611,3.9,14.847,3.9h.04l14.573-3.9a.812.812,0,0,0,.554-.692v-9.111l4.112-1.138L264.2,261.9Zm-18.692,13.989.506.9c.853,1.521,1.93,3.439,2.143,3.835l.287-.1.077.237c.509-.164,8.388-2.269,10.049-2.7V278.9l-13.062,3.442Zm13.381-5.794,3.086,5.551-13,3.442-3.086-5.552ZM243.977,258.6l-9.254,2.49-3.139-5.552,12.393-3.28Zm3.813,7.674-3.086,5.552-13.119-3.5,3.139-5.552Zm.32,2.308v13.761L235.048,278.9v-8.136c7.513,1.995,9.43,2.517,9.912,2.647a1.087,1.087,0,0,0,.235.046l.176,0,.055-.1a.362.362,0,0,0,.044-.076l.007-.014c1.059-1.892,1.767-3.151,2.244-4Zm4.19-7.133v.722a20.294,20.294,0,0,1-6.862,0v-.722A20.372,20.372,0,0,0,252.3,261.45Zm-6.862-1.484v-9.305H252.3v9.305A20.32,20.32,0,0,1,245.438,259.966Zm2.948,3.915,0,0h.485c4.311,0,4.892-.707,4.892-1.4V260.15l6.74,1.806-11.63,3.058L237.23,261.9l6.748-1.81v2.336C243.978,263.155,244.526,263.829,248.386,263.881Zm17.771-8.342-3.087,5.55-9.309-2.489v-6.342Zm-16.529-7.663v-.928h.089v2.236h-1.639v-2.236h.089v.928Z" transform="translate(-229.417 -245.472)"/></svg>