<svg xmlns="http://www.w3.org/2000/svg" xmlns:xlink="http://www.w3.org/1999/xlink" width="104" height="104" viewBox="0 0 104 104"><defs><style>.delhi_a{fill:#6f57e9;}.delhi_b{clip-path:url(#delhi_a);}</style><clipPath id="delhi_a"><rect class="delhi_a" width="104" height="104"/></clipPath></defs><g class="delhi_b"><g transform="translate(0 6.5)"><path class="delhi_a" d="M87.75,91.75V36.5H91V33.25H84.5V23.5H78v-13H68.25V4H35.75v6.5H26v13H19.5v9.75H13V36.5h3.25V91.75H0V95H104V91.75ZM68.25,56H84.5v6.5H68.25Zm0,9.75H84.5V82H68.25ZM39,7.25H65V10.5H39Zm-9.75,6.5h45.5V23.5H29.25Zm-6.5,13h58.5v6.5H22.75ZM84.5,36.5V52.75H68.25v-13H35.75v13H19.5V36.5ZM35.75,82H19.5V65.75H35.75ZM19.5,56H35.75v6.5H19.5Zm0,29.25H35.75v6.5H19.5Zm26,6.5V56a6.5,6.5,0,1,1,13,0V91.75Zm16.25,0V56a9.75,9.75,0,1,0-19.5,0V91.75H39V43H65V91.75Zm6.5-6.5H84.5v6.5H68.25Z" transform="translate(0 -4)"/><path class="delhi_a" d="M17.625,31.25A1.625,1.625,0,1,0,16,29.625a1.626,1.626,0,0,0,1.625,1.625" transform="translate(10 11)"/><path class="delhi_a" d="M25.625,12a1.625,1.625,0,1,0,1.625,1.625A1.626,1.626,0,0,0,25.625,12" transform="translate(15 1)"/><path class="delhi_a" d="M39.625,12a1.625,1.625,0,1,0,1.625,1.625A1.626,1.626,0,0,0,39.625,12" transform="translate(23.75 1)"/><path class="delhi_a" d="M47.625,31.25A1.625,1.625,0,1,0,46,29.625a1.626,1.626,0,0,0,1.625,1.625" transform="translate(28.75 11)"/><rect class="delhi_a" width="6.5" height="3.25" transform="translate(39 48.75)"/><rect class="delhi_a" width="6.5" height="3.25" transform="translate(58.5 48.75)"/><rect class="delhi_a" width="13" height="3.25" transform="translate(45.5 13)"/></g></g></svg>