<svg xmlns="http://www.w3.org/2000/svg" width="40.398" height="41.396" viewBox="0 0 40.398 41.396"><g transform="translate(-228.67 -244.072)"><path d="M269.068,252.308a8.231,8.231,0,0,0-16.347-1.372H231.875a.561.561,0,0,0-.1,0,3.262,3.262,0,0,0-3.1,3.271v27.985a3.28,3.28,0,0,0,3.268,3.276h21.7a.94.94,0,0,0,.662-.274l9.1-9.123a.938.938,0,0,0,.275-.663v-15.38A8.243,8.243,0,0,0,269.068,252.308Zm-14.735,0a6.5,6.5,0,1,1,6.5,6.5A6.508,6.508,0,0,1,254.333,252.3Zm7.462,8.179v13.991h-6.451a2.659,2.659,0,0,0-2.646,2.652v6.47H231.936a1.4,1.4,0,0,1-1.4-1.4V254.211a1.391,1.391,0,0,1,1.4-1.4h20.686a8.187,8.187,0,0,0,9.173,7.671Zm-7.225,16.638a.778.778,0,0,1,.775-.775h5.128l-5.9,5.92Z"/><path d="M260.934,256.155l.074-.012.279-.139a.659.659,0,0,0,.056-.05l2.1-2.1a.723.723,0,0,0-1.028-1.016l-.858.86v-4.536a.718.718,0,0,0-.692-.69.739.739,0,0,0-.519.188.725.725,0,0,0-.235.511v4.53l-.864-.866a.724.724,0,0,0-1.017,1.029l2.091,2.089a.521.521,0,0,0,.05.045l.172.105.217.048a.545.545,0,0,0,.083,0Zm.1-.23Z"/><path d="M243.747,275.978h-9.9a.939.939,0,1,0,0,1.877h9.9a.939.939,0,0,0,0-1.877Z"/><path d="M258.581,271.373H233.847a.939.939,0,0,0,0,1.878h24.734a.939.939,0,1,0,0-1.878Z"/><path d="M258.581,266.62H233.847a.939.939,0,1,0,0,1.877h24.734a.939.939,0,1,0,0-1.877Z"/><path d="M232.908,262.8a.94.94,0,0,0,.939.939h24.734a.938.938,0,1,0,0-1.877H233.847A.939.939,0,0,0,232.908,262.8Z"/></g></svg>