<svg xmlns="http://www.w3.org/2000/svg" width="40" height="41" viewBox="0 0 40 41"><g transform="translate(-182 -2562)"><g transform="translate(182.5 2566.028)"><path d="M27.951,7.549a.963.963,0,0,0,1.358,0l3.2-3.2a.96.96,0,0,0-1.358-1.358L29.59,4.552v-7.62a.961.961,0,0,0-.96-.96.961.961,0,0,0-.96.96v7.62L26.056,2.938A.96.96,0,1,0,24.7,4.3Z" transform="translate(-9.13)"/><path d="M39.5,24.547a.945.945,0,0,0-.646-.876L19.745,18.532a.952.952,0,0,0-.491,0L.207,23.653A.947.947,0,0,0-.5,24.58v14.5A.962.962,0,0,0,.207,40l19.048,5.12a.976.976,0,0,0,.491,0L38.793,40a.962.962,0,0,0,.707-.929ZM18.548,30.437V42.946L1.4,38.338V25.83Zm16.3-5.857L19.5,28.706,4.148,24.58,19.5,20.454ZM37.6,25.83V38.338L20.452,42.946V30.437Zm1.1-1.872Z" transform="translate(0 -8.183)"/></g></g></svg>