<svg xmlns="http://www.w3.org/2000/svg" width="104" height="104" viewBox="0 0 104 104"><defs><style>.gurgaon_a{fill:none;}.gurgaon_b{fill:#6f57e9;stroke:#6f57e9;stroke-width:2px;}</style></defs><g transform="translate(-2130 -635)"><rect class="gurgaon_a" width="104" height="104" transform="translate(2130 635)"/><g transform="translate(1429.152 -678.587)"><g transform="translate(734.471 1332.07)"><path class="gurgaon_b" d="M810.64,1439.314H776.391v-61.23l34.249-18.606Zm-33.1-1.148h31.954v-76.759l-31.954,17.36Z" transform="translate(-776.391 -1359.478)"/></g><g transform="translate(734.741 1385.972)"><path class="gurgaon_b" d="M777.817,1544.614l-.606-.975,31.4-19.544H777.514v-1.147h33.1a.574.574,0,0,1,.3,1.061Z" transform="translate(-777.211 -1522.948)"/></g><g transform="translate(735.044 1377.701)"><rect class="gurgaon_b" width="33.101" height="1.147" transform="translate(0 0)"/></g><g transform="translate(735.044 1369.43)"><rect class="gurgaon_b" width="33.101" height="1.147" transform="translate(0 0)"/></g><g transform="translate(735.044 1361.158)"><rect class="gurgaon_b" width="33.101" height="1.147" transform="translate(0 0)"/></g><g transform="translate(735.044 1352.887)"><rect class="gurgaon_b" width="33.101" height="1.147" transform="translate(0 0)"/></g><g transform="translate(745.765 1344.615)"><rect class="gurgaon_b" width="22.381" height="1.147" transform="translate(0 0)"/></g><g transform="translate(761.006 1336.344)"><rect class="gurgaon_b" width="7.14" height="1.147" transform="translate(0 0)"/></g><g transform="translate(734.771 1326.701)"><rect class="gurgaon_b" width="37.671" height="1.148" transform="matrix(0.879, -0.477, 0.477, 0.879, 0, 17.985)"/></g><g transform="translate(761.432 1330.542)"><rect class="gurgaon_b" width="1.147" height="5.829" transform="translate(0 0)"/></g><g transform="translate(749.866 1336.827)"><rect class="gurgaon_b" width="1.147" height="5.828" transform="translate(0 0)"/></g><g transform="translate(744.082 1339.969)"><rect class="gurgaon_b" width="1.147" height="5.829" transform="translate(0 0)"/></g><g transform="translate(738.299 1343.111)"><rect class="gurgaon_b" width="1.147" height="5.829" transform="translate(0 0)"/></g><g transform="translate(755.649 1318.587)"><rect class="gurgaon_b" width="1.147" height="20.93" transform="translate(0 0)"/></g><g transform="translate(768.146 1410.759)"><rect class="gurgaon_b" width="16" height="1.147" transform="translate(0 0)"/></g><g transform="translate(713.848 1410.759)"><rect class="gurgaon_b" width="11.2" height="1.147" transform="translate(8 0)"/></g><g transform="translate(776.219 1402.49)"><rect class="gurgaon_b" width="1.147" height="8.843" transform="translate(0 0)"/></g><g transform="translate(774.211 1392.307)"><path class="gurgaon_b" d="M899.494,1552.915c-1.677,0-2.582-2.771-2.582-5.378s.9-5.378,2.582-5.378c1.695,0,2.582,2.706,2.582,5.378C902.075,1550.144,901.17,1552.915,899.494,1552.915Zm0-9.609c-.571,0-1.434,1.687-1.434,4.231s.864,4.231,1.434,4.231,1.434-1.687,1.434-4.231S900.064,1543.306,899.494,1543.306Z" transform="translate(-896.912 -1542.158)"/></g></g></g></svg>