<svg xmlns="http://www.w3.org/2000/svg" width="104" height="104" viewBox="0 0 104 104"><defs><style>.guwahati_a,.guwahati_b,.guwahati_c{fill:none;}.guwahati_b,.guwahati_c{stroke:#6f57e9;stroke-width:2px;}.guwahati_b{stroke-miterlimit:10;}</style></defs><g transform="translate(-1094 -1115)"><rect class="guwahati_a" width="104" height="104" transform="translate(1094 1115)"/><g transform="translate(-2973.5 -729)"><rect class="guwahati_b" width="39.452" height="16.72" transform="translate(4098.896 1857.326)"/><rect class="guwahati_b" width="12.946" height="15.723" transform="translate(4112.149 1858.323)"/><rect class="guwahati_b" width="45.476" height="28.157" transform="translate(4095.885 1878.372)"/><g transform="translate(4101.353 1878.372)"><rect class="guwahati_b" width="5.242" height="3.103"/><line class="guwahati_c" y2="25.148" transform="translate(2.621 3.009)"/></g><g transform="translate(4102.353 1858.372)"><rect class="guwahati_b" width="5.242" height="3.103"/><line class="guwahati_c" y2="12.005" transform="translate(2.621 3.009)"/></g><g transform="translate(4129.353 1858.372)"><rect class="guwahati_b" width="5.242" height="3.103"/><line class="guwahati_c" y2="12.005" transform="translate(2.621 3.009)"/></g><g transform="translate(4110.325 1878.372)"><rect class="guwahati_b" width="5.242" height="3.103"/><line class="guwahati_c" y2="25.148" transform="translate(2.621 3.009)"/></g><g transform="translate(4120.325 1878.372)"><rect class="guwahati_b" width="5.242" height="3.103"/><line class="guwahati_c" y2="25.148" transform="translate(2.621 3.009)"/></g><g transform="translate(4130.184 1878.372)"><rect class="guwahati_b" width="5.242" height="3.103"/><line class="guwahati_c" y2="25.148" transform="translate(2.621 3.009)"/></g><g transform="translate(4122.677 1913.491)"><rect class="guwahati_b" width="5.242" height="3.103"/><line class="guwahati_c" y2="22" transform="translate(2.621 3.009)"/></g><g transform="translate(4110.007 1913.491)"><rect class="guwahati_b" width="5.242" height="3.103"/><line class="guwahati_c" y2="22" transform="translate(2.621 3.009)"/></g><g transform="translate(4098.056 1913.491)"><rect class="guwahati_b" width="5.242" height="3.103"/><line class="guwahati_c" y2="22" transform="translate(2.621 3.009)"/></g><g transform="translate(4133.912 1913.491)"><rect class="guwahati_b" width="5.242" height="3.103"/><line class="guwahati_c" y2="22" transform="translate(2.621 3.009)"/></g><rect class="guwahati_b" width="16.422" height="26.16" transform="translate(4144.877 1912.885)"/><path class="guwahati_b" guwahati_d="M-496.537,1183.372a3.678,3.678,0,0,0-3.914,3.381v14.432h7.829v-14.432A3.677,3.677,0,0,0-496.537,1183.372Z" transform="translate(4649.625 737.859)"/><rect class="guwahati_b" width="16.422" height="26.16" transform="translate(4075.945 1912.885)"/><path class="guwahati_b" guwahati_d="M-1020.136,1183.372a3.677,3.677,0,0,0-3.914,3.381v14.432h7.829v-14.432A3.678,3.678,0,0,0-1020.136,1183.372Z" transform="translate(5104.292 737.859)"/><rect class="guwahati_b" width="85.355" height="6.356" transform="translate(4075.945 1906.529)"/><rect class="guwahati_b" width="47.979" height="4.326" transform="translate(4094.632 1874.046)"/><g transform="translate(4098.064 1852)"><rect class="guwahati_b" width="40.896" height="5.326" transform="translate(0.407)"/></g><path class="guwahati_b" guwahati_d="M-752.671,738.476c-1.687,0-3.056,1.018-3.056,2.275v9.708h6.111v-9.708C-749.616,739.494-750.984,738.476-752.671,738.476Z" transform="translate(4871.293 1123.587)"/><line class="guwahati_c" x2="98.824" transform="translate(4070.5 1939.045)"/></g></g></svg>