<svg xmlns="http://www.w3.org/2000/svg" width="43.085" height="47.5" viewBox="0 0 43.085 47.5"><path d="M269.845,249.927,249.238,241.1a.926.926,0,0,0-.737,0L227.9,249.927a.936.936,0,0,0-.568.859v36.8a.938.938,0,0,0,.937.937h41.212a.937.937,0,0,0,.936-.937v-36.8A.938.938,0,0,0,269.845,249.927ZM249.4,278.217v8.431h-1.071v-8.431Zm-7.7,0h1.071v2.543H241.71Zm18.931-1.873h-5.679v-9.366a.937.937,0,0,0-.936-.937h-10.3a.938.938,0,0,0-.937.937v9.366H237.1a.938.938,0,0,0-.937.937v9.367h-1.071V259.611h27.565v27.037h-1.081v-9.367A.937.937,0,0,0,260.636,276.344Zm-22.608,1.873h1.807v3.48a.937.937,0,0,0,.936.936h2.944a.938.938,0,0,0,.937-.936v-3.48h1.807v8.431h-8.431Zm10.3-7.761v-2.54H249.4v2.54Zm-3.679-2.54h1.807V271.4a.94.94,0,0,0,.736.909v.025h3.144a.937.937,0,0,0,.936-.935v-3.481h1.808v8.431h-8.431Zm6.617,10.3h1.808v3.48a.937.937,0,0,0,.937.936h2.944a.937.937,0,0,0,.936-.936v-3.48H259.7v8.431h-8.432Zm3.686,2.543v-2.543h1.07v2.543Zm9.9-25.357v2.336H232.88V255.4Zm-.333,4.208H265.8a.939.939,0,0,0,.926-.937v-4.208a.937.937,0,0,0-.936-.935H231.943a.937.937,0,0,0-.936.935v4.208a.937.937,0,0,0,.936.937h1.272v27.037H229.2V251.4l19.67-8.431,19.669,8.43v35.244h-4.012Z" transform="translate(-227.327 -241.02)"/></svg>