<svg xmlns="http://www.w3.org/2000/svg" width="104" height="104" viewBox="0 0 104 104"><defs><style>.jaipur_a{fill:none;}.jaipur_b{fill:#6f57e9;}</style></defs><g transform="translate(-1612 -1115)"><rect class="jaipur_a" width="104" height="104" transform="translate(1612 1115)"/><g transform="translate(1122.684 443.015)"><path class="jaipur_b" d="M586.371,758.069h-1.609V755.1a.951.951,0,0,0-.945-.958h-1.965V715.32a4.115,4.115,0,0,0-4.111-4.212h-.088a3.885,3.885,0,0,0-2.268.681V708.55a.974.974,0,0,0-.086-.4,5.764,5.764,0,0,0-3.836-3.07v-2.448a.945.945,0,1,0-1.889,0v2.459a5.031,5.031,0,0,0-2.032.932v-2.368a.952.952,0,0,0-.945-.958h-4.123v-4.471a.963.963,0,0,0-.128-.482,6.683,6.683,0,0,0-4.434-2.992v-2.6a.945.945,0,1,0-1.889,0v2.588a6.234,6.234,0,0,0-4.124,2.527h-4.022v-2.075a.963.963,0,0,0-.128-.482,6.983,6.983,0,0,0-4.6-3.124v-2.642a.945.945,0,1,0-1.889,0v2.614a6.629,6.629,0,0,0-4.774,3.18.966.966,0,0,0-.112.453v2.075H532.46a6.549,6.549,0,0,0-4.106-2.516v-2.6a.945.945,0,1,0-1.889,0v2.588a6.35,6.35,0,0,0-4.449,3.032.966.966,0,0,0-.112.453V702.7h-4.123a.952.952,0,0,0-.945.958v2.368a5.029,5.029,0,0,0-2.032-.932v-2.459a.945.945,0,1,0-1.889,0v2.448a5.764,5.764,0,0,0-3.835,3.07.975.975,0,0,0-.086.4V711.8a4.044,4.044,0,0,0-2.354-.689,4.119,4.119,0,0,0-4.112,4.228v38.8H500.56a.951.951,0,0,0-.945.958v2.972h-3.355a.958.958,0,0,0,0,1.916h90.111a.958.958,0,0,0,0-1.916Zm-10.984-3.929V744.127h4.577V754.14Zm-7.843,0V749.7a3.711,3.711,0,0,1,3.026-1.916,3.5,3.5,0,0,1,2.928,1.9v4.455Zm-5.068,0v-4.616a.942.942,0,0,0,0-.243v-5.154h3.179V754.14Zm-9.123,0v-4.39a4.285,4.285,0,0,1,3.579-1.966,4.541,4.541,0,0,1,3.656,1.927v4.43Zm-5.474,0V744.127h3.585V754.14Zm-9.611,0v-4.105c.041-.05.1-.078.131-.138a4.328,4.328,0,0,1,3.672-2.114,4.614,4.614,0,0,1,3.8,2.142.914.914,0,0,0,.117.134v4.081Zm-5.352,0V744.127h3.463V754.14Zm-9.123,0v-4.42a4.274,4.274,0,0,1,3.56-1.937,4.548,4.548,0,0,1,3.674,1.954v4.4Zm-5.068,0V744.127H521.9V754.14Zm-7.843,0v-4.455a3.5,3.5,0,0,1,2.928-1.9,3.709,3.709,0,0,1,3.026,1.917v4.439Zm0-23.414a3.5,3.5,0,0,1,2.928-1.9,3.712,3.712,0,0,1,3.026,1.914v7.495H510.88Zm5.954-2.769a4.915,4.915,0,0,0-3.026-1.046,4.786,4.786,0,0,0-2.928.986v-5.922a.928.928,0,0,0,0-.2V720.21a3.5,3.5,0,0,1,2.928-1.9,3.709,3.709,0,0,1,3.026,1.916Zm-7.843-5.8v8.292s0,0,0,.006v7.781h-4.577V722.169a2.717,2.717,0,0,1,2.257-1.349A2.884,2.884,0,0,1,508.991,722.156Zm-4.577,17.995h4.577v2.061h-4.577Zm6.466,0h5.954v2.061H510.88Zm12.911-20.646a4.277,4.277,0,0,1,3.56-1.935,4.548,4.548,0,0,1,3.674,1.951v8.3a6.067,6.067,0,0,0-3.674-1.225,5.863,5.863,0,0,0-3.56,1.173Zm7.234-2.626a6.065,6.065,0,0,0-3.674-1.226,5.861,5.861,0,0,0-3.56,1.173v-7.186a4.277,4.277,0,0,1,3.56-1.935,4.549,4.549,0,0,1,3.674,1.952Zm-7.234,13.565a4.278,4.278,0,0,1,3.56-1.935,4.549,4.549,0,0,1,3.674,1.952v7.775h-7.234Zm7.234,9.708v2.061h-7.234v-2.061Zm7.242-22.558a4.554,4.554,0,0,1,3.8-2.075,4.847,4.847,0,0,1,3.922,2.091v8.853a6.359,6.359,0,0,0-3.922-1.339,6.128,6.128,0,0,0-3.8,1.286Zm7.722-2.653a6.357,6.357,0,0,0-3.922-1.34,6.127,6.127,0,0,0-3.8,1.286V707.2a4.553,4.553,0,0,1,3.8-2.075,4.847,4.847,0,0,1,3.922,2.091Zm-7.722,14.173a4.56,4.56,0,0,1,3.8-2.075,4.847,4.847,0,0,1,3.922,2.091v9.106h-7.722Zm7.722,11.038v2.061h-7.722v-2.061Zm7.363-20.645a4.271,4.271,0,0,1,3.559-1.936,4.552,4.552,0,0,1,3.675,1.952v8.3a6.071,6.071,0,0,0-3.675-1.225,5.863,5.863,0,0,0-3.559,1.172Zm7.234-2.627a6.069,6.069,0,0,0-3.675-1.226,5.86,5.86,0,0,0-3.559,1.172v-7.184a4.271,4.271,0,0,1,3.559-1.936,4.552,4.552,0,0,1,3.675,1.952Zm-7.234,13.565a4.271,4.271,0,0,1,3.559-1.936,4.552,4.552,0,0,1,3.675,1.952v7.775h-7.234Zm7.234,9.706v2.061h-7.234v-2.061Zm19.378,2.061h-4.577v-2.061h4.577Zm0-3.976h-4.577v-16.1a2.7,2.7,0,0,1,2.239-1.32,2.894,2.894,0,0,1,2.338,1.364ZM573.5,721.788a.928.928,0,0,0,0,.194V727.9a4.786,4.786,0,0,0-2.928-.986,4.916,4.916,0,0,0-3.026,1.046v-7.732a3.71,3.71,0,0,1,3.026-1.915,3.5,3.5,0,0,1,2.928,1.9Zm-5.954,8.954a3.716,3.716,0,0,1,3.026-1.915,3.5,3.5,0,0,1,2.928,1.9v7.509h-5.954Zm5.954,9.409v2.061h-5.954v-2.061Zm0,6.7a4.785,4.785,0,0,0-2.928-.987,4.915,4.915,0,0,0-3.026,1.046v-2.787H573.5Zm-7.843-4.643h-3.179v-2.061h3.179Zm-5.068,4.868a6.067,6.067,0,0,0-3.656-1.211,5.858,5.858,0,0,0-3.579,1.188v-2.929h7.234Zm-9.123-4.868h-3.585v-2.061h3.585Zm-5.474,5.06a6.126,6.126,0,0,0-3.919-1.4,5.889,5.889,0,0,0-3.8,1.358v-3.1h7.722Zm-9.611-5.06h-3.463v-2.061h3.463Zm-5.353,4.881a6.066,6.066,0,0,0-3.674-1.225,5.861,5.861,0,0,0-3.56,1.173v-2.914h7.234Zm-9.123-4.881h-3.179v-2.061H521.9Zm-5.068,1.916v2.787a4.915,4.915,0,0,0-3.026-1.046,4.785,4.785,0,0,0-2.928.987v-2.727Zm60.828-31.1h.049a2.239,2.239,0,0,1,2.252,2.311v4.257a4.3,4.3,0,0,0-2.338-.691,4.165,4.165,0,0,0-2.239.646v-4.256A2.361,2.361,0,0,1,577.663,713.025Zm-7.093-6.133a3.518,3.518,0,0,1,2.928,1.894v6.43c0,.042-.015.091-.017.13a.909.909,0,0,0,.017.125v1.907a4.784,4.784,0,0,0-2.928-.987,4.915,4.915,0,0,0-3.026,1.046V708.8A3.73,3.73,0,0,1,570.57,706.892Zm-4.916-2.28v33.623h-3.179V704.612Zm-8.743-8.047a4.577,4.577,0,0,1,3.675,1.947v8.5a6.069,6.069,0,0,0-3.675-1.226,5.861,5.861,0,0,0-3.559,1.172V698.5A4.3,4.3,0,0,1,556.911,696.566Zm-5.448,2.617v39.053h-3.585V699.182Zm-13.2-3.721a4.59,4.59,0,0,1,3.8-2.068,4.875,4.875,0,0,1,3.922,2.086v9.07a6.357,6.357,0,0,0-3.922-1.34,6.127,6.127,0,0,0-3.8,1.286Zm-1.889,42.774h-3.463V699.182h3.463ZM523.792,698.5a4.3,4.3,0,0,1,3.56-1.93,4.575,4.575,0,0,1,3.674,1.947v8.5a6.065,6.065,0,0,0-3.674-1.226,5.861,5.861,0,0,0-3.56,1.173Zm-5.068,6.116H521.9v33.623h-3.179V704.612Zm-4.916,2.28a3.729,3.729,0,0,1,3.026,1.91v8.637a4.915,4.915,0,0,0-3.026-1.046,4.784,4.784,0,0,0-2.928.987v-1.907a.9.9,0,0,0,.017-.125c0-.04-.013-.09-.017-.133v-6.427A3.524,3.524,0,0,1,513.808,706.892Zm-7.14,6.133h.049a2.361,2.361,0,0,1,2.274,2.264v4.294a4.289,4.289,0,0,0-2.32-.681,4.169,4.169,0,0,0-2.257.657v-4.206A2.251,2.251,0,0,1,506.668,713.026Zm-2.254,31.1h4.577v5.28s0,0,0,.006v4.727h-4.577ZM501.5,758.069v-2.014h81.369v2.014Z" transform="translate(0 0)"/><path class="jaipur_b" d="M859.827,1260.606a.955.955,0,0,0-.954.954v3.063a.954.954,0,0,0,1.909,0v-3.063A.955.955,0,0,0,859.827,1260.606Z" transform="translate(-345.945 -529.18)"/><path class="jaipur_b" d="M764.067,1271.466a.955.955,0,0,0-.954.954v2.243a.954.954,0,1,0,1.909,0v-2.243A.955.955,0,0,0,764.067,1271.466Z" transform="translate(-257.238 -539.218)"/><path class="jaipur_b" d="M764.067,1168.033a.955.955,0,0,0-.954.955v2.242a.954.954,0,1,0,1.909,0v-2.242A.955.955,0,0,0,764.067,1168.033Z" transform="translate(-257.238 -443.632)"/><path class="jaipur_b" d="M1712.585,1271.466a.955.955,0,0,0-.954.954v2.243a.954.954,0,1,0,1.909,0v-2.243A.955.955,0,0,0,1712.585,1271.466Z" transform="translate(-1135.018 -539.218)"/><path class="jaipur_b" d="M1712.585,1168.033a.955.955,0,0,0-.954.955v2.242a.954.954,0,1,0,1.909,0v-2.242A.955.955,0,0,0,1712.585,1168.033Z" transform="translate(-1135.018 -443.632)"/><path class="jaipur_b" d="M860.538,1510.621a1,1,0,0,0-1.354,0,1.4,1.4,0,0,0-.207.319,1.082,1.082,0,0,0,0,.732,1.046,1.046,0,0,0,.207.3.958.958,0,0,0,.684.286.9.9,0,0,0,.67-.286.813.813,0,0,0,.207-.3,1.084,1.084,0,0,0,0-.732A1.022,1.022,0,0,0,860.538,1510.621Z" transform="translate(-345.983 -759.968)"/><path class="jaipur_b" d="M1040.317,1510.621a.929.929,0,0,0-.287.686.98.98,0,0,0,.956.954.955.955,0,0,0,.365-.079.8.8,0,0,0,.3-.207.893.893,0,0,0,.286-.668.976.976,0,0,0-.271-.686A1,1,0,0,0,1040.317,1510.621Z" transform="translate(-513.553 -759.968)"/><path class="jaipur_b" d="M1237.041,1510.621a1.021,1.021,0,0,0-.286.686.954.954,0,0,0,.286.668.9.9,0,0,0,.668.286.956.956,0,0,0,.684-.286.991.991,0,0,0,.207-.3.929.929,0,0,0,.064-.365.947.947,0,0,0-1.623-.686Z" transform="translate(-695.566 -759.968)"/><path class="jaipur_b" d="M1435.828,1510.621a.983.983,0,0,0-.271.686.946.946,0,0,0,.271.668.959.959,0,0,0,.685.286,1.037,1.037,0,0,0,.365-.079.954.954,0,0,0,.3-.207.812.812,0,0,0,.207-.3.956.956,0,0,0,.064-.365.983.983,0,0,0-.271-.686A1,1,0,0,0,1435.828,1510.621Z" transform="translate(-879.5 -759.968)"/><path class="jaipur_b" d="M1041.025,1260.606a.955.955,0,0,0-.954.954v3.063a.954.954,0,0,0,1.909,0v-3.063A.955.955,0,0,0,1041.025,1260.606Z" transform="translate(-513.592 -529.18)"/><path class="jaipur_b" d="M1238.593,1260.606a.955.955,0,0,0-.954.954v3.063a.954.954,0,0,0,1.909,0v-3.063A.955.955,0,0,0,1238.593,1260.606Z" transform="translate(-696.384 -529.18)"/><path class="jaipur_b" d="M1436.182,1260.606a.955.955,0,0,0-.954.954v3.063a.954.954,0,0,0,1.909,0v-3.063A.955.955,0,0,0,1436.182,1260.606Z" transform="translate(-879.196 -529.18)"/><path class="jaipur_b" d="M859.827,1122.189a.955.955,0,0,0-.954.955v3.064a.954.954,0,1,0,1.909,0v-3.064A.955.955,0,0,0,859.827,1122.189Z" transform="translate(-345.945 -401.264)"/><path class="jaipur_b" d="M1041.98,1113.159v-3.064a.954.954,0,1,0-1.909,0v3.064a.954.954,0,1,0,1.909,0Z" transform="translate(-513.592 -389.205)"/><path class="jaipur_b" d="M1239.548,1094.523v-3.063a.954.954,0,1,0-1.909,0v3.063a.954.954,0,1,0,1.909,0Z" transform="translate(-696.384 -371.983)"/><path class="jaipur_b" d="M1437.137,1113.159v-3.064a.954.954,0,1,0-1.909,0v3.064a.954.954,0,1,0,1.909,0Z" transform="translate(-879.196 -389.205)"/><path class="jaipur_b" d="M859.827,974.318a.955.955,0,0,0,.954-.955V970.3a.954.954,0,1,0-1.909,0v3.063A.955.955,0,0,0,859.827,974.318Z" transform="translate(-345.945 -260.014)"/><path class="jaipur_b" d="M1041.025,971.2a.955.955,0,0,0-.954.955v3.063a.954.954,0,1,0,1.909,0V972.16A.955.955,0,0,0,1041.025,971.2Z" transform="translate(-513.592 -261.734)"/><path class="jaipur_b" d="M1238.593,942.319a.955.955,0,0,0-.954.955v3.063a.954.954,0,1,0,1.909,0v-3.063A.955.955,0,0,0,1238.593,942.319Z" transform="translate(-696.384 -235.039)"/><path class="jaipur_b" d="M1436.182,971.2a.955.955,0,0,0-.954.955v3.063a.954.954,0,1,0,1.909,0V972.16A.955.955,0,0,0,1436.182,971.2Z" transform="translate(-879.196 -261.734)"/><path class="jaipur_b" d="M1041.025,840.107a.955.955,0,0,0,.954-.955v-3.064a.954.954,0,1,0-1.909,0v3.064A.955.955,0,0,0,1041.025,840.107Z" transform="translate(-513.592 -135.985)"/><path class="jaipur_b" d="M1238.593,800.031a.955.955,0,0,0,.954-.955v-3.063a.954.954,0,1,0-1.909,0v3.063A.955.955,0,0,0,1238.593,800.031Z" transform="translate(-696.384 -98.981)"/><path class="jaipur_b" d="M1436.182,840.107a.955.955,0,0,0,.954-.955v-3.064a.954.954,0,1,0-1.909,0v3.064A.955.955,0,0,0,1436.182,840.107Z" transform="translate(-879.196 -135.985)"/><path class="jaipur_b" d="M1616.824,1260.606a.955.955,0,0,0-.954.954v3.063a.954.954,0,0,0,1.909,0v-3.063A.955.955,0,0,0,1616.824,1260.606Z" transform="translate(-1046.494 -529.18)"/><path class="jaipur_b" d="M1616.437,1510.277a1.038,1.038,0,0,0-.3.207.953.953,0,0,0-.286.686.892.892,0,0,0,.286.668.8.8,0,0,0,.3.207.969.969,0,0,0,.367.079.957.957,0,0,0,.668-.286.892.892,0,0,0,.286-.668.953.953,0,0,0-.286-.686A.985.985,0,0,0,1616.437,1510.277Z" transform="translate(-1046.474 -759.831)"/><path class="jaipur_b" d="M1616.824,1122.189a.955.955,0,0,0-.954.955v3.064a.954.954,0,1,0,1.909,0v-3.064A.955.955,0,0,0,1616.824,1122.189Z" transform="translate(-1046.494 -401.264)"/><path class="jaipur_b" d="M1616.824,974.318a.955.955,0,0,0,.954-.955V970.3a.954.954,0,1,0-1.909,0v3.063A.955.955,0,0,0,1616.824,974.318Z" transform="translate(-1046.494 -260.014)"/></g></g></svg>