<svg xmlns="http://www.w3.org/2000/svg" width="77.4" height="65.4" viewBox="0 0 77.4 65.4"><defs><style>.kit_a{fill:#6f57e9;stroke:#6f57e9;stroke-width:1.4px;}</style></defs><g transform="translate(-52.3 -59.421)"><g transform="translate(53 60.121)"><path class="kit_a" d="M123.359,73.03H105.521V65.743a5.667,5.667,0,0,0-5.7-5.622h-19.3a5.667,5.667,0,0,0-5.7,5.622V73.03H58.641A5.61,5.61,0,0,0,53,78.6V86.39a2.517,2.517,0,0,0,2.531,2.5h.376v29.667a5.61,5.61,0,0,0,5.641,5.566h58.9a5.61,5.61,0,0,0,5.641-5.566V88.888h.376A2.517,2.517,0,0,0,129,86.39V78.6A5.61,5.61,0,0,0,123.359,73.03ZM77.307,65.743a3.2,3.2,0,0,1,3.215-3.172h19.3a3.2,3.2,0,0,1,3.215,3.172V73.03c-.381.291-25.533.023-25.731,0Zm46.3,52.812h0a3.14,3.14,0,0,1-3.158,3.115h-58.9a3.14,3.14,0,0,1-3.158-3.115V88.888H68.559v4.9a3.043,3.043,0,0,0,3.06,3.019h5.362a3.043,3.043,0,0,0,3.06-3.019v-4.9h21.92v4.9a3.043,3.043,0,0,0,3.06,3.019h5.362a3.043,3.043,0,0,0,3.06-3.019v-4.9h10.168v29.667ZM71.042,93.792V84.068a.573.573,0,0,1,.576-.568H76.98a.573.573,0,0,1,.576.568v9.724a.573.573,0,0,1-.576.568H71.618A.573.573,0,0,1,71.042,93.792Zm33.4,0V84.068a.573.573,0,0,1,.576-.568h5.362a.573.573,0,0,1,.576.568v9.724a.573.573,0,0,1-.576.568h-5.362A.573.573,0,0,1,104.443,93.792Zm22.073-7.4a.047.047,0,0,1-.048.047H113.441V84.068a3.043,3.043,0,0,0-3.06-3.019h-5.362a3.043,3.043,0,0,0-3.06,3.019v2.369H80.04V84.068a3.043,3.043,0,0,0-3.06-3.019H71.618a3.043,3.043,0,0,0-3.06,3.019v2.369H55.531a.047.047,0,0,1-.048-.047V78.6a4.516,4.516,0,0,1,1.5-3.115H121.7c3.4,0,4.813,1.4,4.813,3.115Z" transform="translate(-53 -60.121)"/></g></g></svg>