<svg xmlns="http://www.w3.org/2000/svg" width="38.599" height="32.6" viewBox="0 0 38.599 32.6"><path d="M265.065,254.925h-8.634v-3.347a3.139,3.139,0,0,0-3.133-3.108h-9.682a3.14,3.14,0,0,0-3.133,3.11v3.344h-7.809a3.11,3.11,0,0,0-3.1,3.083v3.9a1.565,1.565,0,0,0,1.454,1.535v14.543a3.109,3.109,0,0,0,3.1,3.081h29.486a3.111,3.111,0,0,0,3.105-3.083V263.445a1.563,1.563,0,0,0,1.452-1.54V258A3.11,3.11,0,0,0,265.065,254.925Zm-21.441-4.63h9.656a1.319,1.319,0,0,1,1.307,1.285v3.375c-1.577.077-10.508.009-12.265-.023v-3.35A1.3,1.3,0,0,1,243.624,250.295Zm14.947,8.639h-2.7a1.825,1.825,0,0,0-1.821,1.809v.885H243.689v-.888a1.822,1.822,0,0,0-1.819-1.806h-2.7a1.824,1.824,0,0,0-1.821,1.809v.885h-5.938v-3.607a1.952,1.952,0,0,1,.57-1.276h32.241c1.339,0,2.107.459,2.107,1.259l0,3.626h-5.936v-.89A1.824,1.824,0,0,0,258.571,258.934Zm-19.392,1.824,2.669-.015.011,4.846H239.19Zm16.712,4.831-.012-4.831,2.669-.015.012,4.846Zm-23.022-2.14h4.485V265.6a1.822,1.822,0,0,0,1.819,1.806h2.695a1.824,1.824,0,0,0,1.821-1.809v-2.152H254.05V265.6a1.824,1.824,0,0,0,1.819,1.806h2.7a1.825,1.825,0,0,0,1.822-1.809v-2.152h4.479v14.538a1.273,1.273,0,0,1-1.271,1.262H234.14a1.273,1.273,0,0,1-1.271-1.262Z" transform="translate(-229.57 -248.47)"/></svg>