<svg xmlns="http://www.w3.org/2000/svg" width="147" height="105.5" viewBox="0 0 147 105.5"><defs><style>.kolkata_a{fill:none;stroke:#6f57e9;stroke-miterlimit:10;stroke-width:3px;}</style></defs><g transform="translate(-8.37 -20.94)"><line class="kolkata_a" x2="143.983" transform="translate(9.87 124.923)"/><rect class="kolkata_a" width="16.792" height="54.791" transform="translate(9.87 70.149)"/><path class="kolkata_a" d="M22.526,52.043V43.328a5.138,5.138,0,1,0-10.276,0v8.715Z" transform="translate(1.616 13.926)"/><line class="kolkata_a" y2="5.575" transform="translate(19.273 46.009)"/><line class="kolkata_a" x2="41.845" transform="translate(10.71 83.773)"/><line class="kolkata_a" x2="41.845" transform="translate(10.71 105.898)"/><line class="kolkata_a" x2="16.792" transform="translate(9.87 75.275)"/><line class="kolkata_a" y2="9.521" transform="translate(19.005 94.996)"/><line class="kolkata_a" y2="9.521" transform="translate(33.781 94.996)"/><line class="kolkata_a" y2="9.521" transform="translate(47.978 94.996)"/><line class="kolkata_a" y2="9.521" transform="translate(47.978 114.848)"/><line class="kolkata_a" y2="9.521" transform="translate(34.117 114.848)"/><line class="kolkata_a" y2="9.521" transform="translate(18.669 114.848)"/><path class="kolkata_a" d="M35.864,60.9V54.817a5.877,5.877,0,1,0-11.754,0V60.9Z" transform="translate(11.465 22.524)"/><line class="kolkata_a" y2="4.198" transform="translate(41.699 66.688)"/><rect class="kolkata_a" width="11.469" height="46.043" transform="translate(55.75 78.327)"/><path class="kolkata_a" d="M43.087,55.636V48.3a3.358,3.358,0,1,0-6.717,0v7.338Z" transform="translate(21.205 19.263)"/><line class="kolkata_a" y2="6.095" transform="translate(61.004 57.533)"/><rect class="kolkata_a" width="16.792" height="54.791" transform="translate(137.078 70.132)"/><path class="kolkata_a" d="M81.63,52.043V43.328a5.138,5.138,0,1,1,10.276,0v8.715Z" transform="translate(57.967 13.926)"/><line class="kolkata_a" y2="5.575" transform="translate(144.467 46.009)"/><line class="kolkata_a" x1="41.828" transform="translate(111.186 83.773)"/><line class="kolkata_a" x1="41.828" transform="translate(111.186 105.898)"/><line class="kolkata_a" x1="16.792" transform="translate(137.078 75.275)"/><line class="kolkata_a" y2="9.521" transform="translate(144.735 94.996)"/><line class="kolkata_a" y2="9.521" transform="translate(129.959 94.996)"/><line class="kolkata_a" y2="9.521" transform="translate(115.762 94.996)"/><line class="kolkata_a" y2="9.521" transform="translate(115.762 114.848)"/><line class="kolkata_a" y2="9.521" transform="translate(129.623 114.848)"/><line class="kolkata_a" y2="9.521" transform="translate(145.071 114.848)"/><path class="kolkata_a" d="M68.89,60.9V54.817a5.877,5.877,0,1,1,11.754,0V60.9Z" transform="translate(47.52 22.524)"/><line class="kolkata_a" y2="4.198" transform="translate(122.041 66.688)"/><rect class="kolkata_a" width="11.469" height="46.043" transform="translate(96.522 78.327)"/><path class="kolkata_a" d="M59.63,55.636V48.3a3.358,3.358,0,1,1,6.717,0v7.338Z" transform="translate(39.818 19.263)"/><line class="kolkata_a" y2="6.095" transform="translate(102.736 57.533)"/><path class="kolkata_a" d="M36.38,51.31H82.137" transform="translate(22.621 23.965)"/><path class="kolkata_a" d="M42.96,56.234V44.06H67.308V54.706" transform="translate(27.118 18.606)"/><path class="kolkata_a" d="M63.926,50.852V43.866a9.823,9.823,0,0,0-9.79-9.806h0a9.839,9.839,0,0,0-9.806,9.806v6.985Z" transform="translate(28.041 10.653)"/><path class="kolkata_a" d="M56.279,42.03V28.6a4.416,4.416,0,0,0-8.816-.544,4.2,4.2,0,0,0,0,.544V42.03A20.226,20.226,0,0,1,52,40.619,21.358,21.358,0,0,1,56.279,42.03Z" transform="translate(30.152 2.016)"/><line class="kolkata_a" y2="5.323" transform="translate(82.157 20.94)"/><path class="kolkata_a" d="M59.325,94.137v-30.7a6.582,6.582,0,0,0-13.165,0v30.7Z" transform="translate(29.272 30.786)"/></g></svg>