<svg id="Layer_1" data-name="Layer 1" xmlns="http://www.w3.org/2000/svg" viewBox="0 0 429.11 476.54"><defs><style>.cls-1{fill:#46237a;fill-rule:evenodd;}.cls-2{fill:#18f040;}</style></defs><path class="cls-1" d="M199.26,343.16l125.81-72.64a24.92,24.92,0,0,0,0-43.2L202,156.26c-22.14-12.78-39.5,4-39.5,20.39V321.18c0,17.43,18.34,31.44,36.78,22ZM220.6,125.41l161.48,93.22a32.87,32.87,0,0,0,32.88,0l1.12-.64a24.93,24.93,0,0,0,0-43.2L202,51.17c-19.32-12.41-39.5,2.12-39.5,20.4V74a5.79,5.79,0,0,1-8.69,5L130.43,65.51a5.82,5.82,0,0,1-2.81-6.14c8-40.86,55.23-62.51,93-39L434.1,143.58c40.46,23.37,40.6,81.74.43,105.34v0L180,395.86a35.1,35.1,0,0,0-17.55,30.4h0c0,18.3,20.18,32.82,39.5,20.41l214.1-123.6a24.93,24.93,0,0,0,0-43.2L414,278.66a5.79,5.79,0,0,1,0-10l23.33-13.47a5.79,5.79,0,0,1,6.72.65c30.33,26.58,27,77.12-9.94,98.46L220.6,477.52c-41.19,25.62-93.76-2.53-94.14-50.71l0,0V130.52A30.93,30.93,0,0,0,111,103.72h0c-19.32-12.41-39.5,2.11-39.5,20.4v249.6c0,18.3,20.18,32.83,39.5,20.41h0a5.79,5.79,0,0,1,8.69,5V426a5.81,5.81,0,0,1-4,5.51c-38.37,12.72-80.24-14.56-80.24-57.78V124.12c0-47.3,50.17-75.51,91-53.1Z" transform="translate(-35.45 -10.65)"/><path class="cls-2" d="M195.58,294.3a9.2,9.2,0,0,0,14.54,7.53l78.93-45.56a9.2,9.2,0,0,0,0-15.93l-78.93-45.56a9.2,9.2,0,0,0-14.54,7.52Z" transform="translate(-35.45 -10.65)"/></svg>