<svg xmlns="http://www.w3.org/2000/svg" width="32" height="30" viewBox="0 0 32 30"><defs><style>.mapped_a{fill:none;stroke:#5838ff;stroke-miterlimit:10;stroke-width:2px;}</style></defs><g transform="translate(-0.503 -0.892)"><path class="mapped_a" d="M16.523,4.777h3.4a2.148,2.148,0,0,1,2.147,2.147V23.2a2.148,2.148,0,0,1-2.147,2.147H3.648A2.145,2.145,0,0,1,1.5,23.2V6.924A2.145,2.145,0,0,1,3.648,4.777H7.939" transform="translate(0 4.547)"/><path class="mapped_a" d="M10.7,22.458H7.3A2.148,2.148,0,0,1,5.15,20.31V4.037A2.145,2.145,0,0,1,7.3,1.892H23.571a2.145,2.145,0,0,1,2.147,2.145V20.31a2.148,2.148,0,0,1-2.147,2.147H19.279" transform="translate(5.785 0)"/></g></svg>