<svg xmlns="http://www.w3.org/2000/svg" width="104" height="104" viewBox="0 0 104 104"><defs><style>.mumbai_a{fill:none;}.mumbai_b{fill:#6f57e9;stroke:#6f57e9;stroke-width:1.4px;}</style></defs><g transform="translate(-2130 -1115)"><rect class="mumbai_a" width="104" height="104" transform="translate(2130 1115)"/><g transform="translate(1107.372 -746.587)"><g transform="translate(1030.628 1866.587)"><g transform="translate(29.2 0)"><rect class="mumbai_b" width="1.231" height="2.934"/></g><g transform="translate(0 2.319)"><g transform="translate(8.83 56.623)"><path class="mumbai_b" d="M1074.619,2067.837h-19.027v-34.616h19.027Zm-17.8-1.231h16.565v-32.154h-16.565Z" transform="translate(-1055.592 -2033.221)"/></g><g transform="translate(26.626)"><path class="mumbai_b" d="M1112.281,1964.381H1105.9v-88.05a3.189,3.189,0,0,1,6.378,0Zm-5.147-1.231h3.917v-86.819a1.958,1.958,0,0,0-3.917,0Z" transform="translate(-1105.903 -1873.142)"/></g><g transform="translate(27.242 7.844)"><rect class="mumbai_b" width="5.147" height="1.231"/></g><g transform="translate(27.242 14.996)"><rect class="mumbai_b" width="16.632" height="1.231"/></g><g transform="translate(0 46.605)"><path class="mumbai_b" d="M1058.485,2016.147h-18.7l-9.153-11.249h27.857Zm-18.119-1.231h16.888v-8.788h-24.038Z" transform="translate(-1030.628 -2004.898)"/></g><g transform="translate(8.83 37.174)"><path class="mumbai_b" d="M1074.619,1988.9h-19.027v-10.661h19.027Zm-17.8-1.23h16.565v-8.2h-16.565Z" transform="translate(-1055.592 -1978.236)"/></g><g transform="translate(6.23 27.743)"><path class="mumbai_b" d="M1069.869,1962.236h-21.627v-10.662h21.627Zm-20.4-1.231h19.165v-8.2h-19.165Z" transform="translate(-1048.242 -1951.574)"/></g><g transform="translate(13.028 65.626)"><path class="mumbai_b" d="M1078.09,2084.286h-10.63v-20.3a5.315,5.315,0,0,1,10.63,0Zm-9.4-1.231h8.169v-19.068a4.084,4.084,0,0,0-8.169,0Z" transform="translate(-1067.46 -2058.673)"/></g><g transform="translate(32.389 22.341)"><rect class="mumbai_b" width="11.484" height="1.231"/></g><g transform="translate(32.389 37.174)"><rect class="mumbai_b" width="11.484" height="1.231"/></g><g transform="translate(32.389 46.604)"><rect class="mumbai_b" width="11.484" height="1.231"/></g><g transform="translate(32.389 56.623)"><path class="mumbai_b" d="M1127.934,2067.837H1122.2v-1.231h4.511l.082-26.516a6.9,6.9,0,0,1,6.891-6.869v1.231a5.671,5.671,0,0,0-5.661,5.643Z" transform="translate(-1122.196 -2033.221)"/></g></g><g transform="translate(3.512 92.326)"><rect class="mumbai_b" width="5.934" height="1.231"/></g></g><g transform="translate(1074.501 1866.587)"><g transform="translate(13.443 0)"><rect class="mumbai_b" width="1.231" height="2.934"/></g><g transform="translate(0 2.319)"><g transform="translate(16.016 56.623)"><path class="mumbai_b" d="M1218.97,2067.837h-19.027v-34.616h19.027Zm-17.8-1.231h16.565v-32.154h-16.565Z" transform="translate(-1199.943 -2033.221)"/></g><g transform="translate(10.869)"><path class="mumbai_b" d="M1191.769,1964.381h-6.378v-88.05a3.189,3.189,0,0,1,6.378,0Zm-5.148-1.231h3.917v-86.819a1.958,1.958,0,0,0-3.917,0Z" transform="translate(-1185.391 -1873.142)"/></g><g transform="translate(11.484 7.844)"><rect class="mumbai_b" width="5.147" height="1.231"/></g><g transform="translate(0 14.996)"><rect class="mumbai_b" width="16.632" height="1.231"/></g><g transform="translate(16.016 46.605)"><path class="mumbai_b" d="M1218.647,2016.147h-18.7V2004.9H1227.8Zm-17.473-1.231h16.888l7.15-8.788h-24.038Z" transform="translate(-1199.943 -2004.898)"/></g><g transform="translate(16.016 37.174)"><path class="mumbai_b" d="M1218.97,1988.9h-19.027v-10.661h19.027Zm-17.8-1.23h16.565v-8.2h-16.565Z" transform="translate(-1199.943 -1978.236)"/></g><g transform="translate(16.016 27.743)"><path class="mumbai_b" d="M1221.569,1962.236h-21.626v-10.662h21.626ZM1201.174,1961h19.164v-8.2h-19.164Z" transform="translate(-1199.943 -1951.574)"/></g><g transform="translate(20.214 65.626)"><path class="mumbai_b" d="M1222.441,2084.286h-10.63v-20.3a5.315,5.315,0,0,1,10.63,0Zm-9.4-1.231h8.168v-19.068a4.084,4.084,0,0,0-8.168,0Z" transform="translate(-1211.811 -2058.673)"/></g><g transform="translate(0 22.341)"><rect class="mumbai_b" width="11.484" height="1.231"/></g><g transform="translate(0 37.174)"><rect class="mumbai_b" width="11.484" height="1.231"/></g><g transform="translate(0 46.604)"><rect class="mumbai_b" width="11.484" height="1.231"/></g><g transform="translate(0 56.623)"><path class="mumbai_b" d="M1166.147,2067.837h-5.739l-.085-27.742a5.67,5.67,0,0,0-5.66-5.643v-1.231a6.9,6.9,0,0,1,6.891,6.869l.082,26.516h4.511Z" transform="translate(-1154.663 -2033.221)"/></g></g><g transform="translate(34.428 92.326)"><rect class="mumbai_b" width="5.933" height="1.231"/></g></g><g transform="translate(1068.142 1958.914)"><rect class="mumbai_b" width="12.719" height="1.231" transform="translate(0)"/></g></g></g></svg>