<svg xmlns="http://www.w3.org/2000/svg" width="41.805" height="40.797" viewBox="0 0 41.805 40.797"><path d="M266.972,259.654h-.021a1.9,1.9,0,0,0-.752.1,2.8,2.8,0,0,0-2.789-2.6h-.029a2.837,2.837,0,0,0-.858.133v-6.158a2.509,2.509,0,0,0-.917-1.938l-5.1-4.226a2.6,2.6,0,0,0-1.657-.6H235.643a2.622,2.622,0,0,0-1.661.6l-5.1,4.227a2.556,2.556,0,0,0-.693.909,2.5,2.5,0,0,0-.223,1.029V274.2a2.343,2.343,0,0,0,2.325,2.282h19.58v1.047a7.268,7.268,0,0,0,2.194,5.2l.241.234a7.676,7.676,0,0,0,5.43,2.206h5.105a6.945,6.945,0,0,0,6.93-6.859V262.421A2.806,2.806,0,0,0,266.972,259.654Zm-25.12-2.321h.009a1.779,1.779,0,0,0,.842-.2l2.557-1.385,2.579,1.41a1.832,1.832,0,0,0,2.412-.833,1.773,1.773,0,0,0,.18-.776v-4.019h10.011v4.2a2.812,2.812,0,0,0-3.17,1.529l-.033.072a2.8,2.8,0,0,0-.971-.174h-.007a2.815,2.815,0,0,0-2.824,2.772v5.815a2.778,2.778,0,0,0-.742-.1h-.007a2.833,2.833,0,0,0-2.816,2.763v6.023h-19.58a.238.238,0,0,1-.24-.231v-22.67h10.011v4.024A1.8,1.8,0,0,0,241.852,257.333Zm6.5-2.247L246.363,254a1.8,1.8,0,0,0-2.156-.033l-2.066,1.126v-3.975a3.227,3.227,0,0,1,.108-.893l.972-3.809h4.051l.979,3.837a3.248,3.248,0,0,1,.1.872Zm3.6,13.328a.729.729,0,0,1,.733-.719h.007a.845.845,0,0,1,.527.215.7.7,0,0,1,.211.49.8.8,0,0,0,.013.182v5.078a1.018,1.018,0,0,0,.307.725L255,275.619a4.936,4.936,0,0,1,1.491,3.532,1.037,1.037,0,0,0,2.075,0,6.972,6.972,0,0,0-2.107-4.985l-.948-.93V259.942a.743.743,0,0,1,.234-.521.746.746,0,0,1,1.257.509v9.735a1.038,1.038,0,0,0,1.036,1.037h0a1.04,1.04,0,0,0,1.035-1.037v-11.22a.738.738,0,0,1,.235-.521.771.771,0,0,1,.534-.2.742.742,0,0,1,.722.712V269.92a1.039,1.039,0,0,0,2.077,0v-9.978a.747.747,0,0,1,.746-.724h.022a.745.745,0,0,1,.723.712v9.606a4.914,4.914,0,0,0,1.284,3.312,1.042,1.042,0,0,0,1.456.085,1.015,1.015,0,0,0,.351-.7,1.03,1.03,0,0,0-.263-.76,2.88,2.88,0,0,1-.754-1.942v-7.1a.783.783,0,0,1,.769-.725.743.743,0,0,1,.722.712v15.882a4.876,4.876,0,0,1-4.871,4.812h-5.093a5.422,5.422,0,0,1-3.966-1.611l-.243-.236a5.228,5.228,0,0,1-1.578-3.738Zm2.9-21.994a.507.507,0,0,1,.322.116l3.538,2.935H250.2l-.779-3.048,5.432,0Zm-23.072,3.054,3.538-2.936a.517.517,0,0,1,.326-.117h5.432l-.777,3.053Z" transform="translate(-227.967 -244.371)"/></svg>