<svg xmlns="http://www.w3.org/2000/svg" width="571" height="511" viewBox="0 0 571 511"><defs><style>.a{fill:none;}.b{fill:#f4f6fa;opacity:0.606;}.c{fill:#fff;}.d,.i{fill:#d0c9f7;}.d,.g{opacity:0.5;}.e{fill:#e7e4fb;}.f,.k,.l{fill:#6f57e9;}.g{fill:#ac9efc;}.h{fill:#caddff;}.j{fill:#e9e5ff;font-size:17px;font-family:SinhalaSangamMN-Bold, Sinhala Sangam MN;font-weight:700;}.j,.k,.l{letter-spacing:0.02em;}.k{font-size:40px;}.k,.l{font-family:RupeeForadian, Rupee Foradian;}.l{font-size:22px;}</style></defs><g transform="translate(-1131 -490)"><rect class="a" width="220" height="220" transform="translate(1306 692)"/><rect class="b" width="571" height="511" rx="255.5" transform="translate(1131 490)"/><g transform="translate(32 45.994)"><rect class="a" width="204" height="203" transform="translate(1295.953 680.471)"/><g transform="translate(1182 507.006)"><g transform="translate(18.028 8.265)"><g transform="translate(0 0)"><path class="c" d="M2493.877,530.582l2.41,50.316a13.047,13.047,0,0,0,13.023,13.071h169.051a13.047,13.047,0,0,0,13.023-13.071L2674.9,236.914a13.047,13.047,0,0,0-13.022-13.071H2492.829a13.047,13.047,0,0,0-13.022,13.071Z" transform="translate(-2479.094 -222.681)"/><path d="M2883.458,935.371H2872a.714.714,0,1,1,0-1.428h11.459a12.348,12.348,0,0,0,12.308-12.359l-2.2-45.971a.714.714,0,0,1,.679-.747.728.728,0,0,1,.747.679l2.2,46A13.784,13.784,0,0,1,2883.458,935.371Z" transform="translate(-2684.19 -563.817)"/><path d="M2559.1,592.957h-50.573a13.776,13.776,0,0,1-13.737-13.785l-16.48-343.95a13.782,13.782,0,0,1,13.735-13.82H2661.1a13.777,13.777,0,0,1,13.737,13.785l9.116,190.7a.713.713,0,0,1-.679.747.722.722,0,0,1-.748-.679l-9.117-190.731a12.356,12.356,0,0,0-12.31-12.392H2492.045a12.347,12.347,0,0,0-12.308,12.357l16.48,343.95a12.355,12.355,0,0,0,12.31,12.391H2559.1a.714.714,0,1,1,0,1.428Z" transform="translate(-2478.309 -221.402)"/><path class="d" d="M2527.254,595.876h154.38a11.915,11.915,0,0,0,11.893-11.936l-16.272-325.747a11.915,11.915,0,0,0-11.892-11.936h-154.38a11.915,11.915,0,0,0-11.893,11.936l16.272,325.747A11.915,11.915,0,0,0,2527.254,595.876Z" transform="translate(-2489.196 -234.423)"/></g><g transform="translate(50.031 175.279)"><path class="c" d="M2697.414,659.56l7.147-41.1a1.519,1.519,0,0,0-1.5-1.779l-102.523.168a1.781,1.781,0,0,0-1.727,2.207l10.267,41.792a4.131,4.131,0,0,0,4.064,3.146l81.07-1.685A3.318,3.318,0,0,0,2697.414,659.56Z" transform="translate(-2591.445 -603.805)"/><path class="c" d="M2586.532,599.939l113.287.284a2.551,2.551,0,0,0,2.543-2.824l-.57-5.3a2.551,2.551,0,0,0-2.532-2.279l-113.309-.189a2.552,2.552,0,0,0-2.54,2.84l.592,5.2A2.552,2.552,0,0,0,2586.532,599.939Z" transform="translate(-2583.395 -589.635)"/><path class="e" d="M2635.733,633.819l2.99,31.085a1.07,1.07,0,0,0,1.052.967l4.295.049a1.07,1.07,0,0,0,1.075-1.188L2641.67,633.6a1.069,1.069,0,0,0-1.063-.951h-3.81A1.069,1.069,0,0,0,2635.733,633.819Z" transform="translate(-2610.812 -612.169)"/><path class="e" d="M2666.787,633.564l.9,30.979a1.133,1.133,0,0,0,1.146,1.1l3.963-.047a1.133,1.133,0,0,0,1.118-1.179l-1.247-30.84a1.133,1.133,0,0,0-1.1-1.086l-3.613-.091A1.133,1.133,0,0,0,2666.787,633.564Z" transform="translate(-2627.084 -612.039)"/><path class="e" d="M2692.192,634.031l.408,30.287a1.366,1.366,0,0,0,1.412,1.346l3.713-.128a1.365,1.365,0,0,0,1.317-1.4l-.887-30.159a1.365,1.365,0,0,0-1.364-1.326h-3.235A1.366,1.366,0,0,0,2692.192,634.031Z" transform="translate(-2640.394 -612.169)"/><path class="e" d="M2780.174,633.448l-3.061,30.334a1.4,1.4,0,0,1-1.377,1.26l-3.49.041a1.4,1.4,0,0,1-1.409-1.547l3.2-30.335a1.4,1.4,0,0,1,1.376-1.254l3.354-.04A1.4,1.4,0,0,1,2780.174,633.448Z" transform="translate(-2681.592 -611.781)"/><path class="e" d="M2751.568,633.255l-.976,31.107a.992.992,0,0,1-1.015.96l-4.253-.1a.992.992,0,0,1-.968-1.028l1.118-30.9a.992.992,0,0,1,.968-.956l4.111-.1A.992.992,0,0,1,2751.568,633.255Z" transform="translate(-2667.722 -611.952)"/><path class="e" d="M2726.466,633.629l-.482,30.665a1.2,1.2,0,0,1-1.214,1.182l-4.05-.047a1.2,1.2,0,0,1-1.186-1.233l.827-30.664a1.2,1.2,0,0,1,1.215-1.168l3.705.045A1.2,1.2,0,0,1,2726.466,633.629Z" transform="translate(-2654.718 -612.021)"/></g><g transform="translate(44.192 120.362)"><path class="f" d="M2625.346,513.234h97.77c6.356,0,11.411-4.306,11.066-9.428l-1.374-20.413c-.318-4.713-5.122-8.416-10.971-8.456l-97.786-.677c-6.39-.044-11.5,4.268-11.162,9.417l1.391,21.09C2614.592,509.513,2619.453,513.234,2625.346,513.234Z" transform="translate(-2612.872 -474.259)"/></g><g transform="translate(46.6 255.095)"><path class="g" d="M2577.248,776.246h133.765l-.583-18.933H2576.187Z" transform="translate(-2576.187 -757.313)"/><path class="g" d="M2580.926,846.637H2714.69l-1.459-18.621-133.367-.624Z" transform="translate(-2578.114 -794.028)"/></g></g><g transform="translate(101.55 105.662)"><g transform="translate(0 126.988)"><g transform="translate(0 140.279)"><g transform="translate(21.557 0)"><ellipse class="f" cx="6.069" cy="5.09" rx="6.069" ry="5.09" transform="translate(0 11.252) rotate(-67.962)"/><path class="c" d="M2711.79,1000.258a1.864,1.864,0,1,0,2.523-1.341A2.036,2.036,0,0,0,2711.79,1000.258Z" transform="translate(-2706.497 -993.411)"/></g><g transform="translate(0 0)"><ellipse class="f" cx="6.069" cy="5.09" rx="6.069" ry="5.09" transform="translate(0 11.252) rotate(-67.962)"/><path class="c" d="M2666.5,1000.25a1.869,1.869,0,1,0,2.53-1.345A2.04,2.04,0,0,0,2666.5,1000.25Z" transform="translate(-2661.212 -993.404)"/></g><g transform="translate(71.86 1.593)"><path class="f" d="M2807.057,994.856c-1.258,3.107-.165,6.481,2.44,7.536s5.738-.609,7-3.716.165-6.481-2.44-7.536S2808.315,991.749,2807.057,994.856Z" transform="translate(-2806.535 -990.823)"/><path class="c" d="M2813.793,1000.286a1.848,1.848,0,1,0,2.5-1.328A2.018,2.018,0,0,0,2813.793,1000.286Z" transform="translate(-2810.24 -995.025)"/></g><g transform="translate(48.987 0)"><ellipse class="f" cx="6.069" cy="5.09" rx="6.069" ry="5.09" transform="matrix(0.375, -0.927, 0.927, 0.375, 0, 11.252)"/><path class="c" d="M2769.372,1000.231a1.88,1.88,0,1,0,2.545-1.352A2.053,2.053,0,0,0,2769.372,1000.231Z" transform="translate(-2764.094 -993.391)"/></g></g><path d="M2746.8,836.7h-82.943a.714.714,0,0,1,0-1.428h82.488l63.744-136.518a.714.714,0,1,1,1.294.6l-63.936,136.931A.714.714,0,0,1,2746.8,836.7Z" transform="translate(-2659.551 -695.721)"/><path d="M2730.9,835.53a.714.714,0,0,1-.646-1.017l64.644-138a.714.714,0,1,1,1.293.606l-64.644,138A.714.714,0,0,1,2730.9,835.53Z" transform="translate(-2694.676 -694.548)"/><path class="f" d="M2912.564,698.033a2.467,2.467,0,1,0-.042-4.931l-52.337-.267a2.469,2.469,0,1,0-.039,4.932l52.337.267Z" transform="translate(-2761.421 -692.835)"/><g transform="translate(0.688 38.854)"><path class="f" d="M2791.412,775.943H2663.338a4.8,4.8,0,0,0-3.455,1.391,4.655,4.655,0,0,0-.776,5.467l23.085,42.871a2.7,2.7,0,0,0,2.378,1.423l82.972.1Z" transform="translate(-2657.834 -775.229)"/><path d="M2767.208,827.125l-83.428-.1a3.416,3.416,0,0,1-3.006-1.8l-23.085-42.872a5.36,5.36,0,0,1,.893-6.3,5.541,5.541,0,0,1,3.967-1.607h129.195Zm-104.659-51.254a4.1,4.1,0,0,0-2.943,1.175,3.935,3.935,0,0,0-.659,4.63l23.084,42.872a1.991,1.991,0,0,0,1.75,1.046l82.516.1,23.2-49.825Z" transform="translate(-2657.045 -774.443)"/></g><path d="M2734.545,849.219a.715.715,0,0,1-.683-.5l-9.449-30.583a.714.714,0,1,1,1.365-.421l9.448,30.583a.713.713,0,0,1-.682.925Z" transform="translate(-2691.635 -757.994)"/><path d="M2718.265,796.525a.715.715,0,0,1-.683-.5l-3.071-9.94a.714.714,0,1,1,1.365-.421l3.071,9.94a.713.713,0,0,1-.682.925Z" transform="translate(-2686.448 -741.203)"/></g><g transform="translate(114.829)"><g transform="translate(6.446 101.962)"><g transform="translate(80.428 131.551)"><path class="c" d="M3085.323,918.08l12.6,11.35-6.1,5.6-11.07-10.932Z" transform="translate(-3080.043 -917.367)"/><path d="M3091.041,934.961a.711.711,0,0,1-.5-.206l-11.07-10.932a.714.714,0,0,1-.067-.94l4.566-6.02a.714.714,0,0,1,1.047-.1l12.6,11.35a.714.714,0,0,1,.005,1.056l-6.1,5.6A.709.709,0,0,1,3091.041,934.961Zm-10.122-11.714,10.14,10.014,5.021-4.61-11.444-10.3Z" transform="translate(-3079.257 -916.581)"/><g transform="translate(3.125 5.827)"><path class="c" d="M3107.926,934.672c-1.844-.956-4.633-2.4-8.18-4.215a1.263,1.263,0,0,0-1.827.945l-1.848,7.531-.4-.558a3.255,3.255,0,0,0-4.726-.628l-2.074,1.712a2.577,2.577,0,0,0-.93,1.757c-.375,4.078-1.509,18.733.706,26.769a2.519,2.519,0,0,0,4.454.858,151.216,151.216,0,0,0,16.346-30.137A3.221,3.221,0,0,0,3107.926,934.672Z" transform="translate(-3086.606 -929.604)"/><path d="M3090.318,969.789a3.288,3.288,0,0,1-.6-.055,3.241,3.241,0,0,1-2.544-2.344c-2.236-8.115-1.123-22.735-.729-27.024a3.272,3.272,0,0,1,1.188-2.243l2.074-1.711a3.969,3.969,0,0,1,5.229.156l1.493-6.091a1.979,1.979,0,0,1,2.855-1.441c3.548,1.819,6.338,3.261,8.183,4.217a3.924,3.924,0,0,1,1.861,4.929,151,151,0,0,1-16.436,30.3A3.193,3.193,0,0,1,3090.318,969.789Zm1.908-32.857a2.513,2.513,0,0,0-1.609.582l-2.074,1.712a1.855,1.855,0,0,0-.673,1.272c-.389,4.227-1.489,18.631.683,26.513a1.8,1.8,0,0,0,1.429,1.32,1.755,1.755,0,0,0,1.763-.7A149.419,149.419,0,0,0,3108,937.66a2.5,2.5,0,0,0-1.189-3.138c-1.843-.956-4.631-2.4-8.177-4.214a.55.55,0,0,0-.795.411.615.615,0,0,1-.013.069l-1.847,7.531a.714.714,0,0,1-1.276.243l-.4-.558a2.519,2.519,0,0,0-1.739-1.048A2.61,2.61,0,0,0,3092.226,936.932Z" transform="translate(-3085.82 -928.82)"/></g><path d="M3094.1,973.23a.714.714,0,0,1-.571-1.143c4.985-6.654,15.692-28.783,15.8-29.006a.714.714,0,0,1,1.286.621c-.442.914-10.875,22.476-15.944,29.241A.711.711,0,0,1,3094.1,973.23Z" transform="translate(-3086.66 -930.253)"/><path d="M3092.983,977.383a.686.686,0,0,1-.194-.027l-5.911-1.666a.714.714,0,1,1,.388-1.374l5.91,1.666a.714.714,0,0,1-.194,1.4Z" transform="translate(-3082.977 -946.814)"/><path d="M3094.13,969.419a.724.724,0,0,1-.2-.028l-6.281-1.8a.714.714,0,1,1,.394-1.374l6.281,1.8a.714.714,0,0,1-.2,1.4Z" transform="translate(-3083.384 -942.573)"/></g><g transform="translate(0 146.641)"><g transform="translate(28.974)"><path class="c" d="M2989.062,954.676l-9.5,17.789-6.882-3.914,6.854-18.774Z" transform="translate(-2971.969 -949.062)"/><path d="M2978.78,972.393a.714.714,0,0,1-.353-.094l-6.882-3.914a.715.715,0,0,1-.318-.866l6.854-18.773a.715.715,0,0,1,1-.39l9.523,4.9a.714.714,0,0,1,.3.971l-9.495,17.789a.714.714,0,0,1-.431.349A.706.706,0,0,1,2978.78,972.393Zm-6-4.951,5.72,3.253,8.808-16.5-8.159-4.2Z" transform="translate(-2971.183 -948.276)"/></g><g transform="translate(0 13.188)"><path class="c" d="M2951.063,993.011c.093-2.075.228-5.211.387-9.194a1.263,1.263,0,0,0-1.625-1.261l-7.61,1.489.574-1a2.816,2.816,0,0,0-1.226-3.939l-2.85-1.367a2.581,2.581,0,0,0-1.986-.105c-3.858,1.374-17.632,6.5-23.993,11.891a2.519,2.519,0,0,0,1.093,4.4,151.219,151.219,0,0,0,34.216,2.167A3.222,3.222,0,0,0,2951.063,993.011Z" transform="translate(-2911.113 -976.764)"/><path d="M2939.878,996.224a149.492,149.492,0,0,1-26.981-2.39,3.193,3.193,0,0,1-2.468-2.353,3.239,3.239,0,0,1,1.058-3.293c6.422-5.439,20.158-10.574,24.215-12.019a3.272,3.272,0,0,1,2.534.134l2.849,1.367a3.53,3.53,0,0,1,1.71,4.592l6.075-1.189a1.977,1.977,0,0,1,2.507,1.984c-.159,3.984-.294,7.122-.387,9.2a3.924,3.924,0,0,1-3.691,3.76C2944.835,996.16,2942.342,996.224,2939.878,996.224Zm-3.069-18.818a1.881,1.881,0,0,0-.629.109c-4,1.424-17.533,6.48-23.771,11.763a1.8,1.8,0,0,0-.6,1.851,1.754,1.754,0,0,0,1.373,1.307,149.3,149.3,0,0,0,34.03,2.153,2.5,2.5,0,0,0,2.347-2.4c.093-2.075.228-5.209.387-9.192a.549.549,0,0,0-.707-.548.536.536,0,0,1-.068.017l-7.61,1.489a.714.714,0,0,1-.757-1.055l.574-1a2.1,2.1,0,0,0-.915-2.94l-2.851-1.367A1.862,1.862,0,0,0,2936.809,977.406Zm13.467,14.818h0Z" transform="translate(-2910.326 -975.977)"/></g><path d="M2951.756,1007.476h-.011c-1.015-.016-24.965-.422-33.234-2.178a.714.714,0,1,1,.3-1.4c8.134,1.727,32.713,2.143,32.96,2.147a.714.714,0,0,1-.011,1.428Z" transform="translate(-2914.317 -977.41)"/><path d="M2943.5,992.574a.714.714,0,0,1-.7-.6l-.972-6.064a.714.714,0,0,1,1.411-.226l.972,6.063a.715.715,0,0,1-.592.818A.722.722,0,0,1,2943.5,992.574Z" transform="translate(-2926.822 -967.559)"/><path d="M2951.208,990.269a.714.714,0,0,1-.705-.6l-1.008-6.456a.714.714,0,0,1,1.412-.22l1.008,6.456a.711.711,0,0,1-.706.824Z" transform="translate(-2930.842 -966.146)"/></g><g transform="translate(32.061)"><path d="M3000.282,646.494c-.552,1.049-9.457,52.18,2.625,90.59s33.367,48.583,33.367,48.583l9.01-9.056s-14.576-12.743-19.253-58.694c-5.313-52.192,5.76-70.906,5.76-70.906Z" transform="translate(-2987.589 -643.531)"/><path class="f" d="M3083.683,911.012l2.145,3.339a2.624,2.624,0,0,1-.457,3.372l-8.015,7.175a2.623,2.623,0,0,1-3.02.341l-1.884-1.042a1.627,1.627,0,0,1-.462-2.466l9.075-10.883A1.627,1.627,0,0,1,3083.683,911.012Z" transform="translate(-3026.885 -781.721)"/><path d="M3035.16,641.632s7.136,21.2,4.415,37.312-47.89,119.646-47.89,119.646l-10.488-6.3L3010.7,652.582l7.256-12.312Z" transform="translate(-2979.517 -640.27)"/><path class="f" d="M2993.345,956.276l-2.124,3.3a3,3,0,0,1-4.1.927l-8.029-4.966a3,3,0,0,1-1.333-3.275l.894-3.6a2.1,2.1,0,0,1,3.041-1.332l10.9,5.979A2.1,2.1,0,0,1,2993.345,956.276Z" transform="translate(-2977.668 -801.001)"/><path class="h" d="M3004,808.986a.705.705,0,0,1-.225-.037.713.713,0,0,1-.452-.9l9.141-27.378a.714.714,0,0,1,1.354.452l-9.141,27.378A.714.714,0,0,1,3004,808.986Z" transform="translate(-2991.088 -713.569)"/></g></g><path d="M3005.79,446.993a13.094,13.094,0,0,1-1.956-4.511,13.536,13.536,0,0,1,4.356-13.269c8.323-7.734,20.272,1.343,24.507,1.93,5.381.747,10.4-3.955,17.3-4.654,3.205-.325,15.249-1.724,20.071,12.86a30.443,30.443,0,0,1,1.128,4.949c.327,2.122.865,10.779,9.7,11.663,17.058,1.706,29.029,25.51,16.186,38.639-3.073,3.141-13.981,1.6-17.961.982a23.083,23.083,0,0,1-2.3-.478c-2.334-.61-5.189-3.165-7.745-2.294-7.489,2.552-28.262,15.645-30.562-12.358-.646-7.871-7.469-11.866-10.763-12.717-2.674-.691-15.431,1.146-16.591.576-7.055-3.473-6.279-10.739-4.773-15.11C3007.5,449.976,3006.594,448.2,3005.79,446.993Z" transform="translate(-2952.696 -426.108)"/><g transform="translate(0 39.999)"><g transform="translate(0 18.813)"><path class="c" d="M2940.95,551.136a119.457,119.457,0,0,1-8.707,31.716c-5.575,12.694-13.168,23.042-19.844,29.28a4.166,4.166,0,0,1-2.969,1.1c-2.524-.071-7.459.234-10.019,3.389-2.054,2.532-1.072,6.374,1.248,7.233,2.542.942,3.523.4,3.9-1.048.483-1.85,1.515-3.817,3.722-3.749h5a4.775,4.775,0,0,0,2.577-.752c5.633-3.6,29.073-20,32.921-45.579C2948.9,571.913,2940.95,551.136,2940.95,551.136Z" transform="translate(-2897.575 -550.422)"/><path d="M2901.967,624.25a6.939,6.939,0,0,1-2.344-.514,4.51,4.51,0,0,1-2.625-3.129,5.852,5.852,0,0,1,1.07-5.224c2.727-3.361,7.806-3.738,10.594-3.653a3.463,3.463,0,0,0,2.461-.906c7.459-6.968,14.632-17.555,19.678-29.045a119.757,119.757,0,0,0,8.649-31.5.714.714,0,0,1,1.378-.18c5.32,13.9,7.966,21.288,7.867,21.949-3.931,26.127-28.381,42.965-33.242,46.075a5.485,5.485,0,0,1-2.962.864h-5.08c-1.406,0-2.389,1.082-2.947,3.217a2.582,2.582,0,0,1-1.261,1.774A2.625,2.625,0,0,1,2901.967,624.25Zm6.044-11.1c-2.6,0-6.67.469-8.833,3.135a4.417,4.417,0,0,0-.8,3.946,3.093,3.093,0,0,0,1.743,2.167c1.458.54,2.123.468,2.424.31.155-.081.38-.259.54-.869.946-3.623,2.932-4.338,4.435-4.283h4.974a4.054,4.054,0,0,0,2.192-.639c4.766-3.048,28.714-19.533,32.588-45.007-.211-1.187-3.923-11.168-6.784-18.7a122.629,122.629,0,0,1-8.378,29.143c-5.121,11.661-12.416,22.418-20.011,29.514a4.9,4.9,0,0,1-3.477,1.289C2908.429,613.152,2908.224,613.148,2908.01,613.148Zm39.268-41.2h0Z" transform="translate(-2896.787 -549.636)"/></g><path class="f" d="M3035.983,527.64a19.681,19.681,0,0,0-13.743-15.4,46.794,46.794,0,0,0-19.972-1.718c-18.24,2.288-22.954,23.78-23.816,28.853a.973.973,0,0,0,.9,1.134l4.967.3-1.05,37.824s5.7,8.691,40.7,0c0,0,10.537-4.029,14.018,11.628,0,0,6.785-.9,6.705-8.749C3044.635,575.692,3038.934,543.785,3035.983,527.64Z" transform="translate(-2939.564 -510.121)"/><g transform="translate(33.832 14.409)"><path class="c" d="M2998.476,656.034l-28.2-55.292a8.483,8.483,0,0,1,3.7-11.4l91.211-46.528a8.483,8.483,0,0,1,11.4,3.7l28.2,55.292a8.483,8.483,0,0,1-3.7,11.4l-91.212,46.528A8.483,8.483,0,0,1,2998.476,656.034Z" transform="translate(-2968.633 -541.174)"/><path d="M3005.256,660.585a9.226,9.226,0,0,1-2.851-.455,9.121,9.121,0,0,1-5.35-4.561l-28.2-55.291a9.2,9.2,0,0,1,4.009-12.36l91.212-46.528a9.2,9.2,0,0,1,12.36,4.01l28.2,55.292a9.2,9.2,0,0,1-4.01,12.359l-91.212,46.527A9.128,9.128,0,0,1,3005.256,660.585Zm62.974-118.771a7.706,7.706,0,0,0-3.51.848l-91.212,46.528a7.768,7.768,0,0,0-3.386,10.439l28.2,55.292a7.768,7.768,0,0,0,10.438,3.386l91.212-46.527a7.769,7.769,0,0,0,3.386-10.438l-28.2-55.292a7.707,7.707,0,0,0-4.519-3.852A7.793,7.793,0,0,0,3068.23,541.815Z" transform="translate(-2967.847 -540.386)"/><g transform="translate(49.855 17.557)"><path class="f" d="M3073.754,604.364a1.19,1.19,0,0,1-.536-2.254l49.1-24.72a1.19,1.19,0,0,1,1.07,2.127l-49.1,24.72A1.19,1.19,0,0,1,3073.754,604.364Z" transform="translate(-3072.563 -577.263)"/><path class="f" d="M3121.646,613.664a1.191,1.191,0,0,1-.537-2.253l30.717-15.517a1.19,1.19,0,0,1,1.073,2.125l-30.717,15.517A1.188,1.188,0,0,1,3121.646,613.664Z" transform="translate(-3097.654 -586.957)"/><path class="f" d="M3204.9,679.154a1.191,1.191,0,0,1-.536-2.254l8.949-4.506a1.19,1.19,0,0,1,1.07,2.127l-8.949,4.506A1.185,1.185,0,0,1,3204.9,679.154Z" transform="translate(-3141.271 -627.036)"/><path class="f" d="M3131.352,705.729a1.191,1.191,0,0,1-.536-2.254l27.825-14.011a1.191,1.191,0,0,1,1.071,2.127L3131.885,705.6A1.187,1.187,0,0,1,3131.352,705.729Z" transform="translate(-3102.738 -635.979)"/></g></g><g transform="translate(84.36 30.214)"><path class="c" d="M3091.071,575.082h-15.592s8.328,29.953,12.708,72.687c.268,2.609-1.378,8.057-1.695,9.677-1.2,6.146-1.413,8.688,2.331,8.83,1.87.07,5.854-1.844,6.922-2.755,1.969-1.68,2.769-2.78,2.244-5.314-.611-2.952-1.621-7.75-2.173-9.943C3093.3,638.3,3098.5,607.719,3091.071,575.082Z" transform="translate(-3074.765 -574.368)"/><path d="M3088.135,666.206l-.125,0a3.778,3.778,0,0,1-3.046-1.229c-1.2-1.52-.788-4.206.042-8.451.078-.4.226-.993.413-1.741.548-2.192,1.464-5.86,1.272-7.727-4.323-42.186-12.6-72.27-12.686-72.569a.715.715,0,0,1,.688-.905h15.592a.714.714,0,0,1,.7.556c4.722,20.749,4.366,40.533,4.106,54.979-.147,8.17-.263,14.623.634,18.188.566,2.243,1.609,7.211,2.181,9.973.581,2.808-.336,4.173-2.48,6C3094.231,664.295,3090.259,666.206,3088.135,666.206Zm-12.511-91.2a499.3,499.3,0,0,1,12.487,71.9c.217,2.116-.7,5.788-1.308,8.218-.174.7-.326,1.3-.4,1.669-.684,3.5-1.142,6.258-.325,7.29.216.272.656.639,1.982.689,1.6.057,5.434-1.733,6.431-2.584,1.922-1.64,2.45-2.491,2.009-4.626-.569-2.75-1.607-7.7-2.166-9.913-.945-3.749-.827-10.286-.678-18.562.257-14.243.607-33.7-3.945-54.081Z" transform="translate(-3073.979 -573.582)"/></g><path class="f" d="M3072.951,544.84s9.759.557,11.432.586c4.183.072,11.448.166,11.07-.054-.53-.307-3.438-25.877-22.326-29.759Z" transform="translate(-2989.08 -512.998)"/><path d="M3087.342,543.31h-.023c-4.024-.071-17.541-.309-22.465-.419-.669-.016-1-.024-2.549-9.056a.714.714,0,1,1,1.408-.24c.551,3.222,1.253,6.8,1.594,7.878,5.147.113,17.723.335,21.848.407-.615-5.031-4.678-27.661-27.888-30.12a.714.714,0,0,1,.151-1.42c24.594,2.605,28.621,26.749,29.178,31.563a1.261,1.261,0,0,1-1.254,1.409Z" transform="translate(-2981.576 -510.233)"/></g><g transform="translate(55.771 13.358)"><path class="c" d="M3031.121,461.21a.646.646,0,0,1-.928-.316c-.7-1.749-2.822-4.449-5.166-5-3-.712-6.467.188-7.241,2.467-.676,1.988-.046,3.2-2.262,5.762-.212.246-.034.644.224.841l1.373,1.165a2.411,2.411,0,0,1,.566,1.323c.1,1.122.287,3.443.613,3.819.949,1.095,5,.972,5,.972l2.537,9.854c.277,1.349-.236,1.757-.236,1.757l-1.615,2.678s.632,2.411,9.683,1.2c6.8-.911,6.048-1.933,6.048-1.933s-7.236-4.126-8.659-17.4a.826.826,0,0,1,.335-.752c.909-.666,3.356-2.627,2.947-4.639C3033.9,460.866,3032.3,460.529,3031.121,461.21Z" transform="translate(-3014.716 -454.944)"/><path d="M3028.419,488c-5.059,0-5.806-1.663-5.913-2.067a.715.715,0,0,1,.08-.55l1.615-2.678a.7.7,0,0,1,.117-.146,1.569,1.569,0,0,0,.031-1.1l-2.39-9.277c-1.3-.005-4.053-.149-4.985-1.224-.353-.408-.524-1.3-.763-3.986l-.021-.236a2.091,2.091,0,0,0-.305-.835l-1.384-1.174a1.492,1.492,0,0,1-.564-1,1.115,1.115,0,0,1,.262-.854,6.182,6.182,0,0,0,1.72-3.715,10.034,10.034,0,0,1,.406-1.809c.941-2.771,4.929-3.679,8.082-2.932,2.619.621,4.852,3.483,5.635,5.362a2.764,2.764,0,0,1,2.486-.153,3.252,3.252,0,0,1,1.726,2.456c.462,2.268-1.823,4.33-3.225,5.357a.113.113,0,0,0-.048.1c1.362,12.7,8.236,16.814,8.3,16.854a.727.727,0,0,1,.22.2.92.92,0,0,1,.082.9c-.268.629-1.262,1.443-6.611,2.16A34.681,34.681,0,0,1,3028.419,488Zm-4.362-2.291c.54.438,2.469,1.37,8.728.532a20.852,20.852,0,0,0,5.067-1.1c-1.932-1.451-7.1-6.312-8.293-17.452a1.544,1.544,0,0,1,.623-1.4c.708-.518,2.992-2.333,2.67-3.92a1.871,1.871,0,0,0-.912-1.438,1.366,1.366,0,0,0-1.249.122,1.361,1.361,0,0,1-1.948-.668c-.645-1.607-2.628-4.092-4.667-4.576-2.871-.68-5.8.237-6.4,2a8.75,8.75,0,0,0-.347,1.569,7.45,7.45,0,0,1-1.906,4.261l1.374,1.165a3.025,3.025,0,0,1,.815,1.8l.021.238a20.311,20.311,0,0,0,.446,3.2c.49.484,2.649.75,4.41.7a.693.693,0,0,1,.713.536l2.538,9.854a2.636,2.636,0,0,1-.357,2.372Zm.308-3.191h0Zm0,0h0Zm0,0h0Zm-6.277-12.439Zm-2.811-6.265h0Zm14.7-3.993h0Z" transform="translate(-3013.93 -454.166)"/></g></g></g><g transform="translate(257.028 1.328)"><g transform="translate(62.395 55.525)"><g transform="translate(0 0)"><circle cx="19.954" cy="19.954" r="19.954" transform="translate(0 28.219) rotate(-45)"/></g><g transform="translate(6.859 5.414)"><circle class="i" cx="19.362" cy="19.362" r="19.362" transform="translate(0 38.223) rotate(-80.783)"/><path d="M3152.2,379.469a20.076,20.076,0,1,1,20.076-20.076A20.1,20.1,0,0,1,3152.2,379.469Zm0-38.724a18.648,18.648,0,1,0,18.647,18.647A18.669,18.669,0,0,0,3152.2,340.745Z" transform="translate(-3129.982 -337.18)"/></g><circle class="c" cx="16.248" cy="16.248" r="16.248" transform="translate(9.526 39.708) rotate(-76.717)"/></g><g transform="translate(0 0)"><g transform="translate(3.883 6.141)"><circle cx="31.178" cy="31.178" r="31.178"/></g><circle class="i" cx="30.252" cy="30.252" r="30.252" transform="translate(0 58.886) rotate(-76.717)"/><path d="M3024.532,280.163A30.966,30.966,0,1,1,3055.5,249.2,31,31,0,0,1,3024.532,280.163Zm0-60.5A29.538,29.538,0,1,0,3054.07,249.2,29.572,29.572,0,0,0,3024.532,219.658Z" transform="translate(-2988.139 -212.803)"/><circle class="c" cx="25.388" cy="25.388" r="25.388" transform="translate(5.852 55.269) rotate(-76.717)"/></g></g><g transform="translate(0 0)"><g transform="translate(320.283 263.66)"><path d="M3148.448,811.419a.714.714,0,0,1-.4-1.309c23.166-15.385,30.042-51.2,30.109-51.556a.714.714,0,0,1,1.4.26c-.068.366-7.058,36.77-30.722,52.486A.714.714,0,0,1,3148.448,811.419Z" transform="translate(-3132.163 -757.97)"/><g transform="translate(0 53.452)"><path d="M3128.324,874.179a.668.668,0,0,1-.1-.007.714.714,0,0,1-.612-.8l.337-2.508a.714.714,0,0,1,1.415.19l-.337,2.508A.714.714,0,0,1,3128.324,874.179Z" transform="translate(-3121.62 -870.241)"/><path d="M3125.848,892.614a.739.739,0,0,1-.1-.006.715.715,0,0,1-.613-.8l.337-2.508a.707.707,0,0,1,.8-.612.715.715,0,0,1,.612.8l-.337,2.508A.714.714,0,0,1,3125.848,892.614Z" transform="translate(-3120.322 -879.899)"/><path d="M3136.412,884.621c-.029,0-.058,0-.087,0l-2.475-.3a.714.714,0,1,1,.173-1.418l2.475.3a.714.714,0,0,1-.086,1.423Z" transform="translate(-3124.56 -876.869)"/><path d="M3118.219,882.4a.766.766,0,0,1-.087-.005l-2.475-.3a.714.714,0,1,1,.173-1.418l2.475.3a.714.714,0,0,1-.086,1.423Z" transform="translate(-3115.029 -875.704)"/></g></g><g transform="translate(248.763 89.621)"><path d="M2986.045,405.958h-.035l-2.527-.124a.713.713,0,0,1-.678-.748.722.722,0,0,1,.748-.678l2.527.124a.714.714,0,0,1-.034,1.427Z" transform="translate(-2973.959 -398.652)"/><path d="M2967.466,405.048h-.035l-2.527-.124a.714.714,0,0,1,.07-1.426l2.527.124a.714.714,0,0,1-.034,1.427Z" transform="translate(-2964.225 -398.175)"/><path d="M2977.281,396.237h-.043a.714.714,0,0,1-.67-.756l.152-2.489a.723.723,0,0,1,.756-.67.714.714,0,0,1,.67.756l-.151,2.489A.715.715,0,0,1,2977.281,396.237Z" transform="translate(-2970.691 -392.32)"/><path d="M2976.166,414.531h-.044a.714.714,0,0,1-.669-.756l.151-2.489a.714.714,0,0,1,1.426.087l-.152,2.489A.714.714,0,0,1,2976.166,414.531Z" transform="translate(-2970.106 -401.905)"/></g><path d="M2443.926,817.965a3.5,3.5,0,1,1,1.143-.194A3.465,3.465,0,0,1,2443.926,817.965Zm.005-5.542a2.059,2.059,0,0,0-.674.114h0a2.042,2.042,0,1,0,.675-.114Zm-.909-.561h0Z" transform="translate(-2440.443 -522.089)"/><g transform="translate(319.247)"><path d="M3171.726,257.884a.713.713,0,0,1-.6-.327,137.076,137.076,0,0,0-33.15-35.408.714.714,0,0,1,.857-1.143,138.522,138.522,0,0,1,33.494,35.778.714.714,0,0,1-.6,1.1Z" transform="translate(-3125.865 -212.854)"/><path d="M3119.22,209.091a.716.716,0,0,1-.4-.121c-1.837-1.236-3.73-2.449-5.625-3.6a.714.714,0,0,1,.743-1.22c1.914,1.167,3.825,2.391,5.68,3.639a.714.714,0,0,1-.4,1.306Z" transform="translate(-3112.854 -204.041)"/><path d="M3157.766,265.859a.712.712,0,0,1-.564-.276,126.219,126.219,0,0,0-23.181-22.883.714.714,0,1,1,.865-1.136,127.607,127.607,0,0,1,23.443,23.142.715.715,0,0,1-.563,1.153Z" transform="translate(-3123.795 -223.623)"/><path d="M3216.448,317.029a4.367,4.367,0,0,1-1.433-8.493h0a4.366,4.366,0,1,1,1.433,8.493Zm-.966-7.143a2.939,2.939,0,1,0,2.245.134A2.92,2.92,0,0,0,3215.483,309.886Z" transform="translate(-3164.836 -258.659)"/></g></g></g><text class="j" transform="translate(1259.273 659.511)"><tspan x="0" y="0">Order Value</tspan></text><text class="k" transform="translate(1465.819 561.535)"><tspan x="0" y="0">`</tspan></text><text class="l" transform="translate(1524.616 600.522)"><tspan x="0" y="0">`</tspan></text></g></g></svg>