<svg xmlns="http://www.w3.org/2000/svg" width="40.437" height="30.464" viewBox="0 0 40.437 30.464"><g transform="translate(-228.651 -249.538)"><path d="M249.008,268.02a1.187,1.187,0,0,1-.457-.091l-19.157-7.888a1.2,1.2,0,0,1-.015-2.213l19.156-8.193a1.2,1.2,0,0,1,.949,0l18.881,8.193a1.2,1.2,0,0,1-.014,2.208l-18.881,7.888A1.2,1.2,0,0,1,249.008,268.02Zm-16.056-9.109L249,265.521l15.821-6.61L249,252.045Z"/><path d="M249.351,274.16a1.214,1.214,0,0,1-.455-.09l-19.5-8a1.2,1.2,0,1,1,.911-2.221l19.032,7.809,18.035-7.8a1.2,1.2,0,0,1,.953,2.2l-18.5,8A1.212,1.212,0,0,1,249.351,274.16Z"/><path d="M249.351,280a1.2,1.2,0,0,1-.455-.09l-19.5-8a1.2,1.2,0,1,1,.911-2.22l19.032,7.808,18.035-7.8a1.2,1.2,0,0,1,.953,2.2l-18.5,8A1.211,1.211,0,0,1,249.351,280Z"/></g></svg>