<svg xmlns="http://www.w3.org/2000/svg" width="29.995" height="37.001" viewBox="0 0 29.995 37.001"><g transform="translate(-243.057 -242.075)"><path d="M261,262.755a7.368,7.368,0,0,0,.634-.481,7.523,7.523,0,0,0,1.189-1.341,1,1,0,0,0,.061-1.04l-.879-1.649,0,0a.6.6,0,0,1-.05-.437c.005-.018.009-.036.013-.055a.6.6,0,0,1,.251-.319l1.58-.985a1,1,0,0,0,.467-.937,7.518,7.518,0,0,0-.372-1.757c-.078-.225-.172-.436-.294-.7a1,1,0,0,0-.883-.585l-1.865-.052a.6.6,0,0,1-.411-.187.579.579,0,0,1-.172-.388l-.064-1.867a1,1,0,0,0-.588-.877,7.912,7.912,0,0,0-2.458-.659,1,1,0,0,0-.953.472l-.975,1.588a.576.576,0,0,1-.3.244l-.058.014a.594.594,0,0,1-.43-.045l-1.649-.87a1,1,0,0,0-1.038.063c-.21.147-.414.3-.619.48a7.471,7.471,0,0,0-1.19,1.338,1,1,0,0,0-.06,1.043l.881,1.641a.593.593,0,0,1,.049.435c0,.019-.009.038-.014.059a.589.589,0,0,1-.25.317l-1.58.988a1,1,0,0,0-.467.937,7.59,7.59,0,0,0,.373,1.759c.08.227.176.443.294.7a1,1,0,0,0,.882.585l1.865.052a.588.588,0,0,1,.41.187.572.572,0,0,1,.173.388l.064,1.867a1,1,0,0,0,.592.879,7.916,7.916,0,0,0,2.453.649c.034,0,.067.005.1.005a1,1,0,0,0,.852-.476l.975-1.589a.581.581,0,0,1,.3-.243l.057-.015a.594.594,0,0,1,.431.048l1.647.876A1,1,0,0,0,261,262.755Zm-3.561-2.818-.081.018a2.568,2.568,0,0,0-1.53,1.143l-.629,1.024a5.793,5.793,0,0,1-.661-.175l-.042-1.209a2.617,2.617,0,0,0-2.524-2.505l-1.223-.033a5.787,5.787,0,0,1-.17-.649l1.027-.642a2.574,2.574,0,0,0,1.139-1.549c.006-.023.011-.046.016-.071a2.578,2.578,0,0,0-.237-1.834l-.573-1.068a5.271,5.271,0,0,1,.474-.482l1.082.571a2.583,2.583,0,0,0,1.812.224c.03,0,.059-.012.087-.019a2.564,2.564,0,0,0,1.528-1.143l.628-1.022a5.813,5.813,0,0,1,.665.178l.042,1.213a2.619,2.619,0,0,0,2.524,2.5l1.223.034a5.509,5.509,0,0,1,.17.648l-1.028.641a2.592,2.592,0,0,0-1.139,1.548c-.005.023-.01.048-.015.074a2.58,2.58,0,0,0,.236,1.829l.574,1.079a5.454,5.454,0,0,1-.467.48l-1.084-.577A2.59,2.59,0,0,0,257.443,259.937Z"/><path d="M257.874,254.012a2.727,2.727,0,0,0-3.781.756,2.728,2.728,0,0,0,2.262,4.241,2.675,2.675,0,0,0,.541-.054,2.726,2.726,0,0,0,.978-4.943Zm-.907,2.672a.725.725,0,0,1-1.009.2.728.728,0,0,1-.2-1.008.717.717,0,0,1,.463-.31.771.771,0,0,1,.143-.014.719.719,0,0,1,.4.122.725.725,0,0,1,.2,1.008Z"/><path d="M272.539,261.083l-3.377-4.673v-.622A13.287,13.287,0,0,0,254.7,242.127a12.543,12.543,0,0,0-10.511,17.708c.455,1.011.9,1.883,1.337,2.726,2.005,3.894,3.329,6.467.417,15.2a1,1,0,1,0,1.9.633c3.179-9.53,1.621-12.557-.535-16.746-.423-.82-.859-1.668-1.295-2.636a10.542,10.542,0,0,1,8.851-14.889,11.376,11.376,0,0,1,2.03,0,11.522,11.522,0,0,1,10.274,11.656v.958a1,1,0,0,0,.19.586l3.565,4.935a.7.7,0,0,1-.159.985.655.655,0,0,1-.18.093l-2.744.954a1,1,0,0,0-.672.944v2.557a2.411,2.411,0,0,1-2.412,2.408c-.073,0-.149,0-.22-.01l-2.217-.2a2.729,2.729,0,0,0-2.938,2.446,2.669,2.669,0,0,0,.064.887l1.211,4.987a1,1,0,0,0,1.944-.473l-1.212-4.99a.661.661,0,0,1-.016-.227.709.709,0,0,1,.768-.638l2.221.2a4.439,4.439,0,0,0,4.807-4.39v-1.846l2.069-.719a2.7,2.7,0,0,0,1.308-4.139Z"/></g></svg>