<svg xmlns="http://www.w3.org/2000/svg" width="43" height="42" viewBox="0 0 43 42"><path d="M591.831,94.531l-4.342-7.46-.006-.009a.9.9,0,0,0-.079-.112.871.871,0,0,0-.091-.092l-.014-.013a.873.873,0,0,0-.107-.077l-.01-.006-.052-.029-4.871-2.449V74.057a.829.829,0,0,0-.031-.226.815.815,0,0,0,.031-.222.855.855,0,0,0-.562-.8l-10.947-4.03a.882.882,0,0,0-.609,0l-10.946,4.03-.009-.009-.27.152.009.015c-.018.016-.036.033-.055.052l-.013.014a.893.893,0,0,0-.063.076l-.01.014a.835.835,0,0,0-.06.1l-.009.018a.84.84,0,0,0-.071.224l0,.022a.812.812,0,0,0-.009.117V84.283l-4.872,2.449-.051.029-.015.008a.872.872,0,0,0-.1.076l-.012.011a.844.844,0,0,0-.074.074l-.016-.007-4.428,7.607a.842.842,0,0,0-.047.75.868.868,0,0,0,.576.494l3.7.969v8.87a.855.855,0,0,0,.643.822l16.291,4.264.043.009.017,0,.034.006a.822.822,0,0,0,.258,0l.035-.007.013,0,.045-.009,16.29-4.264a.855.855,0,0,0,.643-.822v-8.87l3.7-.969a.867.867,0,0,0,.576-.494A.842.842,0,0,0,591.831,94.531Zm-35.275-7.292,2.075-1.043v1.586Zm12.578,5.053-3.455,5.935-14.558-3.811,3.455-5.935ZM555.021,97.2l10.856,2.842a.872.872,0,0,0,.129.023l.037,0h.017a.358.358,0,0,0,.076,0l.047,0c.029,0,.058-.007.087-.013h.007l.034-.007a.859.859,0,0,0,.131-.043l0,0a.873.873,0,0,0,.1-.05l.029-.019.008-.005c.024-.016.047-.032.069-.051l.035-.03a.875.875,0,0,0,.062-.063l.017.008L569.26,95.5h.318v13.266l-14.557-3.811Zm16.29-1.692h.318l2.407,4.134a.812.812,0,0,0,.075.107l.022.025.006.007c.02.022.04.043.063.063l.034.029a.848.848,0,0,0,.07.051l.01.006.026.017a.839.839,0,0,0,.1.051l.014.006a.863.863,0,0,0,.122.039l.031.006.009,0c.029.006.057.01.088.013l.046,0a.458.458,0,0,0,.078,0h.016l.036,0a.87.87,0,0,0,.13-.023L585.868,97.2v7.763l-14.557,3.811Zm18.457-1.089L575.21,98.226l-3.455-5.935,14.558-3.811Zm-5.435-7.177-2.075.543V86.195Zm-13.888,1.1a.86.86,0,0,0,.867-.851V78.229l9.214-3.392v13.4l-10.08,2.639-10.08-2.639v-13.4l9.214,3.392V87.49A.86.86,0,0,0,570.445,88.341Zm0-11.61-8.479-3.121,8.479-3.121,8.479,3.121Z" transform="translate(-548.945 -68.729)"/></svg>