<svg xmlns="http://www.w3.org/2000/svg" width="36.197" height="36.196" viewBox="0 0 36.197 36.196"><g transform="translate(-230.771 -246.672)"><path d="M244.426,268.213c-.029,0-2.942-.462-4.292-1.811l-1.579-1.578a2.905,2.905,0,0,0-1.959-.853v-5.528a2.918,2.918,0,0,0-2.912-2.859h-.056a2.9,2.9,0,0,0-2.857,2.86v9.55a9.194,9.194,0,0,0,5.107,8.267l.037.018.006,0,3.293,1.645v4.145a.8.8,0,0,0,.8.8h7.453a.8.8,0,0,0,.8-.8v-9.6A4.246,4.246,0,0,0,244.426,268.213Zm-4.05,8.5-3.774-1.886A7.545,7.545,0,0,1,232.383,268v-9.553a1.307,1.307,0,1,1,2.613,0v5.943a2.911,2.911,0,0,0-.553,4.551l3.6,3.6a.8.8,0,0,0,1.135-1.134l-3.6-3.6a1.306,1.306,0,1,1,1.846-1.847l1.582,1.58c1.574,1.574,4.877,2.206,5.261,2.274a2.651,2.651,0,0,1,2.4,2.657v8.8h-5.848v-3.836A.808.808,0,0,0,240.376,276.712Z"/><path d="M240.43,264.171h16.881a.8.8,0,0,0,.8-.8v-15.9a.8.8,0,0,0-.8-.8H240.436a.8.8,0,0,0-.8.8v15.893a.8.8,0,0,0,.795.806Zm5.621-10.266h.007a.8.8,0,0,0,.364-.088l2.426-1.226,2.481,1.228a.8.8,0,0,0,1.073-.355.774.774,0,0,0,.086-.364v-4.822h4.02v14.285H241.242l0-14.282h4.018V253.1A.8.8,0,0,0,246.051,253.9Zm4.831-2.094-1.68-.828a.8.8,0,0,0-.72,0l-1.618.817v-3.519h4.018Z"/><circle cx="0.6" cy="0.6" r="0.6" transform="translate(262.777 273.672)"/><path d="M264.063,255.532a2.919,2.919,0,0,0-2.911,2.912v5.526a2.917,2.917,0,0,0-1.959.852l-1.575,1.571a8.848,8.848,0,0,1-4.249,1.814l-.046.005a4.247,4.247,0,0,0-3.844,4.255v9.6a.8.8,0,0,0,.8.8h7.452a.8.8,0,0,0,.8-.8v-4.145l2.245-1.121a.8.8,0,1,0-.718-1.438l-2.69,1.345a.8.8,0,0,0-.444.719v3.838h-5.848v-8.8a2.652,2.652,0,0,1,2.411-2.658l.05-.006a10.427,10.427,0,0,0,5.2-2.267l1.58-1.58a1.3,1.3,0,0,1,2.151,1.361,1.322,1.322,0,0,1-.306.486l-3.6,3.6a.8.8,0,0,0,1.135,1.134l3.6-3.6a2.915,2.915,0,0,0,0-4.117,2.877,2.877,0,0,0-.554-.434v-5.943a1.307,1.307,0,0,1,2.614,0v9.551a7.688,7.688,0,0,1-.927,3.645.8.8,0,0,0,1.411.768,9.308,9.308,0,0,0,1.121-4.413v-9.551A2.92,2.92,0,0,0,264.063,255.532Z"/></g></svg>