<svg xmlns="http://www.w3.org/2000/svg" width="45.199" height="37.204" viewBox="0 0 45.199 37.204"><defs><style>.a{fill:none;}</style></defs><g transform="translate(-214 -1727)"><g transform="translate(-12.27 1480.833)"><path class="a" d="M262.27,266.622a7.545,7.545,0,1,0,7.545,7.545A7.545,7.545,0,0,0,262.27,266.622Z"/><path d="M265.564,273.388l-.081,0,0,.008c-.416.009-2.724.009-6.442,0h-.168a.781.781,0,0,0-.75.809.773.773,0,0,0,.726.747c.028.008.028.008,2.451,0,1.624,0,3.808-.013,4.192,0l0,.007.071,0a.777.777,0,0,0,.75-.809A.784.784,0,0,0,265.564,273.388Z"/><path d="M264.038,265.148V254.295a.786.786,0,0,0,0-.217v-.067l-.006-.036a.842.842,0,0,0-.08-.154l-.165-.191-.058-.049-18.194-7.347a.933.933,0,0,0-.7,0l-17.964,7.152-.172.059-.2.186-.054.073a.925.925,0,0,0-.075.147l-.006.019v.072a.838.838,0,0,0,0,.218l-.1,20.625a.914.914,0,0,0,.575.845l17.987,7.379a.809.809,0,0,0,.321.066.825.825,0,0,0,.32-.065l9.139-3.75a9.2,9.2,0,1,0,9.426-14.112ZM245.178,248.1l6.553,2.6-15.249,6.373-6.825-2.809Zm-.955,32.691-16.1-6.626V255.627l6.2,2.535,9.894,4.076Zm.963-20.114-6.295-2.607,15.272-6.4,6.528,2.6-9.671,4.006Zm8.571,16.972-7.651,3.143V262.238l16.092-6.626.019,9.364a9.186,9.186,0,0,0-8.46,12.672Zm8.513,3.969a7.57,7.57,0,1,1,7.57-7.571A7.571,7.571,0,0,1,262.27,281.617Z"/></g></g></svg>