<svg xmlns="http://www.w3.org/2000/svg" width="56.507" height="65.949" viewBox="0 0 56.507 65.949"><defs><style>.removal-request_a{fill:none;stroke:#6f57e9;stroke-linecap:round;stroke-linejoin:round;stroke-width:3px;}</style></defs><g transform="translate(-57.534 -15.433)"><g transform="translate(59.034 39.601)"><line class="removal-request_a" x2="8.118" transform="translate(5.224 34.649)"/><line class="removal-request_a" x2="5.228" transform="translate(5.224 30.522)"/><g transform="translate(0 0.207)"><path class="removal-request_a" d="M102.92,265.884v20.41H59.034V255.481" transform="translate(-59.034 -246.22)"/><path class="removal-request_a" d="M191.958,188.168l2.784,9.261v11.516h-9.026V197.429l2.833-9.261" transform="translate(-168.286 -188.168)"/></g><path class="removal-request_a" d="M100.284,193.994l-9.03-7.329H70.7l-11.666,9.468H88.756" transform="translate(-59.034 -186.665)"/></g><path class="removal-request_a" d="M210.844,56.628a18.8,18.8,0,1,0-5.2-36.871,18.613,18.613,0,0,0-4.481,2.437l-4.112-5.261-2.632,15.65H209.2l-3.831-5.448,2.125-.945a12.108,12.108,0,1,1,3.346,23.746" transform="translate(-117.102)"/></g></svg>