<svg xmlns="http://www.w3.org/2000/svg" width="36.591" height="36.6" viewBox="0 0 36.591 36.6"><g transform="translate(-239.463 -242.275)"><path d="M275.8,249.141l-6.608-6.608a.919.919,0,0,0-.634-.258h-15a2.113,2.113,0,0,0-2.1,2.1v3.347a12.884,12.884,0,0,0,0,25.706v3.348a2.113,2.113,0,0,0,2.1,2.1h20.4a2.111,2.111,0,0,0,2.1-2.1v-27A.913.913,0,0,0,275.8,249.141Zm-31.9,18.61a11.08,11.08,0,0,1,7.549-18.236V260.2Zm19.514-6.276a11.081,11.081,0,0,1-18.24,7.547l7.547-7.547Zm-10.161,11.953a12.9,12.9,0,0,0,12-12.852.9.9,0,0,0-.9-.9h-11.1v-15.3a.3.3,0,0,1,.3-.3h14.1v4.5a2.111,2.111,0,0,0,2.1,2.1h4.5v26.1a.3.3,0,0,1-.3.3h-20.4a.3.3,0,0,1-.3-.3Zm16.2-24.853v-3.23l3.529,3.53h-3.229A.3.3,0,0,1,269.454,248.575Z"/><path d="M267.76,258.524a13.223,13.223,0,0,0-13.181-13.182.914.914,0,0,0-.913.913v12.269a.913.913,0,0,0,.913.913h12.269A.913.913,0,0,0,267.76,258.524Zm-1.865-.913h-10.4v-10.4A11.344,11.344,0,0,1,265.895,257.611Z"/></g></svg>