<?xml version="1.0" encoding="utf-8"?>
<!-- Generator: Adobe Illustrator 16.0.0, SVG Export Plug-In . SVG Version: 6.00 Build 0)  -->
<!DOCTYPE svg PUBLIC "-//W3C//DTD SVG 1.1//EN" "http://www.w3.org/Graphics/SVG/1.1/DTD/svg11.dtd">
<svg version="1.1" id="Layer_1" xmlns="http://www.w3.org/2000/svg" xmlns:xlink="http://www.w3.org/1999/xlink" x="0px" y="0px"
	 width="138px" height="138px" viewBox="0 0 138 138" enable-background="new 0 0 138 138" xml:space="preserve">
<g id="Group_1389" transform="translate(-3044 -1238)">
	<g id="Path_4942">
		<path fill="none" d="M3066.827,1258.887h138v138h-138V1258.887z"/>
	</g>
	<g id="Group_1386">
		<g id="Path_4928">
			<path fill="#7D91AC" d="M3109.793,1311.201c-17.542-0.021-32.227-13.308-34-30.761l0,0
				c-1.872-18.768,11.824-35.499,30.591-37.371c18.768-1.873,35.5,11.824,37.372,30.591s-11.823,35.5-30.592,37.373
				C3112.044,1311.145,3110.919,1311.201,3109.793,1311.201z M3079.793,1280.041c1.647,16.581,16.423,28.688,33.004,27.041
				c16.581-1.647,28.688-16.424,27.04-33.005c-1.646-16.581-16.422-28.688-33.003-27.041c-0.014,0.001-0.027,0.002-0.041,0.005
				C3090.23,1248.709,3078.148,1263.476,3079.793,1280.041z"/>
			<path fill="#7D91AC" d="M3109.793,1311.701L3109.793,1311.701c-17.861-0.021-32.692-13.44-34.498-31.21
				c-1.896-19.013,12.028-36.022,31.039-37.919c1.156-0.114,2.327-0.174,3.48-0.174c17.858,0,32.663,13.419,34.438,31.213
				c1.896,19.011-12.027,36.023-31.039,37.918C3112.076,1311.643,3110.925,1311.701,3109.793,1311.701z M3109.816,1243.398
				c-1.123,0-2.26,0.058-3.383,0.169c-18.463,1.842-31.985,18.361-30.144,36.824c1.753,17.257,16.157,30.288,33.503,30.31
				c1.099,0,2.216-0.055,3.32-0.164c18.462-1.844,31.985-18.362,30.145-36.825
				C3141.534,1256.43,3127.157,1243.398,3109.816,1243.398z M3109.781,1307.73c0,0-0.001,0-0.002,0
				c-15.813,0-28.919-11.883-30.484-27.641c-1.669-16.807,10.645-31.855,27.447-33.547c1.061-0.105,2.092-0.156,3.109-0.156
				c15.813,0,28.917,11.883,30.481,27.641c0.811,8.152-1.604,16.131-6.795,22.468c-5.191,6.338-12.54,10.272-20.693,11.083
				C3111.828,1307.68,3110.797,1307.73,3109.781,1307.73z M3109.852,1247.387c-0.984,0-1.982,0.05-2.969,0.146
				c-16.295,1.642-28.207,16.199-26.592,32.457c1.514,15.243,14.191,26.74,29.489,26.74c0.001,0,0.001,0,0.002,0
				c0.982,0,1.98-0.049,2.966-0.146c7.886-0.784,14.996-4.591,20.019-10.723c5.021-6.131,7.356-13.85,6.573-21.735
				C3137.825,1258.883,3125.147,1247.387,3109.852,1247.387z"/>
		</g>
		<g id="Path_4932">
			<path fill="#7D91AC" d="M3138.002,1356.48c-3.89,0-8.84-1.42-13.69-2.818c-2.491-0.824-5.052-1.43-7.648-1.811
				c-8.269-0.289-16.543,0.322-24.68,1.82c-1.088,0.189-2.125-0.535-2.317-1.623c-0.185-1.053,0.487-2.063,1.527-2.297
				c8.46-1.582,17.069-2.221,25.67-1.9c2.908,0.389,5.771,1.059,8.55,2c4.87,1.4,13.94,4,15.489,1.84
				c1.348-1.75,1.695-4.072,0.921-6.141c-1.439-3.779-6.352-6.789-13.83-8.48c-4.22-0.967-8.505-1.617-12.82-1.949
				c-2.63-0.25-5.61-0.529-9.63-1.07c-1.43-0.189-3-1.068-5.31-2.408c-8.419-5.014-17.72-8.371-27.4-9.891
				c-14.27-2.461-20.32,0.16-20.37,0.189c-0.985,0.498-2.188,0.105-2.688-0.881c-0.499-0.984-0.105-2.188,0.88-2.688
				c0.029-0.016,0.058-0.027,0.088-0.041c0.28-0.131,7-3.23,22.77-0.521c10.136,1.594,19.874,5.111,28.69,10.361
				c1.209,0.789,2.509,1.434,3.87,1.92c3.939,0.527,6.89,0.799,9.479,1c4.486,0.338,8.941,1.008,13.33,2
				c11.32,2.559,15.32,7.379,16.68,11c1.25,3.318,0.723,7.047-1.398,9.889C3142.853,1355.852,3140.672,1356.48,3138.002,1356.48z"/>
			<path fill="#7D91AC" d="M3138.002,1357.23c-4.024,0-9.044-1.447-13.897-2.848c-2.471-0.816-5.002-1.416-7.551-1.789
				c-1.23-0.039-2.563-0.063-3.878-0.063c-6.874,0-13.791,0.633-20.558,1.877c-1.575,0.277-2.931-0.758-3.191-2.23
				c-0.254-1.445,0.667-2.832,2.101-3.158c8.521-1.594,17.236-2.24,25.864-1.918c3.021,0.4,5.943,1.084,8.763,2.039
				c3.396,0.977,9.137,2.627,12.523,2.627c1.577,0,2.005-0.359,2.115-0.514c1.213-1.576,1.517-3.604,0.828-5.441
				c-1.347-3.531-6.067-6.377-13.293-8.01c-4.169-0.955-8.445-1.605-12.713-1.934l-0.202-0.021c-2.593-0.246-5.531-0.525-9.47-1.055
				c-1.566-0.207-3.144-1.086-5.586-2.504c-8.383-4.992-17.512-8.287-27.14-9.799c-4.02-0.691-7.751-1.043-11.1-1.043
				c-6.123,0-8.812,1.16-8.838,1.172c-0.361,0.184-0.79,0.285-1.218,0.287c-1.043,0-1.983-0.578-2.455-1.508
				c-0.686-1.352-0.143-3.01,1.21-3.697l0.133-0.061c0.348-0.164,3.82-1.689,11.172-1.689c3.657,0,7.701,0.377,12.02,1.119
				c10.266,1.613,20.009,5.133,28.947,10.455c1.162,0.758,2.387,1.369,3.664,1.832c4.069,0.545,7.014,0.803,9.358,0.984
				c4.503,0.34,9.023,1.018,13.438,2.016c11.661,2.637,15.8,7.691,17.218,11.469c1.346,3.576,0.784,7.539-1.5,10.602
				C3143.448,1356.309,3141.231,1357.23,3138.002,1357.23z M3112.675,1351.031c1.333,0,2.682,0.023,4.014,0.07
				c2.718,0.395,5.334,1.014,7.857,1.848c4.727,1.363,9.643,2.781,13.455,2.781c2.742,0,4.504-0.691,5.546-2.18
				c1.991-2.67,2.478-6.102,1.312-9.195c-1.287-3.432-5.135-8.043-16.143-10.533c-4.342-0.98-8.79-1.646-13.222-1.982
				c-2.383-0.186-5.376-0.447-9.523-1.004l-0.152-0.037c-1.416-0.504-2.771-1.178-4.027-1.998
				c-8.747-5.209-18.311-8.662-28.396-10.248c-4.245-0.729-8.203-1.1-11.774-1.1c-7.148,0-10.425,1.494-10.562,1.559
				c-0.681,0.342-0.928,1.098-0.617,1.711c0.303,0.598,1.075,0.855,1.68,0.551c0.001-0.002,2.828-1.324,9.493-1.324
				c3.435,0,7.251,0.357,11.344,1.064c9.806,1.539,19.115,4.898,27.656,9.984c2.283,1.322,3.766,2.143,5.024,2.311
				c3.911,0.525,6.834,0.803,9.414,1.049l0.188,0.018c4.327,0.334,8.679,0.994,12.918,1.967c7.729,1.746,12.83,4.924,14.362,8.941
				c0.873,2.332,0.488,4.898-1.028,6.867c-0.533,0.744-1.623,1.117-3.317,1.117c-3.6,0-9.466-1.688-12.972-2.695
				c-2.762-0.934-5.591-1.596-8.442-1.977c-1.346-0.047-2.783-0.072-4.201-0.072c-7.104,0-14.247,0.66-21.231,1.967
				c-0.623,0.143-1.042,0.771-0.926,1.43c0.118,0.67,0.753,1.133,1.448,1.016C3098.703,1351.672,3105.71,1351.031,3112.675,1351.031
				z"/>
		</g>
		<g id="Path_4933">
			<path fill="#7D91AC" d="M3109.782,1370.852c-11.39,0-57.65-23.621-59.62-24.621c-0.968-0.531-1.322-1.746-0.791-2.715
				c0.51-0.928,1.654-1.299,2.61-0.844c13.14,6.719,49.09,24.18,57.8,24.18c11.72,0,58.89-33.16,61.64-39.551
				c0.288-0.51,0.421-1.094,0.38-1.68c-0.25-0.23-2.38-0.74-8,1.42c-3.188,1.23-6.213,2.855-9,4.84c-3,1.939-7,4.6-14.57,8.67
				c-0.972,0.525-2.185,0.162-2.709-0.811s-0.162-2.186,0.811-2.711c7.39-4,11.37-6.59,14.271-8.5
				c3.019-2.139,6.289-3.895,9.739-5.229c6.171-2.379,10.32-2.521,12.33-0.439c0.94,1,1.771,2.811,0.399,6
				C3171.792,1336.561,3122.992,1370.852,3109.782,1370.852z"/>
			<path fill="#7D91AC" d="M3109.782,1371.602c-10.834,0-51.738-20.521-59.828-24.635l-0.132-0.066
				c-1.352-0.742-1.838-2.418-1.108-3.746c0.681-1.238,2.306-1.771,3.589-1.16c13.126,6.713,48.998,24.107,57.479,24.107
				c11.585,0,58.232-32.781,60.951-39.098c0.156-0.283,0.254-0.561,0.298-0.832c-0.125-0.014-0.282-0.023-0.476-0.023
				c-0.875,0-2.883,0.207-6.484,1.592c-3.131,1.209-6.104,2.809-8.835,4.752l-0.699,0.453c-2.913,1.891-6.904,4.479-13.95,8.266
				c-0.398,0.217-0.851,0.332-1.304,0.332c-1.013,0-1.94-0.555-2.421-1.445c-0.35-0.645-0.426-1.389-0.215-2.094
				c0.21-0.703,0.682-1.283,1.328-1.633c7.041-3.811,10.883-6.271,14.215-8.467c3.044-2.158,6.375-3.947,9.881-5.303
				c6.492-2.504,10.9-2.58,13.14-0.262c1.095,1.162,2.069,3.281,0.552,6.816C3172.453,1336.922,3123.166,1371.602,3109.782,1371.602
				z M3051.125,1343.229c-0.457,0-0.877,0.248-1.097,0.648c-0.332,0.604-0.109,1.363,0.495,1.695l0.111,0.057
				c4.926,2.506,48.434,24.473,59.148,24.473c13.105,0,61.362-33.934,64.6-41.535c0.963-2.24,0.877-3.986-0.256-5.191
				c-1.746-1.807-5.749-1.6-11.515,0.627c-3.389,1.309-6.61,3.039-9.575,5.141c-3.38,2.229-7.253,4.709-14.347,8.549
				c-0.295,0.158-0.51,0.422-0.604,0.742c-0.096,0.32-0.062,0.658,0.099,0.951c0.318,0.59,1.101,0.83,1.692,0.506
				c6.992-3.758,10.953-6.328,13.847-8.203l0.673-0.436c2.806-1.996,5.889-3.654,9.137-4.91c3.639-1.398,5.829-1.691,7.025-1.691
				c0.591,0,1.375,0.072,1.752,0.418l0.221,0.203l0.021,0.297c0.052,0.734-0.113,1.461-0.476,2.104
				c-2.745,6.391-50.448,39.932-62.293,39.932c-10.576,0-57.667-24.021-58.142-24.262
				C3051.491,1343.268,3051.311,1343.229,3051.125,1343.229z"/>
		</g>
		<g id="Path_4934">
			<path fill="#7D91AC" d="M3129.862,1337.422c-1.104-0.021-1.982-0.936-1.961-2.039c0.014-0.771,0.47-1.463,1.171-1.781
				c0.1,0,9.61-4.381,12.148-5.76c1.67-0.91,3.711-2.17,5.87-3.51c3.271-2,7-4.33,10.641-6.16c6.909-3.451,14.061-1.84,17.189,0.09
				c1.148,0.652,1.939,1.793,2.15,3.1c0.379,2.459-1.41,4.67-1.771,5.09c-0.811,0.75-2.076,0.701-2.826-0.109
				c-0.637-0.689-0.709-1.73-0.174-2.5c0.473-0.523,0.771-1.18,0.85-1.881c0,0,0-0.141-0.299-0.311
				c-2.271-1.398-7.891-2.619-13.301,0.09c-3.5,1.75-7.119,4-10.32,6c-2.209,1.371-4.289,2.66-6.068,3.631
				c-2.66,1.439-12,5.711-12.399,5.891C3130.478,1337.383,3130.171,1337.438,3129.862,1337.422z"/>
			<path fill="#7D91AC" d="M3129.971,1337.924l-0.136-0.004c-1.36-0.025-2.46-1.168-2.434-2.547
				c0.017-0.957,0.592-1.832,1.464-2.229l0.114-0.045c0.928-0.389,9.598-4.391,12.004-5.699c1.613-0.879,3.603-2.104,5.845-3.494
				l0.982-0.604c2.998-1.838,6.396-3.92,9.695-5.578c2.757-1.377,5.735-2.074,8.854-2.074c3.306,0,6.604,0.816,8.822,2.186
				c1.272,0.723,2.146,1.98,2.383,3.445c0.399,2.594-1.343,4.861-1.886,5.494c-1.06,0.988-2.674,0.875-3.573-0.096
				c-0.802-0.869-0.892-2.154-0.218-3.125c0.397-0.445,0.64-0.934,0.735-1.459c-0.006-0.002-0.014-0.008-0.021-0.012
				c-1.151-0.709-3.364-1.459-6.166-1.459c-2.354,0-4.596,0.525-6.664,1.563c-3.567,1.783-7.289,4.107-10.278,5.977
				c-2.212,1.373-4.302,2.668-6.095,3.646c-2.739,1.482-12.345,5.865-12.435,5.906
				C3130.646,1337.855,3130.312,1337.924,3129.971,1337.924z M3129.272,1334.043l0.007,0.014c-0.523,0.238-0.868,0.762-0.878,1.336
				c-0.018,0.828,0.644,1.514,1.471,1.529l0.1,0.504v-0.5c0.205,0,0.404-0.041,0.595-0.123c0.082-0.037,9.646-4.402,12.357-5.871
				c1.77-0.963,3.847-2.252,6.044-3.615c3.008-1.879,6.75-4.217,10.36-6.021c2.208-1.105,4.601-1.666,7.111-1.666
				c3.01,0,5.422,0.826,6.676,1.598c0.481,0.275,0.536,0.605,0.536,0.736c-0.094,0.863-0.432,1.609-0.979,2.215
				c-0.364,0.533-0.312,1.305,0.17,1.826c0.543,0.586,1.53,0.627,2.119,0.082c0.297-0.352,1.96-2.422,1.616-4.646
				c-0.188-1.16-0.881-2.16-1.903-2.742c-1.612-0.992-4.631-2.045-8.313-2.045c-2.963,0-5.791,0.662-8.405,1.969
				c-3.261,1.641-6.64,3.711-9.621,5.537l-0.981,0.604c-2.253,1.396-4.253,2.629-5.892,3.521
				C3140.075,1329.033,3130.799,1333.473,3129.272,1334.043z"/>
		</g>
		<g id="Path_4935">
			<path fill="#7D91AC" d="M3120.452,1335.662c-1.104,0.037-2.031-0.826-2.07-1.932c-0.039-1.104,0.826-2.031,1.93-2.068
				c2.484-1.104,4.898-2.354,7.23-3.75c7.66-4.271,13.311-7.291,16.37-7.291c2.46,0,4.17,0.68,5.08,2
				c0.675,1.029,0.815,2.32,0.38,3.471l-3.721-1.48c-0.004,0.031-0.004,0.063,0,0.09c0.011,0.08,0.045,0.152,0.101,0.211
				c-0.56-0.268-1.185-0.373-1.8-0.301c-2.26,0-9.87,4.25-14.42,6.781C3123.731,1334.621,3121.763,1335.662,3120.452,1335.662z"/>
			<path fill="#7D91AC" d="M3120.382,1336.412c-1.488,0-2.697-1.166-2.75-2.654c-0.024-0.734,0.236-1.436,0.738-1.973
				c0.465-0.5,1.085-0.803,1.759-0.863c2.406-1.072,4.771-2.303,7.028-3.652c8.021-4.473,13.511-7.398,16.755-7.398
				c2.718,0,4.635,0.783,5.697,2.324c0.813,1.242,0.983,2.793,0.464,4.162l-0.271,0.713l-4.229-1.682l-0.146,0.199
				c-0.428-0.205-0.909-0.285-1.389-0.23c-2.121,0.004-9.818,4.285-13.956,6.586l-0.187,0.105c-5.825,3.242-7.918,4.363-9.444,4.363
				H3120.382z M3143.912,1321.371c-2.869,0-8.69,3.119-16.005,7.195c-2.328,1.395-4.788,2.67-7.291,3.781l-0.134,0.059l-0.146,0.006
				c-0.333,0.012-0.643,0.152-0.87,0.396c-0.229,0.244-0.348,0.563-0.335,0.895c0.023,0.68,0.573,1.209,1.25,1.209v0.75l0.045-0.752
				c1.142,0,3.186-1.082,8.74-4.176l0.188-0.104c6.414-3.568,12.358-6.771,14.598-6.771c0.16-0.031,0.649-0.029,1.016,0.029
				l0.033-0.346l3.852,1.531c0.08-0.709-0.088-1.436-0.486-2.045C3147.608,1321.934,3146.106,1321.371,3143.912,1321.371z"/>
		</g>
		<g id="rupee_2_" transform="translate(3041.635 1261.643)">
			<g id="Group_1385" transform="translate(56.365)">
				<g id="Path_4940">
					<path fill="#7D91AC" d="M22.808,8.112h-5.201c-0.301-2.857-1.789-5.457-4.1-7.165h9.301c0.564,0.018,1.037-0.427,1.056-0.992
						c0.017-0.565-0.427-1.037-0.992-1.055c-0.021-0.001-0.043-0.001-0.063,0H1.148C0.583-1.119,0.109-0.674,0.093-0.11
						C0.075,0.457,0.52,0.928,1.084,0.947c0.021,0,0.043,0,0.064,0h6.199c4.143-0.001,7.646,3.061,8.2,7.165H1.148
						C0.583,8.093,0.109,8.538,0.093,9.103c-0.018,0.565,0.427,1.038,0.991,1.056c0.021,0,0.043,0,0.064,0h14.399
						c-0.513,4.142-4.026,7.256-8.2,7.267H1.159c-0.574,0.009-1.032,0.48-1.024,1.055c0.006,0.277,0.119,0.542,0.317,0.736
						l15.486,14.649c0.408,0.387,1.055,0.369,1.44-0.041h0.001c0.389-0.418,0.37-1.069-0.041-1.465L3.717,19.473H7.34
						c5.307-0.011,9.741-4.035,10.267-9.314h5.201c0.564,0.018,1.037-0.426,1.056-0.991c0.018-0.565-0.427-1.038-0.991-1.056
						C22.851,8.112,22.828,8.112,22.808,8.112z"/>
					<path fill="#7D91AC" d="M16.64,35.545c-0.623,0-1.213-0.235-1.665-0.664L-0.51,20.234c-0.481-0.472-0.744-1.079-0.756-1.729
						c-0.017-1.349,1.062-2.458,2.404-2.479h6.209c2.905-0.009,5.438-1.844,6.424-4.468H1.041c-0.646-0.02-1.248-0.291-1.691-0.763
						c-0.442-0.472-0.676-1.089-0.656-1.736c0.041-1.314,1.105-2.347,2.423-2.347h12.632c-1.014-2.573-3.531-4.365-6.396-4.365
						H1.041C0.395,2.328-0.207,2.055-0.65,1.584c-0.442-0.472-0.676-1.089-0.656-1.736C-1.266-1.469-0.202-2.5,1.115-2.5
						l21.819,0.002c0.627,0.019,1.229,0.291,1.672,0.762c0.442,0.473,0.677,1.088,0.656,1.735c-0.041,1.317-1.104,2.349-2.423,2.349
						h-6c0.942,1.298,1.612,2.785,1.957,4.365h4.118c1.335,0.042,2.389,1.163,2.348,2.499c-0.041,1.317-1.104,2.348-2.423,2.348l0,0
						h-4.034c-1.123,5.381-5.847,9.305-11.463,9.315H7.234l11.067,10.47c0.965,0.925,1.008,2.462,0.104,3.434
						C17.944,35.267,17.304,35.545,16.64,35.545z"/>
				</g>
			</g>
		</g>
	</g>
</g>
</svg>
