<svg xmlns="http://www.w3.org/2000/svg" width="37.2" height="37.2" viewBox="0 0 37.2 37.2"><g transform="translate(-239.152 -241.975)"><path d="M273.855,256.071l-2.448-.313a14.454,14.454,0,0,0-.6-1.442l1.506-1.942a2.827,2.827,0,0,0-.229-3.765l-2.359-2.358a2.83,2.83,0,0,0-3.773-.243l-1.944,1.511a14.772,14.772,0,0,0-1.444-.6l-.31-2.437a2.849,2.849,0,0,0-2.825-2.509h-3.36a2.847,2.847,0,0,0-2.825,2.5l-.31,2.447a14.865,14.865,0,0,0-1.443.593l-1.942-1.51a2.831,2.831,0,0,0-3.763.23l-2.357,2.359a2.829,2.829,0,0,0-.246,3.775l1.51,1.945a14.415,14.415,0,0,0-.6,1.441l-2.438.311a2.848,2.848,0,0,0-2.509,2.824v3.361a2.85,2.85,0,0,0,2.5,2.825l2.447.313a14.606,14.606,0,0,0,.594,1.442l-1.509,1.941a2.829,2.829,0,0,0,.23,3.766l2.359,2.358a2.837,2.837,0,0,0,3.774.242l1.944-1.512a14.647,14.647,0,0,0,1.442.6l.31,2.437a2.852,2.852,0,0,0,2.825,2.509h3.361a2.851,2.851,0,0,0,2.824-2.5l.312-2.448a14.08,14.08,0,0,0,1.442-.6l1.941,1.509a2.829,2.829,0,0,0,3.765-.229l2.359-2.359a2.828,2.828,0,0,0,.243-3.775l-1.51-1.945a14.891,14.891,0,0,0,.6-1.441l2.439-.311a2.847,2.847,0,0,0,2.508-2.824v-3.361A2.849,2.849,0,0,0,273.855,256.071Zm-4.771,7.718a12.036,12.036,0,0,1-1.046,2.532,1.343,1.343,0,0,0,.112,1.486l2.044,2.631a.143.143,0,0,1-.012.192L267.807,273a.141.141,0,0,1-.193,0l-2.625-2.04a1.338,1.338,0,0,0-1.484-.113,12.053,12.053,0,0,1-2.536,1.048,1.347,1.347,0,0,0-.966,1.126l-.421,3.306a.154.154,0,0,1-.145.135h-3.352a.158.158,0,0,1-.154-.142l-.42-3.3a1.352,1.352,0,0,0-.968-1.126,12.058,12.058,0,0,1-2.537-1.049,1.375,1.375,0,0,0-.57-.165l-.088,0a1.382,1.382,0,0,0-.83.281l-2.632,2.045A.141.141,0,0,1,247.7,273l-2.376-2.375a.139.139,0,0,1,0-.19l2.038-2.623a1.34,1.34,0,0,0,.116-1.485,12.021,12.021,0,0,1-1.048-2.536,1.347,1.347,0,0,0-1.126-.966l-3.306-.421a.155.155,0,0,1-.135-.146V258.9a.162.162,0,0,1,.142-.156l3.3-.419a1.345,1.345,0,0,0,1.129-.967,11.967,11.967,0,0,1,1.047-2.534,1.345,1.345,0,0,0-.113-1.485l-2.045-2.631a.143.143,0,0,1,.013-.192l2.377-2.378a.141.141,0,0,1,.191,0l2.623,2.037a1.343,1.343,0,0,0,1.486.112,12.035,12.035,0,0,1,2.537-1.047,1.353,1.353,0,0,0,.965-1.128l.421-3.306a.154.154,0,0,1,.145-.135h3.349a.164.164,0,0,1,.158.148l.42,3.3a1.347,1.347,0,0,0,.968,1.126A11.951,11.951,0,0,1,263.5,250.3a1.346,1.346,0,0,0,1.487-.113l2.633-2.046a.142.142,0,0,1,.191.015l2.377,2.376a.139.139,0,0,1,0,.19l-2.039,2.624a1.342,1.342,0,0,0-.114,1.486,12,12,0,0,1,1.047,2.534,1.343,1.343,0,0,0,1.127.966l3.306.421a.156.156,0,0,1,.135.146v3.35a.164.164,0,0,1-.142.157l-3.3.42A1.345,1.345,0,0,0,269.084,263.789Z"/><path d="M257.752,252.436a8.139,8.139,0,1,0,0,16.279h0a8.139,8.139,0,1,0,0-16.279Zm5.433,8.14a5.433,5.433,0,1,1-5.433-5.433A5.438,5.438,0,0,1,263.185,260.576Z"/></g></svg>