<svg xmlns="http://www.w3.org/2000/svg" width="200" height="200" viewBox="0 0 200 200">
  <g id="stock_transfer" data-name="stock transfer" transform="translate(-2647 -77)">
    <rect id="Rectangle_5" data-name="Rectangle 5" width="200" height="200" transform="translate(2647 77)" fill="none"/>
    <g id="Group_55" data-name="Group 55" transform="translate(-4 1.4)">
      <g id="_6044774_inventory_list_stock_stockpile_supplies_icon" data-name="6044774_inventory_list_stock_stockpile_supplies_icon" transform="translate(2682 134.586)">
        <g id="Group_5" data-name="Group 5" transform="translate(0 0)">
          <g id="Group_3" data-name="Group 3" transform="translate(0 0)">
            <rect id="Rectangle_1" data-name="Rectangle 1" width="72.761" height="56.941" transform="translate(0 18.422)" fill="none" stroke="#6f57e9" stroke-linecap="round" stroke-linejoin="round" stroke-miterlimit="10" stroke-width="4.5"/>
            <path id="Path_13" data-name="Path 13" d="M271.57,99.562l-3.956,3.039V45.66l21.279-18.422-.078,47.887" transform="translate(-194.854 -27.238)" fill="none" stroke="#6f57e9" stroke-linecap="round" stroke-linejoin="round" stroke-miterlimit="10" stroke-width="4.5"/>
            <path id="Path_14" data-name="Path 14" d="M89.668,45.66H16.908l28.6-18.422h65.442Z" transform="translate(-16.908 -27.238)" fill="none" stroke="#6f57e9" stroke-linecap="round" stroke-linejoin="round" stroke-miterlimit="10" stroke-width="4.5"/>
            <line id="Line_1" data-name="Line 1" x1="26.555" y2="18.422" transform="translate(43.153)" fill="none" stroke="#6f57e9" stroke-linecap="round" stroke-linejoin="round" stroke-miterlimit="10" stroke-width="4.5"/>
            <line id="Line_2" data-name="Line 2" y1="18.422" x2="26.782" transform="translate(26.636)" fill="none" stroke="#6f57e9" stroke-linecap="round" stroke-linejoin="round" stroke-miterlimit="10" stroke-width="4.5"/>
            <rect id="Rectangle_2" data-name="Rectangle 2" width="18.191" height="23.977" transform="translate(26.539 18.422)" fill="none" stroke="#6f57e9" stroke-linecap="round" stroke-linejoin="round" stroke-miterlimit="10" stroke-width="4.5"/>
          </g>
          <g id="Group_4" data-name="Group 4" transform="translate(0 75.255)">
            <rect id="Rectangle_3" data-name="Rectangle 3" width="72.761" height="56.941" fill="none" stroke="#6f57e9" stroke-linecap="round" stroke-linejoin="round" stroke-miterlimit="10" stroke-width="4.5"/>
            <path id="Path_15" data-name="Path 15" d="M272.189,339.965l-4.575,3.515V286.539" transform="translate(-194.854 -286.539)" fill="none" stroke="#6f57e9" stroke-linecap="round" stroke-linejoin="round" stroke-miterlimit="10" stroke-width="4.5"/>
            <rect id="Rectangle_4" data-name="Rectangle 4" width="18.191" height="23.977" transform="translate(26.539)" fill="none" stroke="#6f57e9" stroke-linecap="round" stroke-linejoin="round" stroke-miterlimit="10" stroke-width="4.5"/>
          </g>
        </g>
        <g id="Group_6" data-name="Group 6" transform="translate(83.747 51.66)">
          <path id="Path_16" data-name="Path 16" d="M342.4,241.738h11.174v62.107h-48.1V241.738h11.1" transform="translate(-305.47 -231.145)" fill="none" stroke="#6f57e9" stroke-linecap="round" stroke-linejoin="round" stroke-miterlimit="10" stroke-width="4.5"/>
          <path id="Path_17" data-name="Path 17" d="M370.42,260.738h6.154v63.268h-48.1v-6.53" transform="translate(-321.795 -244.631)" fill="none" stroke="#6f57e9" stroke-linecap="round" stroke-linejoin="round" stroke-miterlimit="10" stroke-width="4.5"/>
          <path id="Path_18" data-name="Path 18" d="M361.131,207.85a4.933,4.933,0,0,0-8.706,0h-2.564c-3.308,0-5.99,2.175-5.99,4.858v6.461h25.766v-6.461c0-2.683-2.682-4.858-5.99-4.858Z" transform="translate(-332.726 -205.238)" fill="none" stroke="#6f57e9" stroke-linecap="round" stroke-linejoin="round" stroke-miterlimit="10" stroke-width="4.5"/>
          <line id="Line_3" data-name="Line 3" x2="27.571" transform="translate(10.557 26.555)" fill="none" stroke="#6f57e9" stroke-linecap="round" stroke-linejoin="round" stroke-miterlimit="10" stroke-width="4.5"/>
          <line id="Line_4" data-name="Line 4" x2="27.571" transform="translate(10.521 36.907)" fill="none" stroke="#6f57e9" stroke-linecap="round" stroke-linejoin="round" stroke-miterlimit="10" stroke-width="4.5"/>
          <line id="Line_5" data-name="Line 5" x2="27.571" transform="translate(10.484 47.258)" fill="none" stroke="#6f57e9" stroke-linecap="round" stroke-linejoin="round" stroke-miterlimit="10" stroke-width="4.5"/>
          <line id="Line_6" data-name="Line 6" x2="11.972" transform="translate(10.448 57.609)" fill="none" stroke="#6f57e9" stroke-linecap="round" stroke-linejoin="round" stroke-miterlimit="10" stroke-width="4.5"/>
        </g>
      </g>
      <g id="Group_54" data-name="Group 54" transform="translate(2694.197 83.6)">
        <g id="Group_44" data-name="Group 44" transform="translate(0 0)">
          <g id="transfer_6_">
            <g id="Group_43" data-name="Group 43">
              <g id="Group_42" data-name="Group 42">
                <g id="Group_41" data-name="Group 41">
                  <g id="Group_40" data-name="Group 40">
                    <path id="Path_25" data-name="Path 25" d="M125.7,74.692a2.629,2.629,0,0,1-2.632-2.632c0-25.208-10.5-55.259-60.533-55.269H30.951a2.629,2.629,0,0,1-2.632-2.632V8.279L9.748,19.423,28.319,30.571V24.687a2.633,2.633,0,0,1,2.632-2.632H62.533a2.632,2.632,0,0,1,0,5.264H33.583v7.9a2.628,2.628,0,0,1-1.337,2.295,2.657,2.657,0,0,1-2.648-.032L3.279,21.686a2.633,2.633,0,0,1,0-4.516L29.6,1.379a2.625,2.625,0,0,1,3.985,2.253v7.9H62.533c42.431.011,65.8,21.5,65.8,60.533A2.629,2.629,0,0,1,125.7,74.692Z" transform="translate(-2 -1)" fill="#6f57e9"/>
                  </g>
                </g>
              </g>
            </g>
          </g>
        </g>
        <g id="Group_53" data-name="Group 53" transform="translate(68.639 21.216)">
          <g id="Group_52" data-name="Group 52" transform="translate(0 0)">
            <ellipse id="Ellipse_3" data-name="Ellipse 3" cx="2.496" cy="2.496" rx="2.496" ry="2.496" fill="#6f57e9"/>
          </g>
        </g>
      </g>
    </g>
  </g>
</svg>
