<svg xmlns="http://www.w3.org/2000/svg" width="42.803" height="44.8" viewBox="0 0 42.803 44.8"><g transform="translate(-227.468 -242.37)"><path d="M251.287,263.373V247.224a1.9,1.9,0,0,0-.667-1.445l-3.475-2.96a1.884,1.884,0,0,0-1.22-.449h-13.1a1.885,1.885,0,0,0-1.219.449l-3.477,2.96a1.919,1.919,0,0,0-.5.667l-.035.1a1.9,1.9,0,0,0-.127.684v16.147a1.722,1.722,0,0,0,1.713,1.723h20.4A1.72,1.72,0,0,0,251.287,263.373Zm-3.054-17.429h-5.376l-.471-1.9h3.539a.22.22,0,0,1,.139.052ZM232.689,244.1c.04-.034.056-.074.141-.051h3.545l-.47,1.9h-5.382Zm16.884,19.316-20.433-.043v-15.75h6.574v3.2a1.364,1.364,0,0,0,1.36,1.371,1.437,1.437,0,0,0,.635-.162l1.675-.935,1.705.954a1.364,1.364,0,0,0,1.818-.642,1.388,1.388,0,0,0,.133-.589v-3.194h6.58V263.06l-.047.012Zm-9.356-13.765a1.319,1.319,0,0,0-1.616-.035l-1.218.682v-3.075a2.193,2.193,0,0,1,.071-.6l.639-2.573,2.564,0,.644,2.6a2.234,2.234,0,0,1,.064.585v3.062Z"/><path d="M269.682,269.723l-2.978-2.662a1.641,1.641,0,0,0-1.092-.423H254.386a1.638,1.638,0,0,0-1.087.421l-2.98,2.663a1.748,1.748,0,0,0-.439.616l-.031.088a1.794,1.794,0,0,0-.11.621v14.524a1.567,1.567,0,0,0,1.526,1.6h17.492a1.561,1.561,0,0,0,1.514-1.589V271.049A1.786,1.786,0,0,0,269.682,269.723Zm-6.652.138-.384-1.63h2.965a.107.107,0,0,1,.073.026l1.791,1.6Zm-2.262,3.043a1.158,1.158,0,0,0-1.467-.038l-.95.56v-2.385a2,2,0,0,1,.059-.531l.54-2.281h2.1l.545,2.3a2.059,2.059,0,0,1,.054.521v2.371Zm-3.8-3.048h-4.447l1.786-1.6,3.044-.029Zm-5.689,1.591H256.8v2.523a1.25,1.25,0,0,0,1.219,1.283,1.233,1.233,0,0,0,.581-.152l1.4-.82,1.434.841a1.221,1.221,0,0,0,1.644-.6,1.314,1.314,0,0,0,.116-.539v-2.534h5.52v14.133h.015l-17.453,0Z"/><path d="M260.5,257.381l.143.062a6.322,6.322,0,0,1,4.274,3.616l-.031-.018a.81.81,0,0,0-1.093.33.807.807,0,0,0,.331,1.093l1.721.921a.8.8,0,0,0,.381.1.786.786,0,0,0,.234-.035.8.8,0,0,0,.478-.393l.895-1.767a.806.806,0,0,0-1.4-.785,7.994,7.994,0,0,0-5.4-4.625.789.789,0,0,0-.4,0l-.247-.743-.309,1.227-.037.153a.8.8,0,0,0,.1.56A.745.745,0,0,0,260.5,257.381Z"/><path d="M244.6,278.16l-.193-.374-.064.258h0a6.324,6.324,0,0,1-4.275-3.616l.047.025a.807.807,0,0,0,.747-1.43l-1.723-.922a.812.812,0,0,0-1.091.332l-.883,1.744a.805.805,0,0,0,1.392.81,8,8,0,0,0,5.4,4.626.791.791,0,0,0,.473-.028l.242.486.264-1.047A.807.807,0,0,0,244.6,278.16Z"/></g></svg>