<svg xmlns="http://www.w3.org/2000/svg" width="74.864" height="95.134" viewBox="0 0 74.864 95.134"><defs><style>.surate_a{fill:#6f57e9;}</style></defs><g transform="translate(763.251 -893.667)"><g transform="translate(-763.251 987.035)"><path class="surate_a" d="M-688.592,1054.058h-74.454c-.113,0-.2-.4-.2-.883s.092-.883.2-.883h74.454c.113,0,.2.395.2.883S-688.479,1054.058-688.592,1054.058Z" transform="translate(763.251 -1052.292)"/></g><path class="surate_a" d="M-735.544,984.917h-3.605a.883.883,0,0,0-.883.883.883.883,0,0,0,.883.883h3.605a.883.883,0,0,0,.883-.883A.883.883,0,0,0-735.544,984.917Z" transform="translate(-9.552 -37.54)"/><path class="surate_a" d="M-721.481,984.917h-3.605a.883.883,0,0,0-.883.883.883.883,0,0,0,.883.883h3.605a.883.883,0,0,0,.883-.883A.883.883,0,0,0-721.481,984.917Z" transform="translate(-15.338 -37.54)"/><path class="surate_a" d="M-707.419,984.917h-3.605a.883.883,0,0,0-.883.883.883.883,0,0,0,.883.883h3.605a.883.883,0,0,0,.883-.883A.883.883,0,0,0-707.419,984.917Z" transform="translate(-21.123 -37.54)"/><path class="surate_a" d="M-663.919,984.917h-3.605a.883.883,0,0,0-.883.883.883.883,0,0,0,.883.883h3.605a.883.883,0,0,0,.883-.883A.883.883,0,0,0-663.919,984.917Z" transform="translate(-39.018 -37.54)"/><path class="surate_a" d="M-677.981,984.917h-3.605a.883.883,0,0,0-.883.883.883.883,0,0,0,.883.883h3.605a.883.883,0,0,0,.883-.883A.883.883,0,0,0-677.981,984.917Z" transform="translate(-33.233 -37.54)"/><path class="surate_a" d="M-692.044,984.917h-3.605a.883.883,0,0,0-.883.883.883.883,0,0,0,.883.883h3.605a.883.883,0,0,0,.883-.883A.883.883,0,0,0-692.044,984.917Z" transform="translate(-27.448 -37.54)"/><path class="surate_a" d="M-692.288,961.283a.883.883,0,0,0,.883-.883.882.882,0,0,0-.883-.883h-.039V935.311a.883.883,0,0,0-.883-.883h-11.4V919.2h.4a.883.883,0,0,0,.883-.883.883.883,0,0,0-.883-.883h-.4v-4.267c0-3.917-1.206-12.671-11.743-13.845l-.55-4.868a.882.882,0,0,0-.877-.784h-2.06a.882.882,0,0,0-.877.784l-.55,4.868c-10.537,1.174-11.743,9.928-11.743,13.845v4.267h-.4a.883.883,0,0,0-.883.883.883.883,0,0,0,.883.883h.4v15.23h-11.4a.883.883,0,0,0-.883.883v24.207h-.039a.883.883,0,0,0-.883.883.883.883,0,0,0,.883.883h.039v17.805h-.039a.883.883,0,0,0-.883.883.883.883,0,0,0,.883.883h.039v7.063a.883.883,0,0,0,.883.883h51.209a.883.883,0,0,0,.883-.883v-7.063h.039a.883.883,0,0,0,.883-.883.882.882,0,0,0-.883-.883h-.039V961.283Zm-26.527-10.521h-24.721v-5h49.443v5Zm-20.675-9.565h-1.324v-1.839a.663.663,0,0,1,.662-.662.663.663,0,0,1,.662.662Zm-2.207,1.766h47.6v1.03h-49.443v-1.03Zm8.254-1.766h-1.324v-1.839a.662.662,0,0,1,.662-.662.663.663,0,0,1,.662.662Zm6.046,0h-1.324v-1.839a.663.663,0,0,1,.662-.662.663.663,0,0,1,.662.662Zm6.046,0h-1.324v-1.839a.663.663,0,0,1,.662-.662.662.662,0,0,1,.662.662Zm6.4,0h-1.324v-1.839a.663.663,0,0,1,.662-.662.663.663,0,0,1,.662.662Zm6.046,0h-1.324v-1.839a.663.663,0,0,1,.662-.662.663.663,0,0,1,.662.662Zm6.047,0h-1.324v-1.839a.662.662,0,0,1,.662-.662.663.663,0,0,1,.662.662Zm6.046,0h-1.324v-1.839a.663.663,0,0,1,.662-.662.663.663,0,0,1,.662.662Zm-22.241-45.764h.483l.425,3.768c-.221-.006-.438-.016-.666-.016s-.446.009-.666.016Zm.241,5.518c4.512,0,11.992,1.5,12.414,11.331h-24.827C-730.806,902.45-723.326,900.951-718.814,900.951Zm-12.434,13.1h24.869v3.385h-24.869Zm0,5.15h24.869v15.23h-.552V923.843a3.756,3.756,0,0,0-3.752-3.752,3.756,3.756,0,0,0-3.752,3.752v10.585h-.626V923.843a3.756,3.756,0,0,0-3.752-3.752,3.756,3.756,0,0,0-3.752,3.752v10.585h-.625V923.843a3.756,3.756,0,0,0-3.752-3.752,3.756,3.756,0,0,0-3.752,3.752v10.585h-.552Zm22.551,15.23h-3.973V923.843a1.988,1.988,0,0,1,1.987-1.987,1.989,1.989,0,0,1,1.987,1.987Zm-10.117,0H-720.8V923.843a1.989,1.989,0,0,1,1.986-1.987,1.989,1.989,0,0,1,1.987,1.987v10.585Zm-6.143,0h-3.973V923.843a1.988,1.988,0,0,1,1.987-1.987,1.989,1.989,0,0,1,1.987,1.987Zm-18.578,1.766h49.443v5h-.956v-1.839a2.431,2.431,0,0,0-2.428-2.428,2.431,2.431,0,0,0-2.428,2.428V941.2h-1.19v-1.839a2.431,2.431,0,0,0-2.428-2.428,2.43,2.43,0,0,0-2.428,2.428V941.2h-1.191v-1.839a2.43,2.43,0,0,0-2.428-2.428A2.431,2.431,0,0,0-712,939.358V941.2h-1.19v-1.839a2.431,2.431,0,0,0-2.428-2.428,2.43,2.43,0,0,0-2.428,2.428V941.2h-1.54v-1.839a2.43,2.43,0,0,0-2.428-2.428,2.431,2.431,0,0,0-2.428,2.428V941.2h-1.19v-1.839a2.431,2.431,0,0,0-2.428-2.428,2.431,2.431,0,0,0-2.428,2.428V941.2h-1.19v-1.839a2.431,2.431,0,0,0-2.428-2.428,2.43,2.43,0,0,0-2.428,2.428V941.2h-1.191v-1.839a2.431,2.431,0,0,0-2.428-2.428,2.431,2.431,0,0,0-2.428,2.428V941.2h-.956Zm0,16.334h49.443v6.99h-2.9v-1.736a3.123,3.123,0,0,0-3.12-3.12,3.123,3.123,0,0,0-3.121,3.12v1.736h-3.109v-1.736a3.123,3.123,0,0,0-3.121-3.12,3.123,3.123,0,0,0-3.121,3.12v1.736h-3.109v-1.736a3.123,3.123,0,0,0-3.121-3.12,3.123,3.123,0,0,0-3.121,3.12v1.736h-3.109v-1.736a3.123,3.123,0,0,0-3.121-3.12,3.123,3.123,0,0,0-3.12,3.12v1.736h-3.11v-1.736a3.123,3.123,0,0,0-3.12-3.12,3.123,3.123,0,0,0-3.121,3.12v1.736h-2.9Zm37.193,8.756h3.109v17.805h-3.109Zm0,19.571h3.109v6.18h-3.109Zm-9.351-19.571h3.109v17.805h-3.109Zm0,19.571h3.109v6.18h-3.109Zm-9.351-19.571h3.109v17.805h-3.109Zm0,19.571h3.109v6.18h-3.109Zm-9.351-19.571h3.11v17.805h-3.11Zm0,19.571h3.11v6.18h-3.11Zm-9.141-19.571h2.9v17.805h-2.9Zm0,19.571h2.9v6.18h-2.9Zm4.666,6.18V980.8a.881.881,0,0,0,.592-.83.881.881,0,0,0-.592-.831V961.23a.881.881,0,0,0,.592-.83.881.881,0,0,0-.592-.831v-1.788a1.356,1.356,0,0,1,1.355-1.354,1.356,1.356,0,0,1,1.354,1.354v1.752a.883.883,0,0,0-.716.866.883.883,0,0,0,.716.866v17.839a.883.883,0,0,0-.716.867.883.883,0,0,0,.716.866v6.2Zm9.351,0V980.8a.881.881,0,0,0,.589-.829.881.881,0,0,0-.589-.829V961.229a.881.881,0,0,0,.589-.829.881.881,0,0,0-.589-.829v-1.789a1.356,1.356,0,0,1,1.354-1.354,1.356,1.356,0,0,1,1.355,1.354v1.752a.883.883,0,0,0-.72.867.882.882,0,0,0,.72.866V979.1a.883.883,0,0,0-.72.867.882.882,0,0,0,.72.866v6.2Zm10.7,0h-1.355V980.8a.881.881,0,0,0,.585-.828.881.881,0,0,0-.585-.828V961.228a.881.881,0,0,0,.585-.828.881.881,0,0,0-.585-.828v-1.791a1.356,1.356,0,0,1,1.355-1.354,1.356,1.356,0,0,1,1.355,1.354v1.791a.881.881,0,0,0-.585.828.881.881,0,0,0,.585.828v17.915a.881.881,0,0,0-.585.828.881.881,0,0,0,.585.828v6.236Zm8,0v-6.2a.882.882,0,0,0,.72-.866.883.883,0,0,0-.72-.867V961.266a.882.882,0,0,0,.72-.866.883.883,0,0,0-.72-.867v-1.752a1.356,1.356,0,0,1,1.355-1.354,1.356,1.356,0,0,1,1.355,1.354v1.789a.881.881,0,0,0-.589.829.881.881,0,0,0,.589.829v17.913a.881.881,0,0,0-.589.829.881.881,0,0,0,.589.829v6.234Zm9.351,0v-6.2a.883.883,0,0,0,.717-.866.883.883,0,0,0-.717-.867V961.266a.883.883,0,0,0,.717-.866.883.883,0,0,0-.717-.866v-1.752a1.356,1.356,0,0,1,1.355-1.354,1.356,1.356,0,0,1,1.354,1.354v1.788a.881.881,0,0,0-.592.831.881.881,0,0,0,.592.83v17.911a.881.881,0,0,0-.592.831.881.881,0,0,0,.592.83v6.233Zm7.375,0h-2.9v-6.18h2.9Zm0-7.946h-2.9V961.283h2.9Z" transform="translate(-7.005)"/></g></svg>