<?xml version="1.0" encoding="utf-8"?>
<!-- Generator: Adobe Illustrator 16.0.0, SVG Export Plug-In . SVG Version: 6.00 Build 0)  -->
<!DOCTYPE svg PUBLIC "-//W3C//DTD SVG 1.1//EN" "http://www.w3.org/Graphics/SVG/1.1/DTD/svg11.dtd">
<svg version="1.1" id="Layer_1" xmlns="http://www.w3.org/2000/svg" xmlns:xlink="http://www.w3.org/1999/xlink" x="0px" y="0px"
	 width="138px" height="138px" viewBox="0 0 138 138" enable-background="new 0 0 138 138" xml:space="preserve">
<path id="Path_4941" fill="none" d="M0,0h138v138H0V0z"/>
<g id="iconfinder_3111354_car_delivery_fast_shipping_truck_icon" transform="translate(3215.4 1241.7)">
	<path id="Path_4936" fill="#7D91AC" d="M-3085.969-1173.671c-0.321-3.357-2.71-6.155-5.976-7l-5.635-1.537l-3.759-12.978
		c-0.603-3.78-3.698-6.666-7.513-7l-17.929-1.2v-3.415c0.012-1.589-1.268-2.888-2.855-2.9c-0.016,0-0.03,0-0.045,0h-49.521
		c-1.604,0-2.903,1.3-2.903,2.903c0,1.604,1.3,2.903,2.903,2.903h46.616v44.908h-65.743c-1.604,0-2.903,1.3-2.903,2.903
		c0,1.603,1.3,2.901,2.903,2.901h8.37c-1.601,2.414-2.211,5.351-1.708,8.2c0.895,5.551,5.647,9.656,11.27,9.732
		c0.631,0.027,1.263-0.028,1.878-0.17c4.464-0.709,8.084-3.994,9.221-8.367h49.86c1.396,4.994,5.915,8.472,11.101,8.537
		c0.631,0.027,1.263-0.028,1.879-0.17c6.212-1.021,10.421-6.887,9.398-13.1c-0.003-0.018-0.006-0.035-0.009-0.054l0,0
		c-0.313-1.565-0.892-3.067-1.708-4.44h7.854c2.732,0,4.952-0.854,5.978-2.22c0.639-0.821,0.889-1.88,0.683-2.899
		L-3085.969-1173.671z M-3107.313-1141.4c-3.176,0.418-6.089-1.817-6.507-4.993c-0.399-3.033,1.627-5.854,4.629-6.447h1.024
		c3.17-0.084,5.81,2.418,5.895,5.588C-3102.193-1144.296-3104.375-1141.76-3107.313-1141.4L-3107.313-1141.4z M-3119.607-1149.764
		h-49.521c-0.302-1.274-0.822-2.488-1.537-3.586h52.763C-3118.675-1152.264-3119.251-1151.052-3119.607-1149.764z
		 M-3175.615-1143.618c-0.918,1.229-2.255,2.08-3.757,2.391c-1.5,0.193-3.02-0.172-4.269-1.025
		c-1.228-0.918-2.077-2.254-2.387-3.756c-0.193-1.5,0.171-3.02,1.024-4.27c0.918-1.229,2.254-2.08,3.757-2.391h1.018
		c1.214-0.004,2.403,0.354,3.415,1.024c1.229,0.918,2.08,2.255,2.391,3.757l0,0
		C-3174.249-1146.363-3174.677-1144.831-3175.615-1143.618z M-3090.921-1158.986h-35.856v-38.761l17.417,1.2
		c1.229,0.067,2.232,1,2.391,2.22c-0.021,0.188,0.041,0.376,0.172,0.512l4.271,14.68c0.255,0.974,1.057,1.708,2.049,1.878
		l7.172,2.049c0.993,0.328,1.72,1.186,1.879,2.22l1.537,14L-3090.921-1158.986z"/>
	<path id="Path_4937" fill="#7D91AC" d="M-3195.252-1189.895c-0.012,1.59,1.266,2.888,2.856,2.9c0.015,0,0.029,0,0.044,0h30.056
		c1.589,0.012,2.888-1.267,2.9-2.856c0-0.015,0-0.029,0-0.044c0.068-1.533-1.119-2.832-2.652-2.9c-0.083-0.003-0.165-0.003-0.248,0
		h-30.056c-1.533-0.068-2.832,1.12-2.9,2.653C-3195.256-1190.06-3195.256-1189.977-3195.252-1189.895z"/>
	<path id="Path_4938" fill="#7D91AC" d="M-3165.711-1173.161c0.012-1.589-1.267-2.888-2.856-2.9c-0.015,0-0.029,0-0.044,0h-36.889
		c-1.589-0.012-2.888,1.266-2.9,2.855c0,0.015,0,0.03,0,0.044c-0.068,1.532,1.119,2.832,2.652,2.899
		c0.083,0.004,0.165,0.004,0.248,0h36.886c1.589,0.015,2.889-1.264,2.903-2.854
		C-3165.711-1173.13-3165.711-1173.145-3165.711-1173.161z"/>
</g>
</svg>
