<svg xmlns="http://www.w3.org/2000/svg" width="29.4" height="38.401" viewBox="0 0 29.4 38.401"><g transform="translate(-243.052 -241.375)"><path d="M268.384,244.116a4.521,4.521,0,0,0-4.155-2.741H247.586a4.567,4.567,0,0,0-4.534,4.573v26.539a4.586,4.586,0,0,0,4.074,4.548,4.55,4.55,0,0,0,4.149,2.741h16.643a4.568,4.568,0,0,0,4.534-4.573V248.662A4.585,4.585,0,0,0,268.384,244.116Zm-1.216,28.373a2.958,2.958,0,0,1-2.939,2.965H247.588a2.961,2.961,0,0,1-2.936-2.965v-26.54a2.961,2.961,0,0,1,2.939-2.967h16.638a2.961,2.961,0,0,1,2.939,2.967Zm1.59-26.668a2.98,2.98,0,0,1,2.1,2.839l0,26.543a2.962,2.962,0,0,1-2.939,2.966H251.276a2.933,2.933,0,0,1-2.285-1.108H264.23a4.568,4.568,0,0,0,4.535-4.573V256.47C268.767,248.48,268.767,246.418,268.758,245.821Z"/><path d="M264.841,258.125H247.2a.8.8,0,0,0,0,1.607h17.643a.8.8,0,1,0,0-1.607Z"/><path d="M264.841,261.752H247.2a.8.8,0,0,0,0,1.607h17.643a.8.8,0,1,0,0-1.607Z"/><path d="M264.841,265.378H247.2a.8.8,0,0,0,0,1.607h17.643a.8.8,0,1,0,0-1.607Z"/><path d="M250.139,251.674c.917.246,1.2.391,1.2.814,0,.515-.512.638-.67.664a.959.959,0,0,1-1.092-.51.78.78,0,0,0-1.019-.465.692.692,0,0,0-.482.9,2.34,2.34,0,0,0,2.345,1.47,3.037,3.037,0,0,0,.487-.038,2.094,2.094,0,0,0,1.944-2.052c0-1.511-1.236-1.847-2.138-2.093s-1.177-.386-1.177-.778a.634.634,0,0,1,.559-.621.977.977,0,0,1,1.074.428.786.786,0,0,0,1.065.377.687.687,0,0,0,.393-.936,2.54,2.54,0,0,0-2.854-1.222,2.024,2.024,0,0,0-1.759,2C248.018,251.109,249.243,251.436,250.139,251.674Z"/><path d="M253.546,254.28a.742.742,0,0,0,.549.174.752.752,0,0,0,.685-.684l.043-1.487c.387.428.692.77.936,1.043,1.007,1.127,1.026,1.151,1.4,1.151h0a.725.725,0,0,0,.535-1.216l-2-2.218,2-2.211a.726.726,0,0,0-1.089-.956l-1.82,1.971v-1.505a.754.754,0,0,0-.749-.688l-.064,0a.752.752,0,0,0-.686.7v5.409A.752.752,0,0,0,253.546,254.28Z"/><path d="M260.751,254.537a2.406,2.406,0,0,0,.389,0c.059.005.12.007.178.007a2.5,2.5,0,0,0,2.491-2.685v-3.517a.752.752,0,0,0-1.5.017v3.512c0,.862-.368,1.262-1.156,1.262s-1.165-.4-1.165-1.262V248.36a.728.728,0,0,0-.725-.726h-.052a.728.728,0,0,0-.727.726v3.482A2.493,2.493,0,0,0,260.751,254.537Z"/></g></svg>