<svg xmlns="http://www.w3.org/2000/svg" width="34.599" height="33.6" viewBox="0 0 34.599 33.6"><g transform="translate(-231.57 -247.97)"><path d="M265.87,248.275a1.024,1.024,0,0,0-.729-.3H240a1.033,1.033,0,0,0-1.029,1.035v14.313H232.6a1.035,1.035,0,0,0-1.028,1.035v12.459a4.756,4.756,0,0,0,4.727,4.758h25.144a4.756,4.756,0,0,0,4.728-4.757V249.006A1.024,1.024,0,0,0,265.87,248.275Zm-1.761,28.539a2.685,2.685,0,0,1-2.668,2.686H240.2a4.744,4.744,0,0,0,.827-2.687V250.042h23.082Zm-30.479-.3V265.389h5.34v11.424a2.669,2.669,0,1,1-5.337,0v-.3Z"/><path d="M252.942,257.065l.055.005,8-.005a1.055,1.055,0,0,0,.847-1.229,1.071,1.071,0,0,0-.9-.849l-8,.005a1.054,1.054,0,0,0,0,2.073Z"/><path d="M252.942,265.137l.055.005,8-.005a1.058,1.058,0,0,0,.846-1.229,1.071,1.071,0,0,0-.9-.849l-8,.005a1.054,1.054,0,0,0,0,2.073Z"/><path d="M252.942,273.208l.055.005,8-.005a1.054,1.054,0,0,0,.847-1.228,1.071,1.071,0,0,0-.9-.849l-8,0a1.054,1.054,0,0,0,0,2.072Z"/><path d="M245.1,257.882h0a.845.845,0,0,0,1.245-.013l3.054-3.343a.856.856,0,0,0-1.264-1.155l-2.432,2.663-.6-.632a.856.856,0,0,0-1.5.51.873.873,0,0,0,.246.657Z"/><path d="M245.1,265.628h0a.846.846,0,0,0,1.245-.012l3.054-3.344a.856.856,0,0,0-1.264-1.154l-2.432,2.662-.6-.632a.843.843,0,0,0-.587-.289.861.861,0,0,0-.62.212.847.847,0,0,0-.289.588.872.872,0,0,0,.246.656Z"/><path d="M245.1,275.16a.847.847,0,0,0,1.245-.011L249.4,271.8a.856.856,0,0,0-1.265-1.153l-2.432,2.661-.6-.63a.855.855,0,0,0-1.5.51.872.872,0,0,0,.246.656Z"/></g></svg>